<?xml version="1.0" encoding="UTF-8"?>
<svg xmlns="http://www.w3.org/2000/svg" xmlns:xlink="http://www.w3.org/1999/xlink" width="350px" height="215px" viewBox="0 0 350 215" version="1.1">
<g id="surface1">
<path style=" stroke:none;fill-rule:nonzero;fill:rgb(97.254902%,69.019608%,4.705882%);fill-opacity:1;" d="M 198.675781 15.125 C 198.675781 18.890625 194.976562 21.945312 190.410156 21.945312 C 185.847656 21.945312 182.148438 18.890625 182.148438 15.125 C 182.148438 11.359375 185.847656 8.308594 190.410156 8.308594 C 194.976562 8.308594 198.675781 11.359375 198.675781 15.125 Z M 198.675781 15.125 "/>
<path style=" stroke:none;fill-rule:nonzero;fill:rgb(100%,100%,100%);fill-opacity:1;" d="M 189.59375 17.726562 C 189.40625 17.726562 189.226562 17.675781 189.078125 17.585938 L 189.066406 17.578125 L 187.125 16.355469 C 186.746094 16.113281 186.675781 15.667969 186.964844 15.355469 C 187.257812 15.042969 187.796875 14.984375 188.175781 15.222656 L 189.433594 16.019531 L 192.40625 12.820312 C 192.695312 12.507812 193.238281 12.449219 193.617188 12.6875 L 193.597656 12.707031 L 193.617188 12.6875 C 193.992188 12.925781 194.066406 13.375 193.777344 13.6875 L 190.28125 17.449219 C 190.117188 17.625 189.863281 17.726562 189.59375 17.726562 Z M 189.59375 17.726562 "/>
<path style=" stroke:none;fill-rule:nonzero;fill:rgb(97.254902%,69.019608%,4.705882%);fill-opacity:1;" d="M 198.675781 61.222656 C 198.675781 64.988281 194.976562 68.042969 190.410156 68.042969 C 185.847656 68.042969 182.148438 64.988281 182.148438 61.222656 C 182.148438 57.457031 185.847656 54.402344 190.410156 54.402344 C 194.976562 54.402344 198.675781 57.457031 198.675781 61.222656 Z M 198.675781 61.222656 "/>
<path style=" stroke:none;fill-rule:nonzero;fill:rgb(100%,100%,100%);fill-opacity:1;" d="M 189.59375 63.824219 C 189.40625 63.824219 189.226562 63.773438 189.078125 63.683594 L 189.066406 63.675781 L 187.125 62.449219 C 186.746094 62.210938 186.675781 61.765625 186.964844 61.453125 C 187.257812 61.140625 187.796875 61.082031 188.175781 61.320312 L 189.433594 62.117188 L 192.40625 58.917969 C 192.695312 58.605469 193.238281 58.546875 193.617188 58.785156 L 193.597656 58.804688 L 193.617188 58.785156 C 193.992188 59.023438 194.066406 59.472656 193.777344 59.785156 L 190.28125 63.546875 C 190.117188 63.722656 189.863281 63.824219 189.59375 63.824219 Z M 189.59375 63.824219 "/>
<path style=" stroke:none;fill-rule:nonzero;fill:rgb(100%,71.764706%,71.764706%);fill-opacity:1;" d="M 211.164062 132.875 C 211.109375 131.730469 211.671875 130.625 212.699219 129.855469 C 213.726562 129.085938 215.117188 128.734375 216.492188 128.890625 L 224.058594 116.636719 L 228.335938 122.851562 L 220.492188 133.535156 C 220.007812 135.464844 217.851562 136.792969 215.472656 136.625 C 213.09375 136.457031 211.242188 134.84375 211.164062 132.875 Z M 211.164062 132.875 "/>
<path style=" stroke:none;fill-rule:nonzero;fill:rgb(100%,71.764706%,71.764706%);fill-opacity:1;" d="M 246.445312 210.027344 L 240.503906 210.027344 L 237.679688 191.125 L 246.445312 191.125 Z M 246.445312 210.027344 "/>
<path style=" stroke:none;fill-rule:nonzero;fill:rgb(18.431373%,18.039216%,25.490196%);fill-opacity:1;" d="M 247.957031 214.777344 L 228.808594 214.777344 L 228.808594 214.578125 C 228.808594 211.179688 232.144531 208.425781 236.261719 208.425781 L 247.960938 208.429688 Z M 247.957031 214.777344 "/>
<path style=" stroke:none;fill-rule:nonzero;fill:rgb(100%,71.764706%,71.764706%);fill-opacity:1;" d="M 278.640625 210.027344 L 272.699219 210.027344 L 269.875 191.125 L 278.640625 191.125 Z M 278.640625 210.027344 "/>
<path style=" stroke:none;fill-rule:nonzero;fill:rgb(18.431373%,18.039216%,25.490196%);fill-opacity:1;" d="M 280.152344 214.777344 L 261.003906 214.777344 L 261.003906 214.578125 C 261.003906 211.179688 264.339844 208.425781 268.457031 208.425781 L 280.15625 208.429688 Z M 280.152344 214.777344 "/>
<path style=" stroke:none;fill-rule:nonzero;fill:rgb(89.803922%,89.803922%,89.803922%);fill-opacity:1;" d="M 220.285156 122.210938 L 217.691406 125.777344 C 217.691406 125.777344 222.011719 125.777344 222.878906 131.125 L 226.335938 127.558594 Z M 220.285156 122.210938 "/>
<path style=" stroke:none;fill-rule:nonzero;fill:rgb(18.431373%,18.039216%,25.490196%);fill-opacity:1;" d="M 265.65625 114.722656 C 265.65625 114.722656 272.570312 129.699219 273.867188 138.96875 C 275.164062 148.242188 277.324219 172.847656 277.324219 172.847656 L 281.644531 204.582031 L 269.546875 206.007812 L 264.359375 173.917969 L 252.691406 142.179688 L 250.101562 173.917969 L 247.941406 202.800781 L 236.703125 203.15625 L 235.839844 173.203125 L 231.085938 135.046875 L 233.679688 116.863281 Z M 265.65625 114.722656 "/>
<path style=" stroke:none;fill-rule:nonzero;fill:rgb(100%,71.764706%,71.764706%);fill-opacity:1;" d="M 257.015625 60.5625 C 257.015625 65.484375 252.175781 69.476562 246.210938 69.476562 C 240.246094 69.476562 235.410156 65.484375 235.410156 60.5625 C 235.410156 55.636719 240.246094 51.648438 246.210938 51.648438 C 252.175781 51.648438 257.015625 55.636719 257.015625 60.5625 Z M 257.015625 60.5625 "/>
<path style=" stroke:none;fill-rule:nonzero;fill:rgb(89.803922%,89.803922%,89.803922%);fill-opacity:1;" d="M 257.230469 69.257812 L 261.550781 71.753906 L 267.167969 118.46875 L 232.167969 119.179688 L 236.921875 86.730469 L 241.242188 77.460938 L 244.359375 74.054688 Z M 257.230469 69.257812 "/>
<path style=" stroke:none;fill-rule:nonzero;fill:rgb(18.431373%,18.039216%,25.490196%);fill-opacity:1;" d="M 258.09375 102.777344 L 259.417969 70.519531 C 259.417969 70.519531 261.984375 70.683594 262.847656 71.753906 C 263.710938 72.824219 277.972656 74.964844 277.972656 74.964844 L 275.378906 108.125 C 275.378906 108.125 286.179688 134.511719 282.292969 135.941406 C 278.402344 137.367188 271.488281 137.007812 271.488281 137.007812 Z M 258.09375 102.777344 "/>
<path style=" stroke:none;fill-rule:nonzero;fill:rgb(18.431373%,18.039216%,25.490196%);fill-opacity:1;" d="M 237.136719 98.675781 L 241.722656 76.9375 L 231.519531 82.628906 L 234.113281 98.320312 L 231.953125 109.015625 C 231.953125 109.015625 223.742188 138.613281 226.335938 139.683594 C 228.925781 140.753906 231.953125 139.683594 231.953125 139.683594 L 237.136719 109.730469 Z M 237.136719 98.675781 "/>
<path style=" stroke:none;fill-rule:nonzero;fill:rgb(18.431373%,18.039216%,25.490196%);fill-opacity:1;" d="M 234.542969 81.917969 L 231.519531 82.628906 L 230.222656 96.894531 L 228.0625 109.375 L 217.691406 124.707031 C 217.691406 124.707031 222.878906 121.855469 225.039062 130.054688 L 236.460938 113.648438 Z M 234.542969 81.917969 "/>
<path style=" stroke:none;fill-rule:nonzero;fill:rgb(18.431373%,18.039216%,25.490196%);fill-opacity:1;" d="M 255.253906 52.066406 L 257.292969 51.394531 C 257.292969 51.394531 253.03125 47.523438 247.105469 47.863281 L 248.773438 46.347656 C 248.773438 46.347656 244.699219 45 240.996094 48.535156 C 239.046875 50.390625 236.796875 52.574219 235.390625 55.035156 L 233.210938 55.035156 L 234.121094 56.6875 L 230.933594 58.34375 L 234.203125 58.046875 C 234.007812 58.953125 233.980469 59.878906 234.117188 60.789062 C 234.253906 61.703125 234.820312 62.535156 235.691406 63.113281 C 235.691406 63.113281 238.21875 58.796875 238.21875 58.125 L 238.21875 59.808594 C 238.21875 59.808594 240.253906 58.292969 240.253906 57.285156 L 241.367188 58.460938 L 241.921875 56.609375 L 248.773438 58.460938 L 247.660156 56.945312 L 251.921875 57.453125 L 250.253906 55.601562 L 256.847656 63.242188 C 256.847656 63.242188 260.625 54.589844 255.253906 52.066406 Z M 255.253906 52.066406 "/>
<path style=" stroke:none;fill-rule:nonzero;fill:rgb(100%,71.764706%,71.764706%);fill-opacity:1;" d="M 258.046875 129.949219 C 258.265625 128.820312 259.078125 127.824219 260.265625 127.234375 C 261.457031 126.644531 262.902344 126.519531 264.210938 126.894531 L 274.519531 116.085938 L 277.25 122.867188 L 267.046875 132.09375 C 266.117188 133.910156 263.691406 134.867188 261.394531 134.320312 C 259.097656 133.773438 257.660156 131.894531 258.046875 129.949219 Z M 258.046875 129.949219 "/>
<path style=" stroke:none;fill-rule:nonzero;fill:rgb(89.803922%,89.803922%,89.803922%);fill-opacity:1;" d="M 275.59375 126.132812 L 271.707031 130.054688 L 266.519531 122.566406 L 268.679688 119.359375 Z M 275.59375 126.132812 "/>
<path style=" stroke:none;fill-rule:nonzero;fill:rgb(18.431373%,18.039216%,25.490196%);fill-opacity:1;" d="M 274.730469 76.210938 L 278.1875 74.785156 C 278.1875 74.785156 280.78125 77.636719 281.210938 80.132812 C 281.644531 82.628906 283.804688 85.839844 283.804688 87.621094 C 283.804688 89.40625 289.855469 106.164062 289.855469 106.164062 L 276.027344 129.34375 C 276.027344 129.34375 273.003906 120.785156 266.519531 120.070312 L 277.324219 107.589844 L 271.273438 98.675781 Z M 274.730469 76.210938 "/>
<path style=" stroke:none;fill-rule:nonzero;fill:rgb(79.607843%,79.607843%,79.607843%);fill-opacity:1;" d="M 349.527344 215 L 183.257812 215 C 183.015625 215 182.820312 214.835938 182.820312 214.636719 C 182.820312 214.441406 183.015625 214.277344 183.257812 214.277344 L 349.527344 214.277344 C 349.769531 214.277344 349.964844 214.441406 349.964844 214.636719 C 349.964844 214.835938 349.769531 215 349.527344 215 Z M 349.527344 215 "/>
<path style=" stroke:none;fill-rule:nonzero;fill:rgb(100%,100%,100%);fill-opacity:1;" d="M 159.289062 76.347656 L 0 76.347656 L 0 46.097656 L 159.289062 46.097656 Z M 159.289062 76.347656 "/>
<path style=" stroke:none;fill-rule:nonzero;fill:rgb(97.254902%,69.019608%,4.705882%);fill-opacity:1;" d="M 22.988281 56.101562 C 22.132812 56.101562 21.441406 56.675781 21.441406 57.378906 C 21.441406 58.085938 22.132812 58.660156 22.988281 58.660156 L 136.308594 58.660156 C 137.164062 58.660156 137.855469 58.085938 137.855469 57.378906 C 137.855469 56.675781 137.164062 56.101562 136.308594 56.101562 Z M 22.988281 56.101562 "/>
<path style=" stroke:none;fill-rule:nonzero;fill:rgb(97.254902%,69.019608%,4.705882%);fill-opacity:1;" d="M 22.988281 63.785156 C 22.132812 63.78125 21.4375 64.355469 21.433594 65.0625 C 21.433594 65.769531 22.125 66.34375 22.984375 66.347656 L 94.625 66.347656 C 95.179688 66.347656 95.691406 66.101562 95.96875 65.707031 C 96.246094 65.308594 96.246094 64.820312 95.96875 64.425781 C 95.691406 64.027344 95.179688 63.785156 94.625 63.785156 Z M 22.988281 63.785156 "/>
<path style=" stroke:none;fill-rule:nonzero;fill:rgb(89.803922%,89.803922%,89.803922%);fill-opacity:1;" d="M 159.289062 76.347656 L 0 76.347656 L 0 46.097656 L 159.289062 46.097656 Z M 2.617188 74.1875 L 156.671875 74.1875 L 156.671875 48.257812 L 2.617188 48.257812 Z M 2.617188 74.1875 "/>
<path style=" stroke:none;fill-rule:nonzero;fill:rgb(100%,100%,100%);fill-opacity:1;" d="M 159.289062 122.445312 L 0 122.445312 L 0 92.195312 L 159.289062 92.195312 Z M 159.289062 122.445312 "/>
<path style=" stroke:none;fill-rule:nonzero;fill:rgb(90.196078%,90.196078%,90.196078%);fill-opacity:1;" d="M 22.988281 102.195312 C 22.132812 102.199219 21.441406 102.769531 21.441406 103.476562 C 21.441406 104.183594 22.132812 104.757812 22.988281 104.757812 L 136.308594 104.757812 C 137.164062 104.757812 137.855469 104.183594 137.855469 103.476562 C 137.855469 102.769531 137.164062 102.199219 136.308594 102.195312 Z M 22.988281 102.195312 "/>
<path style=" stroke:none;fill-rule:nonzero;fill:rgb(90.196078%,90.196078%,90.196078%);fill-opacity:1;" d="M 22.988281 109.882812 C 22.132812 109.878906 21.4375 110.453125 21.433594 111.160156 C 21.433594 111.867188 22.125 112.441406 22.984375 112.441406 L 94.625 112.441406 C 95.179688 112.445312 95.691406 112.199219 95.96875 111.804688 C 96.246094 111.40625 96.246094 110.917969 95.96875 110.519531 C 95.691406 110.125 95.179688 109.878906 94.625 109.882812 Z M 22.988281 109.882812 "/>
<path style=" stroke:none;fill-rule:nonzero;fill:rgb(89.803922%,89.803922%,89.803922%);fill-opacity:1;" d="M 159.289062 122.445312 L 0 122.445312 L 0 92.195312 L 159.289062 92.195312 Z M 2.617188 120.285156 L 156.671875 120.285156 L 156.671875 94.355469 L 2.617188 94.355469 Z M 2.617188 120.285156 "/>
<path style=" stroke:none;fill-rule:nonzero;fill:rgb(100%,100%,100%);fill-opacity:1;" d="M 160.597656 30.25 L 1.308594 30.25 L 1.308594 0 L 160.597656 0 Z M 160.597656 30.25 "/>
<path style=" stroke:none;fill-rule:nonzero;fill:rgb(97.254902%,69.019608%,4.705882%);fill-opacity:1;" d="M 24.296875 10.003906 C 23.441406 10.003906 22.75 10.578125 22.75 11.285156 C 22.75 11.988281 23.441406 12.5625 24.296875 12.5625 L 137.617188 12.5625 C 138.472656 12.5625 139.164062 11.988281 139.164062 11.285156 C 139.164062 10.578125 138.472656 10.003906 137.617188 10.003906 Z M 24.296875 10.003906 "/>
<path style=" stroke:none;fill-rule:nonzero;fill:rgb(97.254902%,69.019608%,4.705882%);fill-opacity:1;" d="M 24.296875 17.6875 C 23.441406 17.6875 22.746094 18.257812 22.742188 18.964844 C 22.742188 19.671875 23.433594 20.246094 24.292969 20.25 L 95.933594 20.25 C 96.488281 20.25 97 20.003906 97.277344 19.609375 C 97.554688 19.210938 97.554688 18.722656 97.277344 18.328125 C 97 17.929688 96.488281 17.6875 95.933594 17.6875 Z M 24.296875 17.6875 "/>
<path style=" stroke:none;fill-rule:nonzero;fill:rgb(89.803922%,89.803922%,89.803922%);fill-opacity:1;" d="M 160.597656 30.25 L 1.308594 30.25 L 1.308594 0 L 160.597656 0 Z M 3.925781 28.089844 L 157.980469 28.089844 L 157.980469 2.160156 L 3.925781 2.160156 Z M 3.925781 28.089844 "/>
<path style=" stroke:none;fill-rule:nonzero;fill:rgb(94.509804%,94.509804%,94.509804%);fill-opacity:1;" d="M 322.613281 215.164062 L 322.613281 189.113281 C 322.613281 189.113281 334.917969 207.582031 322.613281 215.164062 Z M 322.613281 215.164062 "/>
<path style=" stroke:none;fill-rule:nonzero;fill:rgb(94.509804%,94.509804%,94.509804%);fill-opacity:1;" d="M 323.375 215.160156 L 300.117188 197.542969 C 300.117188 197.542969 324.925781 202.554688 323.375 215.160156 Z M 323.375 215.160156 "/>
<path style=" stroke:none;fill-rule:nonzero;fill:rgb(97.254902%,69.019608%,4.705882%);fill-opacity:1;" d="M 219.621094 125.269531 C 219.621094 129.035156 215.921875 132.089844 211.359375 132.089844 C 206.796875 132.089844 203.097656 129.035156 203.097656 125.269531 C 203.097656 121.503906 206.796875 118.453125 211.359375 118.453125 C 215.921875 118.453125 219.621094 121.503906 219.621094 125.269531 Z M 219.621094 125.269531 "/>
<path style=" stroke:none;fill-rule:nonzero;fill:rgb(100%,100%,100%);fill-opacity:1;" d="M 210.539062 127.871094 C 210.355469 127.871094 210.171875 127.824219 210.023438 127.730469 L 210.015625 127.726562 L 208.074219 126.5 C 207.695312 126.261719 207.621094 125.8125 207.914062 125.5 C 208.203125 125.1875 208.746094 125.128906 209.125 125.367188 L 210.382812 126.164062 L 213.355469 122.964844 C 213.644531 122.652344 214.183594 122.59375 214.5625 122.832031 L 214.542969 122.855469 L 214.5625 122.832031 C 214.941406 123.074219 215.011719 123.519531 214.722656 123.832031 L 211.226562 127.59375 C 211.0625 127.769531 210.808594 127.871094 210.539062 127.871094 Z M 210.539062 127.871094 "/>
</g>
</svg>
