<?xml version="1.0" encoding="UTF-8"?>
<svg xmlns="http://www.w3.org/2000/svg" xmlns:xlink="http://www.w3.org/1999/xlink" width="350px" height="254px" viewBox="0 0 349 254" version="1.1">
<defs>
<filter id="alpha" filterUnits="objectBoundingBox" x="0%" y="0%" width="100%" height="100%">
  <feColorMatrix type="matrix" in="SourceGraphic" values="0 0 0 0 1 0 0 0 0 1 0 0 0 0 1 0 0 0 1 0"/>
</filter>
<mask id="mask0">
  <g filter="url(#alpha)">
<rect x="0" y="0" width="349" height="254" style="fill:rgb(0%,0%,0%);fill-opacity:0.2;stroke:none;"/>
  </g>
</mask>
<clipPath id="clip1">
  <rect x="0" y="0" width="349" height="254"/>
</clipPath>
<g id="surface5" clip-path="url(#clip1)">
<path style=" stroke:none;fill-rule:nonzero;fill:rgb(0%,0%,0%);fill-opacity:1;" d="M 241.238281 204.902344 C 241.230469 205.679688 241.222656 206.769531 241.1875 208.113281 C 241.183594 208.300781 241.175781 208.492188 241.171875 208.6875 C 241.125 210.574219 241.058594 212.90625 240.964844 215.539062 C 240.960938 215.699219 240.957031 215.855469 240.949219 216.015625 C 240.824219 219.230469 240.628906 222.972656 240.292969 228.902344 C 239.667969 239.851562 238.574219 230.40625 237.480469 234.246094 C 234.4375 232.371094 231.105469 230.410156 227.539062 228.394531 C 226.894531 228.03125 226.246094 227.664062 225.589844 227.296875 C 218.460938 223.3125 210.496094 219.140625 202.179688 215.007812 C 201.851562 214.839844 201.519531 214.675781 201.191406 214.515625 C 182.144531 205.089844 161.355469 195.921875 144.515625 189.800781 C 141.265625 188.621094 138.160156 187.554688 135.242188 186.617188 C 129.09375 184.648438 123.78125 183.273438 119.695312 182.679688 C 115.4375 182.058594 112.496094 182.277344 111.308594 183.5625 C 111.265625 182.65625 111.21875 181.789062 111.171875 180.960938 C 111.152344 180.683594 111.136719 180.414062 111.117188 180.148438 C 111.144531 180.074219 111.179688 180.003906 111.214844 179.933594 C 111.21875 179.925781 111.222656 179.914062 111.230469 179.902344 C 111.238281 179.878906 111.246094 179.859375 111.257812 179.835938 C 111.273438 179.808594 111.289062 179.78125 111.304688 179.757812 C 111.320312 179.726562 111.335938 179.695312 111.355469 179.667969 C 111.398438 179.605469 111.441406 179.539062 111.492188 179.476562 C 111.527344 179.429688 111.566406 179.386719 111.605469 179.34375 C 111.621094 179.324219 111.636719 179.304688 111.65625 179.285156 C 111.671875 179.269531 111.691406 179.246094 111.710938 179.222656 C 111.722656 179.210938 111.734375 179.199219 111.746094 179.1875 C 111.78125 179.148438 111.820312 179.109375 111.863281 179.078125 C 112.019531 178.933594 112.191406 178.796875 112.367188 178.679688 C 112.429688 178.636719 112.496094 178.597656 112.558594 178.554688 C 113.007812 178.285156 113.476562 178.058594 113.964844 177.878906 C 114.132812 177.816406 114.300781 177.757812 114.484375 177.695312 C 114.550781 177.679688 114.613281 177.65625 114.679688 177.632812 C 114.777344 177.601562 114.875 177.570312 114.976562 177.550781 C 115.480469 177.398438 116.027344 177.269531 116.617188 177.148438 C 116.792969 177.113281 116.980469 177.078125 117.167969 177.046875 C 117.316406 177.019531 117.472656 176.996094 117.628906 176.96875 C 118.945312 176.757812 120.4375 176.605469 122.089844 176.5 C 122.242188 176.492188 122.398438 176.484375 122.554688 176.476562 C 122.738281 176.464844 122.917969 176.457031 123.105469 176.449219 C 123.257812 176.441406 123.417969 176.433594 123.578125 176.429688 C 123.734375 176.421875 123.894531 176.417969 124.058594 176.414062 C 124.503906 176.398438 124.96875 176.386719 125.4375 176.378906 C 126.777344 176.355469 128.1875 176.363281 129.667969 176.394531 C 130.355469 176.410156 131.054688 176.429688 131.773438 176.460938 C 131.816406 176.460938 131.867188 176.464844 131.910156 176.464844 C 132.535156 176.484375 133.171875 176.515625 133.8125 176.546875 C 134.265625 176.570312 134.722656 176.589844 135.179688 176.617188 C 135.609375 176.644531 136.042969 176.671875 136.484375 176.703125 C 136.824219 176.71875 137.167969 176.746094 137.511719 176.769531 C 137.804688 176.789062 138.097656 176.8125 138.390625 176.832031 C 138.742188 176.855469 139.089844 176.882812 139.445312 176.910156 C 139.933594 176.949219 140.421875 176.992188 140.917969 177.03125 C 141.410156 177.074219 141.910156 177.121094 142.414062 177.164062 C 142.914062 177.207031 143.417969 177.257812 143.925781 177.304688 C 143.976562 177.308594 144.027344 177.316406 144.074219 177.320312 C 144.535156 177.367188 144.996094 177.414062 145.464844 177.460938 C 148.042969 177.722656 150.699219 178.03125 153.433594 178.378906 C 155.0625 178.589844 156.71875 178.8125 158.390625 179.050781 C 160.929688 179.410156 163.511719 179.800781 166.109375 180.21875 C 168.714844 180.640625 171.332031 181.085938 173.964844 181.554688 C 174.628906 181.675781 175.292969 181.796875 175.964844 181.917969 C 176.78125 182.070312 177.597656 182.222656 178.414062 182.382812 C 178.925781 182.480469 179.441406 182.578125 179.957031 182.679688 C 180.566406 182.796875 181.183594 182.917969 181.796875 183.039062 C 185.828125 183.835938 189.835938 184.691406 193.746094 185.582031 C 194.390625 185.730469 195.03125 185.878906 195.671875 186.027344 C 196.949219 186.324219 198.214844 186.625 199.46875 186.933594 C 199.8125 187.015625 200.15625 187.101562 200.496094 187.1875 C 201.351562 187.398438 202.199219 187.613281 203.039062 187.824219 L 203.039062 187.828125 C 203.085938 187.839844 203.136719 187.851562 203.183594 187.867188 C 203.796875 188.019531 204.402344 188.175781 205.007812 188.335938 C 206.429688 188.710938 207.828125 189.085938 209.207031 189.464844 C 210.121094 189.722656 211.023438 189.972656 211.914062 190.230469 C 213.25 190.621094 214.558594 191.011719 215.832031 191.40625 C 216.144531 191.503906 216.460938 191.601562 216.769531 191.691406 C 217.703125 191.984375 218.617188 192.277344 219.511719 192.566406 C 220.222656 192.796875 220.914062 193.035156 221.597656 193.269531 C 222.277344 193.503906 222.949219 193.738281 223.605469 193.976562 C 224.03125 194.125 224.449219 194.28125 224.859375 194.433594 C 225.464844 194.65625 226.046875 194.875 226.625 195.101562 C 226.800781 195.171875 226.976562 195.242188 227.148438 195.308594 C 227.472656 195.433594 227.785156 195.5625 228.097656 195.691406 C 228.304688 195.769531 228.507812 195.855469 228.714844 195.941406 C 228.914062 196.023438 229.117188 196.105469 229.3125 196.191406 C 229.511719 196.269531 229.707031 196.355469 229.902344 196.445312 C 230.066406 196.511719 230.226562 196.582031 230.382812 196.652344 C 230.695312 196.789062 231.011719 196.929688 231.316406 197.070312 C 231.46875 197.140625 231.617188 197.207031 231.769531 197.277344 L 232.113281 197.4375 C 232.164062 197.464844 232.210938 197.488281 232.261719 197.511719 C 232.636719 197.6875 233 197.867188 233.355469 198.042969 C 233.6875 198.210938 234.011719 198.378906 234.324219 198.542969 C 234.691406 198.738281 235.042969 198.929688 235.378906 199.125 C 235.445312 199.160156 235.511719 199.203125 235.578125 199.238281 C 235.804688 199.367188 236.023438 199.5 236.238281 199.628906 C 236.664062 199.890625 237.066406 200.148438 237.445312 200.40625 C 237.816406 200.664062 238.164062 200.917969 238.488281 201.167969 C 238.488281 201.171875 238.488281 201.171875 238.492188 201.171875 C 238.648438 201.296875 238.796875 201.421875 238.941406 201.542969 C 239.171875 201.742188 239.382812 201.933594 239.578125 202.128906 C 239.644531 202.1875 239.707031 202.253906 239.765625 202.320312 C 239.789062 202.339844 239.8125 202.363281 239.835938 202.390625 C 239.929688 202.492188 240.023438 202.59375 240.109375 202.695312 C 240.214844 202.820312 240.3125 202.945312 240.40625 203.070312 C 240.453125 203.132812 240.5 203.195312 240.539062 203.257812 C 240.59375 203.332031 240.648438 203.410156 240.691406 203.488281 C 240.730469 203.550781 240.765625 203.617188 240.800781 203.679688 C 240.894531 203.839844 240.976562 204.007812 241.042969 204.179688 C 241.089844 204.296875 241.128906 204.421875 241.160156 204.542969 C 241.195312 204.660156 241.21875 204.78125 241.238281 204.902344 Z M 241.238281 204.902344 "/>
</g>
</defs>
<g id="surface1">
<path style=" stroke:none;fill-rule:nonzero;fill:rgb(94.901961%,94.901961%,94.901961%);fill-opacity:1;" d="M 215.085938 32.941406 C 215.085938 39.488281 209.785156 44.796875 203.246094 44.796875 C 196.707031 44.796875 191.40625 39.488281 191.40625 32.941406 C 191.40625 26.390625 196.707031 21.085938 203.246094 21.085938 C 209.785156 21.085938 215.085938 26.390625 215.085938 32.941406 Z M 215.085938 32.941406 "/>
<path style=" stroke:none;fill-rule:nonzero;fill:rgb(94.901961%,94.901961%,94.901961%);fill-opacity:1;" d="M 295.097656 220.761719 C 312.695312 207.339844 321.101562 184.785156 315.839844 163.265625 C 315.710938 162.730469 315.570312 162.199219 315.425781 161.664062 C 311.9375 148.894531 303.304688 136.753906 290.726562 132.671875 C 280.164062 129.246094 268.632812 131.882812 257.613281 130.519531 C 235.980469 127.84375 219.210938 110.316406 207.410156 91.964844 C 195.609375 73.613281 186.539062 53.074219 170.859375 37.914062 C 145.011719 12.925781 102.847656 7.542969 70.804688 23.808594 C 38.757812 40.078125 18.34375 76.164062 19.214844 112.128906 C 20.085938 148.097656 41.40625 182.484375 72.375 200.726562 C 83.75 207.429688 96.90625 212.175781 110 210.515625 C 121.359375 209.074219 131.683594 202.960938 142.992188 201.148438 C 160.769531 198.292969 178.4375 206.34375 193.8125 215.722656 C 209.191406 225.101562 224.042969 236.21875 241.519531 240.566406 C 258.484375 244.789062 279.507812 232.652344 295.097656 220.761719 Z M 295.097656 220.761719 "/>
<path style=" stroke:none;fill-rule:nonzero;fill:rgb(24.705882%,23.921569%,33.72549%);fill-opacity:1;" d="M 269.808594 24.566406 C 269.425781 24.308594 269.035156 24.0625 268.648438 23.816406 C 257.496094 16.671875 245.542969 10.871094 233.035156 6.527344 L 230.132812 46.589844 L 211.75 46.589844 L 211.75 0.679688 C 210.589844 0.441406 209.425781 0.214844 208.257812 0 L 208.257812 46.589844 L 186.410156 46.589844 C 161.363281 46.589844 141.058594 26.257812 141.058594 1.175781 C 139.886719 1.429688 138.722656 1.699219 137.5625 1.988281 L 137.5625 46.589844 L 119.765625 46.589844 L 117.003906 8.386719 C 104.148438 13.324219 91.949219 19.816406 80.667969 27.71875 C 80.472656 27.851562 80.277344 27.988281 80.085938 28.121094 C 79.105469 28.808594 78.140625 29.511719 77.175781 30.222656 L 77.175781 183.0625 L 129.625 183.0625 L 128.699219 170.207031 L 123.597656 99.625 L 226.296875 99.625 L 221.199219 170.207031 L 220.273438 183.0625 L 272.136719 183.0625 L 272.136719 26.109375 C 271.367188 25.585938 270.589844 25.070312 269.808594 24.566406 Z M 137.5625 87.96875 L 122.753906 87.96875 L 120.019531 50.089844 L 137.5625 50.089844 Z M 208.257812 87.96875 L 183.390625 87.96875 L 183.390625 87.21875 C 183.390625 86.488281 183.101562 85.789062 182.585938 85.273438 C 182.070312 84.761719 181.371094 84.472656 180.644531 84.472656 L 169.832031 84.472656 C 168.320312 84.472656 167.09375 85.699219 167.09375 87.21875 L 167.09375 87.96875 L 141.058594 87.96875 L 141.058594 50.089844 L 208.257812 50.089844 Z M 211.75 87.96875 L 211.75 50.089844 L 229.882812 50.089844 L 227.144531 87.96875 Z M 211.75 87.96875 "/>
<path style=" stroke:none;fill-rule:nonzero;fill:rgb(24.705882%,23.921569%,33.72549%);fill-opacity:1;" d="M 0 192.847656 C 3.851562 197.421875 8.019531 201.714844 12.46875 205.703125 L 336.449219 206.148438 C 340.902344 202.160156 345.066406 197.863281 348.921875 193.292969 Z M 0 192.847656 "/>
<path style=" stroke:none;fill-rule:nonzero;fill:rgb(24.705882%,23.921569%,33.72549%);fill-opacity:1;" d="M 219.703125 151.6875 L 219.703125 189.742188 C 219.703125 190.753906 220.519531 191.570312 221.527344 191.570312 L 277.847656 191.570312 C 278.859375 191.570312 279.675781 190.753906 279.675781 189.742188 L 279.675781 151.6875 C 279.671875 150.675781 278.855469 149.859375 277.847656 149.859375 L 221.527344 149.859375 C 220.519531 149.859375 219.703125 150.675781 219.703125 151.6875 Z M 219.703125 151.6875 "/>
<path style=" stroke:none;fill-rule:nonzero;fill:rgb(97.254902%,69.019608%,4.705882%);fill-opacity:1;" d="M 221.023438 152.160156 L 221.023438 189.273438 C 221.023438 189.8125 221.460938 190.25 222 190.25 L 277.378906 190.25 C 277.917969 190.25 278.355469 189.8125 278.355469 189.273438 L 278.355469 152.160156 C 278.355469 151.617188 277.917969 151.179688 277.378906 151.179688 L 222 151.179688 C 221.460938 151.179688 221.023438 151.617188 221.023438 152.160156 Z M 221.023438 152.160156 "/>
<path style=" stroke:none;fill-rule:nonzero;fill:rgb(18.431373%,18.039216%,25.490196%);fill-opacity:1;" d="M 218.523438 197.164062 C 218.734375 197.425781 219.050781 197.578125 219.386719 197.578125 L 279.691406 197.578125 C 280.027344 197.578125 280.34375 197.425781 280.550781 197.167969 C 280.761719 196.90625 280.84375 196.566406 280.777344 196.238281 L 279.839844 191.785156 C 279.761719 191.417969 279.5 191.113281 279.148438 190.980469 C 279.023438 190.929688 278.890625 190.90625 278.753906 190.90625 L 220.316406 190.90625 C 220.183594 190.90625 220.050781 190.929688 219.925781 190.980469 C 219.570312 191.113281 219.3125 191.417969 219.234375 191.785156 L 218.296875 196.238281 C 218.230469 196.566406 218.3125 196.90625 218.523438 197.164062 Z M 218.523438 197.164062 "/>
<path style=" stroke:none;fill-rule:nonzero;fill:rgb(24.705882%,23.921569%,33.72549%);fill-opacity:1;" d="M 278.109375 192.824219 L 276.6875 192.824219 C 276.566406 192.824219 276.46875 192.726562 276.46875 192.605469 L 276.46875 191.921875 C 276.46875 191.804688 276.566406 191.707031 276.6875 191.707031 L 278.109375 191.707031 C 278.230469 191.707031 278.328125 191.804688 278.328125 191.921875 L 278.328125 192.605469 C 278.328125 192.726562 278.230469 192.824219 278.109375 192.824219 Z M 278.109375 192.824219 "/>
<path style=" stroke:none;fill-rule:nonzero;fill:rgb(24.705882%,23.921569%,33.72549%);fill-opacity:1;" d="M 274.394531 192.824219 L 272.972656 192.824219 C 272.851562 192.824219 272.753906 192.726562 272.753906 192.605469 L 272.753906 191.921875 C 272.753906 191.804688 272.851562 191.707031 272.972656 191.707031 L 274.394531 191.707031 C 274.515625 191.707031 274.613281 191.804688 274.613281 191.921875 L 274.613281 192.605469 C 274.613281 192.726562 274.515625 192.824219 274.394531 192.824219 Z M 274.394531 192.824219 "/>
<path style=" stroke:none;fill-rule:nonzero;fill:rgb(24.705882%,23.921569%,33.72549%);fill-opacity:1;" d="M 270.679688 192.824219 L 269.257812 192.824219 C 269.136719 192.824219 269.039062 192.726562 269.039062 192.605469 L 269.039062 191.921875 C 269.039062 191.804688 269.136719 191.707031 269.257812 191.707031 L 270.679688 191.707031 C 270.800781 191.707031 270.898438 191.804688 270.898438 191.921875 L 270.898438 192.605469 C 270.898438 192.726562 270.800781 192.824219 270.679688 192.824219 Z M 270.679688 192.824219 "/>
<path style=" stroke:none;fill-rule:nonzero;fill:rgb(24.705882%,23.921569%,33.72549%);fill-opacity:1;" d="M 266.964844 192.824219 L 265.542969 192.824219 C 265.421875 192.824219 265.324219 192.726562 265.324219 192.605469 L 265.324219 191.921875 C 265.324219 191.804688 265.421875 191.707031 265.542969 191.707031 L 266.964844 191.707031 C 267.085938 191.707031 267.183594 191.804688 267.183594 191.921875 L 267.183594 192.605469 C 267.183594 192.726562 267.085938 192.824219 266.964844 192.824219 Z M 266.964844 192.824219 "/>
<path style=" stroke:none;fill-rule:nonzero;fill:rgb(24.705882%,23.921569%,33.72549%);fill-opacity:1;" d="M 263.25 192.824219 L 261.828125 192.824219 C 261.707031 192.824219 261.609375 192.726562 261.609375 192.605469 L 261.609375 191.921875 C 261.609375 191.804688 261.707031 191.707031 261.828125 191.707031 L 263.25 191.707031 C 263.371094 191.707031 263.46875 191.804688 263.46875 191.921875 L 263.46875 192.605469 C 263.46875 192.726562 263.371094 192.824219 263.25 192.824219 Z M 263.25 192.824219 "/>
<path style=" stroke:none;fill-rule:nonzero;fill:rgb(24.705882%,23.921569%,33.72549%);fill-opacity:1;" d="M 259.535156 192.824219 L 258.113281 192.824219 C 257.992188 192.824219 257.894531 192.726562 257.894531 192.605469 L 257.894531 191.921875 C 257.894531 191.804688 257.992188 191.707031 258.113281 191.707031 L 259.535156 191.707031 C 259.65625 191.707031 259.753906 191.804688 259.753906 191.921875 L 259.753906 192.605469 C 259.753906 192.726562 259.65625 192.824219 259.535156 192.824219 Z M 259.535156 192.824219 "/>
<path style=" stroke:none;fill-rule:nonzero;fill:rgb(24.705882%,23.921569%,33.72549%);fill-opacity:1;" d="M 255.820312 192.824219 L 254.398438 192.824219 C 254.277344 192.824219 254.179688 192.726562 254.179688 192.605469 L 254.179688 191.921875 C 254.179688 191.804688 254.277344 191.707031 254.398438 191.707031 L 255.820312 191.707031 C 255.941406 191.707031 256.039062 191.804688 256.039062 191.921875 L 256.039062 192.605469 C 256.039062 192.726562 255.941406 192.824219 255.820312 192.824219 Z M 255.820312 192.824219 "/>
<path style=" stroke:none;fill-rule:nonzero;fill:rgb(24.705882%,23.921569%,33.72549%);fill-opacity:1;" d="M 252.105469 192.824219 L 250.683594 192.824219 C 250.5625 192.824219 250.464844 192.726562 250.464844 192.605469 L 250.464844 191.921875 C 250.464844 191.804688 250.5625 191.707031 250.683594 191.707031 L 252.105469 191.707031 C 252.226562 191.707031 252.324219 191.804688 252.324219 191.921875 L 252.324219 192.605469 C 252.324219 192.726562 252.226562 192.824219 252.105469 192.824219 Z M 252.105469 192.824219 "/>
<path style=" stroke:none;fill-rule:nonzero;fill:rgb(24.705882%,23.921569%,33.72549%);fill-opacity:1;" d="M 248.390625 192.824219 L 246.96875 192.824219 C 246.847656 192.824219 246.75 192.726562 246.75 192.605469 L 246.75 191.921875 C 246.75 191.804688 246.847656 191.707031 246.96875 191.707031 L 248.390625 191.707031 C 248.511719 191.707031 248.609375 191.804688 248.609375 191.921875 L 248.609375 192.605469 C 248.609375 192.726562 248.511719 192.824219 248.390625 192.824219 Z M 248.390625 192.824219 "/>
<path style=" stroke:none;fill-rule:nonzero;fill:rgb(24.705882%,23.921569%,33.72549%);fill-opacity:1;" d="M 244.675781 192.824219 L 243.253906 192.824219 C 243.132812 192.824219 243.035156 192.726562 243.035156 192.605469 L 243.035156 191.921875 C 243.035156 191.804688 243.132812 191.707031 243.253906 191.707031 L 244.675781 191.707031 C 244.796875 191.707031 244.894531 191.804688 244.894531 191.921875 L 244.894531 192.605469 C 244.894531 192.726562 244.796875 192.824219 244.675781 192.824219 Z M 244.675781 192.824219 "/>
<path style=" stroke:none;fill-rule:nonzero;fill:rgb(24.705882%,23.921569%,33.72549%);fill-opacity:1;" d="M 240.960938 192.824219 L 239.539062 192.824219 C 239.417969 192.824219 239.320312 192.726562 239.320312 192.605469 L 239.320312 191.921875 C 239.320312 191.804688 239.417969 191.707031 239.539062 191.707031 L 240.960938 191.707031 C 241.082031 191.707031 241.179688 191.804688 241.179688 191.921875 L 241.179688 192.605469 C 241.179688 192.726562 241.082031 192.824219 240.960938 192.824219 Z M 240.960938 192.824219 "/>
<path style=" stroke:none;fill-rule:nonzero;fill:rgb(24.705882%,23.921569%,33.72549%);fill-opacity:1;" d="M 237.246094 192.824219 L 235.824219 192.824219 C 235.703125 192.824219 235.605469 192.726562 235.605469 192.605469 L 235.605469 191.921875 C 235.605469 191.804688 235.703125 191.707031 235.824219 191.707031 L 237.246094 191.707031 C 237.367188 191.707031 237.464844 191.804688 237.464844 191.921875 L 237.464844 192.605469 C 237.464844 192.726562 237.367188 192.824219 237.246094 192.824219 Z M 237.246094 192.824219 "/>
<path style=" stroke:none;fill-rule:nonzero;fill:rgb(24.705882%,23.921569%,33.72549%);fill-opacity:1;" d="M 233.53125 192.824219 L 232.109375 192.824219 C 231.988281 192.824219 231.890625 192.726562 231.890625 192.605469 L 231.890625 191.921875 C 231.890625 191.804688 231.988281 191.707031 232.109375 191.707031 L 233.53125 191.707031 C 233.652344 191.707031 233.75 191.804688 233.75 191.921875 L 233.75 192.605469 C 233.75 192.726562 233.652344 192.824219 233.53125 192.824219 Z M 233.53125 192.824219 "/>
<path style=" stroke:none;fill-rule:nonzero;fill:rgb(24.705882%,23.921569%,33.72549%);fill-opacity:1;" d="M 229.816406 192.824219 L 228.394531 192.824219 C 228.273438 192.824219 228.175781 192.726562 228.175781 192.605469 L 228.175781 191.921875 C 228.175781 191.804688 228.273438 191.707031 228.394531 191.707031 L 229.816406 191.707031 C 229.9375 191.707031 230.035156 191.804688 230.035156 191.921875 L 230.035156 192.605469 C 230.035156 192.726562 229.9375 192.824219 229.816406 192.824219 Z M 229.816406 192.824219 "/>
<path style=" stroke:none;fill-rule:nonzero;fill:rgb(24.705882%,23.921569%,33.72549%);fill-opacity:1;" d="M 226.101562 192.824219 L 224.679688 192.824219 C 224.558594 192.824219 224.460938 192.726562 224.460938 192.605469 L 224.460938 191.921875 C 224.460938 191.804688 224.558594 191.707031 224.679688 191.707031 L 226.101562 191.707031 C 226.222656 191.707031 226.320312 191.804688 226.320312 191.921875 L 226.320312 192.605469 C 226.320312 192.726562 226.222656 192.824219 226.101562 192.824219 Z M 226.101562 192.824219 "/>
<path style=" stroke:none;fill-rule:nonzero;fill:rgb(24.705882%,23.921569%,33.72549%);fill-opacity:1;" d="M 222.386719 192.824219 L 220.964844 192.824219 C 220.84375 192.824219 220.746094 192.726562 220.746094 192.605469 L 220.746094 191.921875 C 220.746094 191.804688 220.84375 191.707031 220.964844 191.707031 L 222.386719 191.707031 C 222.507812 191.707031 222.605469 191.804688 222.605469 191.921875 L 222.605469 192.605469 C 222.605469 192.726562 222.507812 192.824219 222.386719 192.824219 Z M 222.386719 192.824219 "/>
<path style=" stroke:none;fill-rule:nonzero;fill:rgb(24.705882%,23.921569%,33.72549%);fill-opacity:1;" d="M 278.15625 194.683594 L 276.730469 194.683594 C 276.609375 194.683594 276.515625 194.585938 276.515625 194.464844 L 276.515625 193.785156 C 276.515625 193.664062 276.609375 193.566406 276.730469 193.566406 L 278.15625 193.566406 C 278.273438 193.566406 278.371094 193.664062 278.371094 193.785156 L 278.371094 194.464844 C 278.371094 194.585938 278.273438 194.683594 278.15625 194.683594 Z M 278.15625 194.683594 "/>
<path style=" stroke:none;fill-rule:nonzero;fill:rgb(24.705882%,23.921569%,33.72549%);fill-opacity:1;" d="M 274.441406 194.683594 L 273.015625 194.683594 C 272.894531 194.683594 272.800781 194.585938 272.800781 194.464844 L 272.800781 193.785156 C 272.800781 193.664062 272.894531 193.566406 273.015625 193.566406 L 274.441406 193.566406 C 274.558594 193.566406 274.65625 193.664062 274.65625 193.785156 L 274.65625 194.464844 C 274.65625 194.585938 274.558594 194.683594 274.441406 194.683594 Z M 274.441406 194.683594 "/>
<path style=" stroke:none;fill-rule:nonzero;fill:rgb(24.705882%,23.921569%,33.72549%);fill-opacity:1;" d="M 270.726562 194.683594 L 269.300781 194.683594 C 269.179688 194.683594 269.085938 194.585938 269.085938 194.464844 L 269.085938 193.785156 C 269.085938 193.664062 269.179688 193.566406 269.300781 193.566406 L 270.726562 193.566406 C 270.84375 193.566406 270.941406 193.664062 270.941406 193.785156 L 270.941406 194.464844 C 270.941406 194.585938 270.84375 194.683594 270.726562 194.683594 Z M 270.726562 194.683594 "/>
<path style=" stroke:none;fill-rule:nonzero;fill:rgb(24.705882%,23.921569%,33.72549%);fill-opacity:1;" d="M 267.011719 194.683594 L 265.585938 194.683594 C 265.464844 194.683594 265.371094 194.585938 265.371094 194.464844 L 265.371094 193.785156 C 265.371094 193.664062 265.464844 193.566406 265.585938 193.566406 L 267.011719 193.566406 C 267.128906 193.566406 267.226562 193.664062 267.226562 193.785156 L 267.226562 194.464844 C 267.226562 194.585938 267.128906 194.683594 267.011719 194.683594 Z M 267.011719 194.683594 "/>
<path style=" stroke:none;fill-rule:nonzero;fill:rgb(24.705882%,23.921569%,33.72549%);fill-opacity:1;" d="M 263.296875 194.683594 L 261.871094 194.683594 C 261.75 194.683594 261.65625 194.585938 261.65625 194.464844 L 261.65625 193.785156 C 261.65625 193.664062 261.75 193.566406 261.871094 193.566406 L 263.296875 193.566406 C 263.414062 193.566406 263.511719 193.664062 263.511719 193.785156 L 263.511719 194.464844 C 263.511719 194.585938 263.414062 194.683594 263.296875 194.683594 Z M 263.296875 194.683594 "/>
<path style=" stroke:none;fill-rule:nonzero;fill:rgb(24.705882%,23.921569%,33.72549%);fill-opacity:1;" d="M 259.582031 194.683594 L 258.15625 194.683594 C 258.035156 194.683594 257.941406 194.585938 257.941406 194.464844 L 257.941406 193.785156 C 257.941406 193.664062 258.035156 193.566406 258.15625 193.566406 L 259.582031 193.566406 C 259.699219 193.566406 259.796875 193.664062 259.796875 193.785156 L 259.796875 194.464844 C 259.796875 194.585938 259.699219 194.683594 259.582031 194.683594 Z M 259.582031 194.683594 "/>
<path style=" stroke:none;fill-rule:nonzero;fill:rgb(24.705882%,23.921569%,33.72549%);fill-opacity:1;" d="M 255.867188 194.683594 L 254.441406 194.683594 C 254.320312 194.683594 254.226562 194.585938 254.226562 194.464844 L 254.226562 193.785156 C 254.226562 193.664062 254.320312 193.566406 254.441406 193.566406 L 255.867188 193.566406 C 255.984375 193.566406 256.082031 193.664062 256.082031 193.785156 L 256.082031 194.464844 C 256.082031 194.585938 255.984375 194.683594 255.867188 194.683594 Z M 255.867188 194.683594 "/>
<path style=" stroke:none;fill-rule:nonzero;fill:rgb(24.705882%,23.921569%,33.72549%);fill-opacity:1;" d="M 252.152344 194.683594 L 250.726562 194.683594 C 250.605469 194.683594 250.511719 194.585938 250.511719 194.464844 L 250.511719 193.785156 C 250.511719 193.664062 250.605469 193.566406 250.726562 193.566406 L 252.152344 193.566406 C 252.269531 193.566406 252.367188 193.664062 252.367188 193.785156 L 252.367188 194.464844 C 252.367188 194.585938 252.269531 194.683594 252.152344 194.683594 Z M 252.152344 194.683594 "/>
<path style=" stroke:none;fill-rule:nonzero;fill:rgb(24.705882%,23.921569%,33.72549%);fill-opacity:1;" d="M 248.4375 194.683594 L 247.011719 194.683594 C 246.890625 194.683594 246.796875 194.585938 246.796875 194.464844 L 246.796875 193.785156 C 246.796875 193.664062 246.890625 193.566406 247.011719 193.566406 L 248.4375 193.566406 C 248.554688 193.566406 248.652344 193.664062 248.652344 193.785156 L 248.652344 194.464844 C 248.652344 194.585938 248.554688 194.683594 248.4375 194.683594 Z M 248.4375 194.683594 "/>
<path style=" stroke:none;fill-rule:nonzero;fill:rgb(24.705882%,23.921569%,33.72549%);fill-opacity:1;" d="M 244.722656 194.683594 L 243.296875 194.683594 C 243.175781 194.683594 243.082031 194.585938 243.082031 194.464844 L 243.082031 193.785156 C 243.082031 193.664062 243.175781 193.566406 243.296875 193.566406 L 244.722656 193.566406 C 244.839844 193.566406 244.9375 193.664062 244.9375 193.785156 L 244.9375 194.464844 C 244.9375 194.585938 244.839844 194.683594 244.722656 194.683594 Z M 244.722656 194.683594 "/>
<path style=" stroke:none;fill-rule:nonzero;fill:rgb(24.705882%,23.921569%,33.72549%);fill-opacity:1;" d="M 241.007812 194.683594 L 239.582031 194.683594 C 239.460938 194.683594 239.367188 194.585938 239.367188 194.464844 L 239.367188 193.785156 C 239.367188 193.664062 239.460938 193.566406 239.582031 193.566406 L 241.007812 193.566406 C 241.125 193.566406 241.222656 193.664062 241.222656 193.785156 L 241.222656 194.464844 C 241.222656 194.585938 241.125 194.683594 241.007812 194.683594 Z M 241.007812 194.683594 "/>
<path style=" stroke:none;fill-rule:nonzero;fill:rgb(24.705882%,23.921569%,33.72549%);fill-opacity:1;" d="M 237.292969 194.683594 L 235.867188 194.683594 C 235.746094 194.683594 235.652344 194.585938 235.652344 194.464844 L 235.652344 193.785156 C 235.652344 193.664062 235.746094 193.566406 235.867188 193.566406 L 237.292969 193.566406 C 237.410156 193.566406 237.507812 193.664062 237.507812 193.785156 L 237.507812 194.464844 C 237.507812 194.585938 237.410156 194.683594 237.292969 194.683594 Z M 237.292969 194.683594 "/>
<path style=" stroke:none;fill-rule:nonzero;fill:rgb(24.705882%,23.921569%,33.72549%);fill-opacity:1;" d="M 233.578125 194.683594 L 232.152344 194.683594 C 232.03125 194.683594 231.9375 194.585938 231.9375 194.464844 L 231.9375 193.785156 C 231.9375 193.664062 232.03125 193.566406 232.152344 193.566406 L 233.578125 193.566406 C 233.695312 193.566406 233.792969 193.664062 233.792969 193.785156 L 233.792969 194.464844 C 233.792969 194.585938 233.695312 194.683594 233.578125 194.683594 Z M 233.578125 194.683594 "/>
<path style=" stroke:none;fill-rule:nonzero;fill:rgb(24.705882%,23.921569%,33.72549%);fill-opacity:1;" d="M 229.863281 194.683594 L 228.4375 194.683594 C 228.316406 194.683594 228.222656 194.585938 228.222656 194.464844 L 228.222656 193.785156 C 228.222656 193.664062 228.316406 193.566406 228.4375 193.566406 L 229.863281 193.566406 C 229.980469 193.566406 230.078125 193.664062 230.078125 193.785156 L 230.078125 194.464844 C 230.078125 194.585938 229.980469 194.683594 229.863281 194.683594 Z M 229.863281 194.683594 "/>
<path style=" stroke:none;fill-rule:nonzero;fill:rgb(24.705882%,23.921569%,33.72549%);fill-opacity:1;" d="M 226.148438 194.683594 L 224.722656 194.683594 C 224.601562 194.683594 224.507812 194.585938 224.507812 194.464844 L 224.507812 193.785156 C 224.507812 193.664062 224.601562 193.566406 224.722656 193.566406 L 226.148438 193.566406 C 226.265625 193.566406 226.363281 193.664062 226.363281 193.785156 L 226.363281 194.464844 C 226.363281 194.585938 226.265625 194.683594 226.148438 194.683594 Z M 226.148438 194.683594 "/>
<path style=" stroke:none;fill-rule:nonzero;fill:rgb(24.705882%,23.921569%,33.72549%);fill-opacity:1;" d="M 222.433594 194.683594 L 221.007812 194.683594 C 220.886719 194.683594 220.792969 194.585938 220.792969 194.464844 L 220.792969 193.785156 C 220.792969 193.664062 220.886719 193.566406 221.007812 193.566406 L 222.433594 193.566406 C 222.550781 193.566406 222.648438 193.664062 222.648438 193.785156 L 222.648438 194.464844 C 222.648438 194.585938 222.550781 194.683594 222.433594 194.683594 Z M 222.433594 194.683594 "/>
<path style=" stroke:none;fill-rule:nonzero;fill:rgb(24.705882%,23.921569%,33.72549%);fill-opacity:1;" d="M 260.324219 196.914062 L 245.898438 196.914062 C 245.777344 196.914062 245.679688 196.816406 245.679688 196.699219 L 245.679688 196.015625 C 245.679688 195.894531 245.777344 195.796875 245.898438 195.796875 L 260.324219 195.796875 C 260.441406 195.796875 260.539062 195.894531 260.539062 196.015625 L 260.539062 196.699219 C 260.539062 196.816406 260.441406 196.914062 260.324219 196.914062 Z M 260.324219 196.914062 "/>
<path style=" stroke:none;fill-rule:nonzero;fill:rgb(100%,100%,100%);fill-opacity:1;" d="M 229.351562 159.300781 L 230.613281 159.300781 C 230.996094 159.300781 231.304688 159.609375 231.304688 159.992188 C 231.304688 160.375 230.996094 160.6875 230.613281 160.6875 L 229.351562 160.6875 C 228.96875 160.6875 228.660156 160.375 228.660156 159.992188 C 228.660156 159.609375 228.96875 159.300781 229.351562 159.300781 Z M 229.351562 159.300781 "/>
<path style=" stroke:none;fill-rule:nonzero;fill:rgb(100%,100%,100%);fill-opacity:1;" d="M 243.773438 159.300781 L 245.035156 159.300781 C 245.417969 159.300781 245.726562 159.609375 245.726562 159.992188 C 245.726562 160.375 245.417969 160.6875 245.035156 160.6875 L 243.773438 160.6875 C 243.390625 160.6875 243.082031 160.375 243.082031 159.992188 C 243.082031 159.609375 243.390625 159.300781 243.773438 159.300781 Z M 243.773438 159.300781 "/>
<path style=" stroke:none;fill-rule:nonzero;fill:rgb(100%,100%,100%);fill-opacity:1;" d="M 247.859375 159.300781 L 249.121094 159.300781 C 249.503906 159.300781 249.8125 159.609375 249.8125 159.992188 C 249.8125 160.375 249.503906 160.6875 249.121094 160.6875 L 247.859375 160.6875 C 247.480469 160.6875 247.167969 160.375 247.167969 159.992188 C 247.167969 159.609375 247.480469 159.300781 247.859375 159.300781 Z M 247.859375 159.300781 "/>
<path style=" stroke:none;fill-rule:nonzero;fill:rgb(100%,100%,100%);fill-opacity:1;" d="M 233.273438 159.183594 L 241.113281 159.183594 C 241.496094 159.183594 241.804688 159.492188 241.804688 159.878906 C 241.804688 160.261719 241.496094 160.570312 241.113281 160.570312 L 233.273438 160.570312 C 232.894531 160.570312 232.582031 160.261719 232.582031 159.878906 C 232.582031 159.492188 232.894531 159.183594 233.273438 159.183594 Z M 233.273438 159.183594 "/>
<path style=" stroke:none;fill-rule:nonzero;fill:rgb(100%,100%,100%);fill-opacity:1;" d="M 252.503906 159.183594 L 260.34375 159.183594 C 260.726562 159.183594 261.035156 159.492188 261.035156 159.878906 C 261.035156 160.261719 260.726562 160.570312 260.34375 160.570312 L 252.503906 160.570312 C 252.121094 160.570312 251.8125 160.261719 251.8125 159.878906 C 251.8125 159.492188 252.121094 159.183594 252.503906 159.183594 Z M 252.503906 159.183594 "/>
<path style=" stroke:none;fill-rule:nonzero;fill:rgb(100%,100%,100%);fill-opacity:1;" d="M 233.199219 162.429688 L 234.460938 162.429688 C 234.839844 162.429688 235.152344 162.738281 235.152344 163.121094 C 235.152344 163.503906 234.839844 163.816406 234.460938 163.816406 L 233.199219 163.816406 C 232.816406 163.816406 232.503906 163.503906 232.503906 163.121094 C 232.503906 162.738281 232.816406 162.429688 233.199219 162.429688 Z M 233.199219 162.429688 "/>
<path style=" stroke:none;fill-rule:nonzero;fill:rgb(100%,100%,100%);fill-opacity:1;" d="M 247.621094 162.429688 L 248.882812 162.429688 C 249.265625 162.429688 249.574219 162.738281 249.574219 163.121094 C 249.574219 163.503906 249.265625 163.816406 248.882812 163.816406 L 247.621094 163.816406 C 247.238281 163.816406 246.929688 163.503906 246.929688 163.121094 C 246.929688 162.738281 247.238281 162.429688 247.621094 162.429688 Z M 247.621094 162.429688 "/>
<path style=" stroke:none;fill-rule:nonzero;fill:rgb(100%,100%,100%);fill-opacity:1;" d="M 251.707031 162.429688 L 252.96875 162.429688 C 253.351562 162.429688 253.660156 162.738281 253.660156 163.121094 C 253.660156 163.503906 253.351562 163.816406 252.96875 163.816406 L 251.707031 163.816406 C 251.324219 163.816406 251.015625 163.503906 251.015625 163.121094 C 251.015625 162.738281 251.324219 162.429688 251.707031 162.429688 Z M 251.707031 162.429688 "/>
<path style=" stroke:none;fill-rule:nonzero;fill:rgb(100%,100%,100%);fill-opacity:1;" d="M 237.121094 162.3125 L 244.957031 162.3125 C 245.339844 162.3125 245.652344 162.625 245.652344 163.007812 C 245.652344 163.390625 245.339844 163.699219 244.957031 163.699219 L 237.121094 163.699219 C 236.738281 163.699219 236.429688 163.390625 236.429688 163.007812 C 236.429688 162.625 236.738281 162.3125 237.121094 162.3125 Z M 237.121094 162.3125 "/>
<path style=" stroke:none;fill-rule:nonzero;fill:rgb(100%,100%,100%);fill-opacity:1;" d="M 256.351562 162.3125 L 264.1875 162.3125 C 264.570312 162.3125 264.882812 162.625 264.882812 163.007812 C 264.882812 163.390625 264.570312 163.699219 264.1875 163.699219 L 256.351562 163.699219 C 255.96875 163.699219 255.660156 163.390625 255.660156 163.007812 C 255.660156 162.625 255.96875 162.3125 256.351562 162.3125 Z M 256.351562 162.3125 "/>
<path style=" stroke:none;fill-rule:nonzero;fill:rgb(100%,100%,100%);fill-opacity:1;" d="M 237.042969 165.558594 L 238.304688 165.558594 C 238.6875 165.558594 238.996094 165.867188 238.996094 166.25 C 238.996094 166.632812 238.6875 166.945312 238.304688 166.945312 L 237.042969 166.945312 C 236.660156 166.945312 236.351562 166.632812 236.351562 166.25 C 236.351562 165.867188 236.660156 165.558594 237.042969 165.558594 Z M 237.042969 165.558594 "/>
<path style=" stroke:none;fill-rule:nonzero;fill:rgb(100%,100%,100%);fill-opacity:1;" d="M 251.464844 165.558594 L 252.726562 165.558594 C 253.109375 165.558594 253.417969 165.867188 253.417969 166.25 C 253.417969 166.632812 253.109375 166.945312 252.726562 166.945312 L 251.464844 166.945312 C 251.085938 166.945312 250.773438 166.632812 250.773438 166.25 C 250.773438 165.867188 251.085938 165.558594 251.464844 165.558594 Z M 251.464844 165.558594 "/>
<path style=" stroke:none;fill-rule:nonzero;fill:rgb(100%,100%,100%);fill-opacity:1;" d="M 255.554688 165.558594 L 256.8125 165.558594 C 257.195312 165.558594 257.507812 165.867188 257.507812 166.25 C 257.507812 166.632812 257.195312 166.945312 256.8125 166.945312 L 255.554688 166.945312 C 255.171875 166.945312 254.859375 166.632812 254.859375 166.25 C 254.859375 165.867188 255.171875 165.558594 255.554688 165.558594 Z M 255.554688 165.558594 "/>
<path style=" stroke:none;fill-rule:nonzero;fill:rgb(100%,100%,100%);fill-opacity:1;" d="M 240.96875 165.441406 L 248.804688 165.441406 C 249.1875 165.441406 249.496094 165.753906 249.496094 166.136719 C 249.496094 166.519531 249.1875 166.828125 248.804688 166.828125 L 240.96875 166.828125 C 240.585938 166.828125 240.273438 166.519531 240.273438 166.136719 C 240.273438 165.753906 240.585938 165.441406 240.96875 165.441406 Z M 240.96875 165.441406 "/>
<path style=" stroke:none;fill-rule:nonzero;fill:rgb(100%,100%,100%);fill-opacity:1;" d="M 260.195312 165.441406 L 268.035156 165.441406 C 268.417969 165.441406 268.726562 165.753906 268.726562 166.136719 C 268.726562 166.519531 268.417969 166.828125 268.035156 166.828125 L 260.195312 166.828125 C 259.816406 166.828125 259.503906 166.519531 259.503906 166.136719 C 259.503906 165.753906 259.816406 165.441406 260.195312 165.441406 Z M 260.195312 165.441406 "/>
<path style=" stroke:none;fill-rule:nonzero;fill:rgb(100%,100%,100%);fill-opacity:1;" d="M 240.890625 168.6875 L 242.152344 168.6875 C 242.535156 168.6875 242.84375 168.996094 242.84375 169.378906 C 242.84375 169.761719 242.535156 170.074219 242.152344 170.074219 L 240.890625 170.074219 C 240.507812 170.074219 240.199219 169.761719 240.199219 169.378906 C 240.199219 168.996094 240.507812 168.6875 240.890625 168.6875 Z M 240.890625 168.6875 "/>
<path style=" stroke:none;fill-rule:nonzero;fill:rgb(100%,100%,100%);fill-opacity:1;" d="M 255.3125 168.6875 L 256.574219 168.6875 C 256.957031 168.6875 257.265625 168.996094 257.265625 169.378906 C 257.265625 169.761719 256.957031 170.074219 256.574219 170.074219 L 255.3125 170.074219 C 254.929688 170.074219 254.621094 169.761719 254.621094 169.378906 C 254.621094 168.996094 254.929688 168.6875 255.3125 168.6875 Z M 255.3125 168.6875 "/>
<path style=" stroke:none;fill-rule:nonzero;fill:rgb(100%,100%,100%);fill-opacity:1;" d="M 259.398438 168.6875 L 260.660156 168.6875 C 261.042969 168.6875 261.351562 168.996094 261.351562 169.378906 C 261.351562 169.761719 261.042969 170.074219 260.660156 170.074219 L 259.398438 170.074219 C 259.015625 170.074219 258.707031 169.761719 258.707031 169.378906 C 258.707031 168.996094 259.015625 168.6875 259.398438 168.6875 Z M 259.398438 168.6875 "/>
<path style=" stroke:none;fill-rule:nonzero;fill:rgb(100%,100%,100%);fill-opacity:1;" d="M 244.8125 168.570312 L 252.652344 168.570312 C 253.03125 168.570312 253.34375 168.882812 253.34375 169.265625 C 253.34375 169.648438 253.03125 169.957031 252.652344 169.957031 L 244.8125 169.957031 C 244.429688 169.957031 244.121094 169.648438 244.121094 169.265625 C 244.121094 168.882812 244.429688 168.570312 244.8125 168.570312 Z M 244.8125 168.570312 "/>
<path style=" stroke:none;fill-rule:nonzero;fill:rgb(100%,100%,100%);fill-opacity:1;" d="M 243.773438 181.128906 L 245.035156 181.128906 C 245.417969 181.128906 245.726562 181.441406 245.726562 181.824219 C 245.726562 182.207031 245.417969 182.515625 245.035156 182.515625 L 243.773438 182.515625 C 243.390625 182.515625 243.082031 182.207031 243.082031 181.824219 C 243.082031 181.441406 243.390625 181.128906 243.773438 181.128906 Z M 243.773438 181.128906 "/>
<path style=" stroke:none;fill-rule:nonzero;fill:rgb(100%,100%,100%);fill-opacity:1;" d="M 247.859375 181.128906 L 249.121094 181.128906 C 249.503906 181.128906 249.8125 181.441406 249.8125 181.824219 C 249.8125 182.207031 249.503906 182.515625 249.121094 182.515625 L 247.859375 182.515625 C 247.480469 182.515625 247.167969 182.207031 247.167969 181.824219 C 247.167969 181.441406 247.480469 181.128906 247.859375 181.128906 Z M 247.859375 181.128906 "/>
<path style=" stroke:none;fill-rule:nonzero;fill:rgb(100%,100%,100%);fill-opacity:1;" d="M 252.503906 181.246094 L 260.34375 181.246094 C 260.726562 181.246094 261.035156 181.554688 261.035156 181.9375 C 261.035156 182.320312 260.726562 182.632812 260.34375 182.632812 L 252.503906 182.632812 C 252.121094 182.632812 251.8125 182.320312 251.8125 181.9375 C 251.8125 181.554688 252.121094 181.246094 252.503906 181.246094 Z M 252.503906 181.246094 "/>
<path style=" stroke:none;fill-rule:nonzero;fill:rgb(100%,100%,100%);fill-opacity:1;" d="M 229.351562 181.128906 L 230.613281 181.128906 C 230.996094 181.128906 231.304688 181.441406 231.304688 181.824219 C 231.304688 182.207031 230.996094 182.515625 230.613281 182.515625 L 229.351562 182.515625 C 228.96875 182.515625 228.660156 182.207031 228.660156 181.824219 C 228.660156 181.441406 228.96875 181.128906 229.351562 181.128906 Z M 229.351562 181.128906 "/>
<path style=" stroke:none;fill-rule:nonzero;fill:rgb(100%,100%,100%);fill-opacity:1;" d="M 233.273438 181.246094 L 241.113281 181.246094 C 241.496094 181.246094 241.804688 181.554688 241.804688 181.9375 C 241.804688 182.320312 241.496094 182.632812 241.113281 182.632812 L 233.273438 182.632812 C 232.894531 182.632812 232.582031 182.320312 232.582031 181.9375 C 232.582031 181.554688 232.894531 181.246094 233.273438 181.246094 Z M 233.273438 181.246094 "/>
<path style=" stroke:none;fill-rule:nonzero;fill:rgb(100%,100%,100%);fill-opacity:1;" d="M 233.199219 178 L 234.460938 178 C 234.839844 178 235.152344 178.3125 235.152344 178.695312 C 235.152344 179.078125 234.839844 179.386719 234.460938 179.386719 L 233.199219 179.386719 C 232.816406 179.386719 232.503906 179.078125 232.503906 178.695312 C 232.503906 178.3125 232.816406 178 233.199219 178 Z M 233.199219 178 "/>
<path style=" stroke:none;fill-rule:nonzero;fill:rgb(100%,100%,100%);fill-opacity:1;" d="M 247.621094 178 L 248.882812 178 C 249.265625 178 249.574219 178.3125 249.574219 178.695312 C 249.574219 179.078125 249.265625 179.386719 248.882812 179.386719 L 247.621094 179.386719 C 247.238281 179.386719 246.929688 179.078125 246.929688 178.695312 C 246.929688 178.3125 247.238281 178 247.621094 178 Z M 247.621094 178 "/>
<path style=" stroke:none;fill-rule:nonzero;fill:rgb(100%,100%,100%);fill-opacity:1;" d="M 251.707031 178 L 252.96875 178 C 253.351562 178 253.660156 178.3125 253.660156 178.695312 C 253.660156 179.078125 253.351562 179.386719 252.96875 179.386719 L 251.707031 179.386719 C 251.324219 179.386719 251.015625 179.078125 251.015625 178.695312 C 251.015625 178.3125 251.324219 178 251.707031 178 Z M 251.707031 178 "/>
<path style=" stroke:none;fill-rule:nonzero;fill:rgb(100%,100%,100%);fill-opacity:1;" d="M 237.121094 178.117188 L 244.957031 178.117188 C 245.339844 178.117188 245.652344 178.425781 245.652344 178.808594 C 245.652344 179.191406 245.339844 179.503906 244.957031 179.503906 L 237.121094 179.503906 C 236.738281 179.503906 236.429688 179.191406 236.429688 178.808594 C 236.429688 178.425781 236.738281 178.117188 237.121094 178.117188 Z M 237.121094 178.117188 "/>
<path style=" stroke:none;fill-rule:nonzero;fill:rgb(100%,100%,100%);fill-opacity:1;" d="M 237.042969 174.871094 L 238.304688 174.871094 C 238.6875 174.871094 238.996094 175.179688 238.996094 175.5625 C 238.996094 175.945312 238.6875 176.257812 238.304688 176.257812 L 237.042969 176.257812 C 236.660156 176.257812 236.351562 175.945312 236.351562 175.5625 C 236.351562 175.179688 236.660156 174.871094 237.042969 174.871094 Z M 237.042969 174.871094 "/>
<path style=" stroke:none;fill-rule:nonzero;fill:rgb(100%,100%,100%);fill-opacity:1;" d="M 251.464844 174.871094 L 252.726562 174.871094 C 253.109375 174.871094 253.417969 175.179688 253.417969 175.5625 C 253.417969 175.945312 253.109375 176.257812 252.726562 176.257812 L 251.464844 176.257812 C 251.085938 176.257812 250.773438 175.945312 250.773438 175.5625 C 250.773438 175.179688 251.085938 174.871094 251.464844 174.871094 Z M 251.464844 174.871094 "/>
<path style=" stroke:none;fill-rule:nonzero;fill:rgb(100%,100%,100%);fill-opacity:1;" d="M 255.554688 174.871094 L 256.8125 174.871094 C 257.195312 174.871094 257.507812 175.179688 257.507812 175.5625 C 257.507812 175.945312 257.195312 176.257812 256.8125 176.257812 L 255.554688 176.257812 C 255.171875 176.257812 254.859375 175.945312 254.859375 175.5625 C 254.859375 175.179688 255.171875 174.871094 255.554688 174.871094 Z M 255.554688 174.871094 "/>
<path style=" stroke:none;fill-rule:nonzero;fill:rgb(100%,100%,100%);fill-opacity:1;" d="M 240.96875 174.988281 L 248.804688 174.988281 C 249.1875 174.988281 249.496094 175.296875 249.496094 175.679688 C 249.496094 176.0625 249.1875 176.375 248.804688 176.375 L 240.96875 176.375 C 240.585938 176.375 240.273438 176.0625 240.273438 175.679688 C 240.273438 175.296875 240.585938 174.988281 240.96875 174.988281 Z M 240.96875 174.988281 "/>
<path style=" stroke:none;fill-rule:nonzero;fill:rgb(100%,100%,100%);fill-opacity:1;" d="M 240.890625 171.742188 L 242.152344 171.742188 C 242.535156 171.742188 242.84375 172.050781 242.84375 172.433594 C 242.84375 172.816406 242.535156 173.128906 242.152344 173.128906 L 240.890625 173.128906 C 240.507812 173.128906 240.199219 172.816406 240.199219 172.433594 C 240.199219 172.050781 240.507812 171.742188 240.890625 171.742188 Z M 240.890625 171.742188 "/>
<path style=" stroke:none;fill-rule:nonzero;fill:rgb(100%,100%,100%);fill-opacity:1;" d="M 255.3125 171.742188 L 256.574219 171.742188 C 256.957031 171.742188 257.265625 172.050781 257.265625 172.433594 C 257.265625 172.816406 256.957031 173.128906 256.574219 173.128906 L 255.3125 173.128906 C 254.929688 173.128906 254.621094 172.816406 254.621094 172.433594 C 254.621094 172.050781 254.929688 171.742188 255.3125 171.742188 Z M 255.3125 171.742188 "/>
<path style=" stroke:none;fill-rule:nonzero;fill:rgb(100%,100%,100%);fill-opacity:1;" d="M 259.398438 171.742188 L 260.660156 171.742188 C 261.042969 171.742188 261.351562 172.050781 261.351562 172.433594 C 261.351562 172.816406 261.042969 173.128906 260.660156 173.128906 L 259.398438 173.128906 C 259.015625 173.128906 258.707031 172.816406 258.707031 172.433594 C 258.707031 172.050781 259.015625 171.742188 259.398438 171.742188 Z M 259.398438 171.742188 "/>
<path style=" stroke:none;fill-rule:nonzero;fill:rgb(100%,100%,100%);fill-opacity:1;" d="M 244.8125 171.859375 L 252.652344 171.859375 C 253.03125 171.859375 253.34375 172.167969 253.34375 172.550781 C 253.34375 172.933594 253.03125 173.242188 252.652344 173.242188 L 244.8125 173.242188 C 244.429688 173.242188 244.121094 172.933594 244.121094 172.550781 C 244.121094 172.167969 244.429688 171.859375 244.8125 171.859375 Z M 244.8125 171.859375 "/>
<path style=" stroke:none;fill-rule:nonzero;fill:rgb(100%,71.372549%,71.372549%);fill-opacity:1;" d="M 223.910156 217.800781 L 217.988281 208.429688 L 236.570312 193.597656 L 244.238281 185.089844 C 246.269531 182.839844 249.335938 181.839844 252.300781 182.464844 C 255.261719 183.089844 257.667969 185.242188 258.617188 188.121094 C 260.054688 192.476562 257.785156 197.1875 253.484375 198.773438 L 241.355469 203.25 Z M 223.910156 217.800781 "/>
<path style=" stroke:none;fill-rule:nonzero;fill:rgb(18.431373%,18.039216%,25.490196%);fill-opacity:1;" d="M 85.007812 149.859375 L 85.007812 195.402344 L 116.867188 195.402344 L 116.867188 149.859375 C 116.871094 149.1875 116.433594 148.59375 115.789062 148.394531 C 115.644531 148.347656 115.488281 148.320312 115.335938 148.324219 L 86.542969 148.324219 C 85.695312 148.324219 85.007812 149.011719 85.007812 149.859375 Z M 97.441406 165.507812 C 97.457031 163.640625 98.976562 162.132812 100.84375 162.132812 C 102.707031 162.132812 104.226562 163.640625 104.242188 165.507812 L 104.242188 170.792969 C 104.234375 172.667969 102.714844 174.183594 100.84375 174.183594 C 98.96875 174.183594 97.449219 172.667969 97.441406 170.792969 Z M 97.441406 165.507812 "/>
<path style=" stroke:none;fill-rule:nonzero;fill:rgb(24.705882%,23.921569%,33.72549%);fill-opacity:1;" d="M 84.910156 193.945312 L 84.910156 198.339844 C 84.910156 198.8125 85.292969 199.195312 85.765625 199.199219 L 116.109375 199.199219 C 116.582031 199.195312 116.964844 198.8125 116.964844 198.339844 L 116.964844 193.945312 Z M 84.910156 193.945312 "/>
<path style=" stroke:none;fill-rule:nonzero;fill:rgb(24.705882%,23.921569%,33.72549%);fill-opacity:1;" d="M 34.882812 81.246094 L 34.882812 164.398438 C 34.882812 166.605469 36.667969 168.394531 38.875 168.394531 L 161.933594 168.394531 C 164.136719 168.394531 165.921875 166.605469 165.921875 164.398438 L 165.921875 81.246094 C 165.917969 79.039062 164.132812 77.253906 161.933594 77.253906 L 38.875 77.253906 C 36.671875 77.253906 34.886719 79.039062 34.882812 81.246094 Z M 34.882812 81.246094 "/>
<path style=" stroke:none;fill-rule:nonzero;fill:rgb(100%,100%,100%);fill-opacity:1;" d="M 37.769531 82.28125 L 37.769531 163.371094 C 37.769531 164.550781 38.726562 165.507812 39.902344 165.507812 L 160.90625 165.507812 C 162.085938 165.507812 163.039062 164.550781 163.042969 163.371094 L 163.042969 82.28125 C 163.039062 81.097656 162.085938 80.140625 160.90625 80.140625 L 39.902344 80.140625 C 38.722656 80.140625 37.769531 81.097656 37.769531 82.28125 Z M 37.769531 82.28125 "/>
<path style=" stroke:none;fill-rule:nonzero;fill:rgb(18.431373%,18.039216%,25.490196%);fill-opacity:1;" d="M 60.226562 198.902344 C 60.476562 199.214844 60.855469 199.398438 61.253906 199.394531 L 133.246094 199.394531 C 133.644531 199.394531 134.019531 199.214844 134.273438 198.902344 C 134.523438 198.59375 134.621094 198.1875 134.539062 197.796875 L 133.421875 192.480469 C 133.328125 192.039062 133.019531 191.675781 132.597656 191.515625 C 132.449219 191.457031 132.289062 191.429688 132.128906 191.429688 L 62.367188 191.429688 C 62.207031 191.429688 62.046875 191.457031 61.898438 191.515625 C 61.476562 191.675781 61.167969 192.039062 61.074219 192.480469 L 59.957031 197.796875 C 59.875 198.1875 59.972656 198.59375 60.226562 198.902344 Z M 60.226562 198.902344 "/>
<path style=" stroke:none;fill-rule:nonzero;fill:rgb(24.705882%,23.921569%,33.72549%);fill-opacity:1;" d="M 156.980469 91.308594 L 43.757812 91.308594 C 43.511719 91.304688 43.316406 91.105469 43.316406 90.859375 C 43.316406 90.613281 43.511719 90.414062 43.757812 90.410156 L 156.980469 90.410156 C 157.226562 90.414062 157.421875 90.613281 157.421875 90.859375 C 157.421875 91.105469 157.226562 91.304688 156.980469 91.308594 Z M 156.980469 91.308594 "/>
<path style=" stroke:none;fill-rule:nonzero;fill:rgb(24.705882%,23.921569%,33.72549%);fill-opacity:1;" d="M 54.101562 85.40625 C 54.101562 83.914062 52.921875 82.703125 51.464844 82.703125 C 50.007812 82.703125 48.824219 83.914062 48.824219 85.40625 C 48.824219 86.898438 50.007812 88.105469 51.464844 88.105469 C 52.921875 88.105469 54.101562 86.898438 54.101562 85.40625 Z M 54.101562 85.40625 "/>
<path style=" stroke:none;fill-rule:nonzero;fill:rgb(24.705882%,23.921569%,33.72549%);fill-opacity:1;" d="M 63.21875 85.40625 C 63.21875 83.914062 62.035156 82.703125 60.578125 82.703125 C 59.121094 82.703125 57.941406 83.914062 57.941406 85.40625 C 57.941406 86.898438 59.121094 88.105469 60.578125 88.105469 C 62.035156 88.105469 63.21875 86.898438 63.21875 85.40625 Z M 63.21875 85.40625 "/>
<path style=" stroke:none;fill-rule:nonzero;fill:rgb(24.705882%,23.921569%,33.72549%);fill-opacity:1;" d="M 72.332031 85.40625 C 72.332031 83.914062 71.152344 82.703125 69.695312 82.703125 C 68.238281 82.703125 67.054688 83.914062 67.054688 85.40625 C 67.054688 86.898438 68.238281 88.105469 69.695312 88.105469 C 71.152344 88.105469 72.332031 86.898438 72.332031 85.40625 Z M 72.332031 85.40625 "/>
<path style=" stroke:none;fill-rule:nonzero;fill:rgb(24.705882%,23.921569%,33.72549%);fill-opacity:1;" d="M 151.492188 83.371094 L 145.015625 83.371094 C 144.75 83.378906 144.539062 83.597656 144.539062 83.863281 C 144.539062 84.128906 144.75 84.347656 145.015625 84.351562 L 151.492188 84.351562 C 151.761719 84.347656 151.976562 84.132812 151.976562 83.863281 C 151.976562 83.59375 151.761719 83.375 151.492188 83.371094 Z M 151.492188 83.371094 "/>
<path style=" stroke:none;fill-rule:nonzero;fill:rgb(24.705882%,23.921569%,33.72549%);fill-opacity:1;" d="M 151.492188 85.214844 L 145.015625 85.214844 C 144.75 85.21875 144.539062 85.4375 144.539062 85.707031 C 144.539062 85.972656 144.75 86.191406 145.015625 86.195312 L 151.492188 86.195312 C 151.761719 86.191406 151.976562 85.972656 151.976562 85.707031 C 151.976562 85.4375 151.761719 85.21875 151.492188 85.214844 Z M 151.492188 85.214844 "/>
<path style=" stroke:none;fill-rule:nonzero;fill:rgb(24.705882%,23.921569%,33.72549%);fill-opacity:1;" d="M 151.492188 87.058594 L 145.015625 87.058594 C 144.75 87.0625 144.539062 87.28125 144.539062 87.546875 C 144.539062 87.816406 144.75 88.03125 145.015625 88.039062 L 151.492188 88.039062 C 151.761719 88.035156 151.976562 87.816406 151.976562 87.546875 C 151.976562 87.28125 151.761719 87.0625 151.492188 87.058594 Z M 151.492188 87.058594 "/>
<path style=" stroke:none;fill-rule:nonzero;fill:rgb(18.431373%,18.039216%,25.490196%);fill-opacity:1;" d="M 307.578125 195.875 C 307.980469 197.042969 309.085938 197.820312 310.320312 197.796875 L 322.070312 197.492188 C 323.3125 197.46875 324.394531 196.628906 324.722656 195.425781 L 326.382812 177.625 C 326.972656 177.894531 327.617188 178.023438 328.261719 178.011719 C 330.628906 177.953125 332.5 175.984375 332.4375 173.617188 C 332.378906 171.246094 330.414062 169.375 328.046875 169.433594 C 327.789062 169.433594 327.53125 169.460938 327.277344 169.515625 C 326.722656 168.910156 325.9375 168.574219 325.117188 168.582031 L 307.046875 169.046875 C 306.894531 169.054688 306.746094 169.070312 306.601562 169.101562 C 305.796875 169.253906 305.101562 169.742188 304.6875 170.445312 C 304.273438 171.148438 304.183594 172 304.4375 172.773438 Z M 326.726562 176.417969 L 327.90625 172.175781 C 328.042969 171.683594 328.046875 171.167969 327.917969 170.675781 C 327.972656 170.675781 328.023438 170.648438 328.082031 170.648438 C 329.769531 170.613281 331.167969 171.953125 331.210938 173.644531 C 331.25 175.335938 329.914062 176.738281 328.226562 176.785156 C 327.703125 176.800781 327.183594 176.671875 326.726562 176.417969 Z M 326.726562 176.417969 "/>
<path style=" stroke:none;fill-rule:nonzero;fill:rgb(24.705882%,23.921569%,33.72549%);fill-opacity:1;" d="M 306.601562 169.101562 C 306.984375 171.308594 311.3125 172.855469 316.519531 172.585938 C 321.304688 172.367188 325.21875 170.683594 325.933594 168.691406 C 325.667969 168.609375 325.394531 168.574219 325.117188 168.582031 L 307.046875 169.046875 C 306.894531 169.054688 306.746094 169.070312 306.601562 169.101562 Z M 306.601562 169.101562 "/>
<path style=" stroke:none;fill-rule:nonzero;fill:rgb(97.254902%,69.019608%,4.705882%);fill-opacity:1;" d="M 317.472656 186.09375 C 317.496094 186.085938 317.519531 186.074219 317.539062 186.0625 L 320.089844 184.390625 C 320.152344 184.347656 320.191406 184.28125 320.191406 184.203125 C 320.191406 184.128906 320.152344 184.058594 320.089844 184.019531 L 317.4375 182.28125 C 317.371094 182.234375 317.289062 182.230469 317.21875 182.265625 C 317.144531 182.300781 317.097656 182.375 317.09375 182.453125 C 317.089844 182.53125 317.128906 182.609375 317.195312 182.652344 L 319.5625 184.203125 L 317.296875 185.691406 C 317.207031 185.75 317.171875 185.867188 317.214844 185.964844 C 317.257812 186.066406 317.367188 186.117188 317.472656 186.09375 Z M 317.472656 186.09375 "/>
<path style=" stroke:none;fill-rule:nonzero;fill:rgb(97.254902%,69.019608%,4.705882%);fill-opacity:1;" d="M 313.441406 186.277344 C 313.53125 186.253906 313.59375 186.183594 313.609375 186.09375 C 313.621094 186.003906 313.578125 185.914062 313.5 185.871094 L 311.148438 184.519531 L 313.417969 182.828125 C 313.519531 182.757812 313.539062 182.617188 313.464844 182.519531 C 313.390625 182.421875 313.253906 182.398438 313.15625 182.472656 L 310.609375 184.367188 C 310.550781 184.410156 310.515625 184.484375 310.519531 184.558594 C 310.527344 184.632812 310.566406 184.699219 310.632812 184.738281 L 313.277344 186.253906 C 313.328125 186.285156 313.386719 186.292969 313.441406 186.277344 Z M 313.441406 186.277344 "/>
<path style=" stroke:none;fill-rule:nonzero;fill:rgb(97.254902%,69.019608%,4.705882%);fill-opacity:1;" d="M 317.21875 187.558594 C 317.238281 187.550781 317.261719 187.542969 317.277344 187.53125 C 317.328125 187.5 317.367188 187.453125 317.378906 187.394531 C 317.394531 187.335938 317.382812 187.277344 317.351562 187.226562 L 313.738281 181.273438 C 313.671875 181.167969 313.535156 181.136719 313.433594 181.199219 C 313.328125 181.261719 313.292969 181.398438 313.359375 181.503906 L 316.972656 187.457031 C 317.023438 187.539062 317.125 187.582031 317.21875 187.558594 Z M 317.21875 187.558594 "/>
<path style=" stroke:none;fill-rule:nonzero;fill:rgb(97.254902%,69.019608%,4.705882%);fill-opacity:1;" d="M 94.300781 115.820312 L 113.898438 115.820312 C 114.695312 115.820312 115.34375 116.472656 115.34375 117.269531 L 115.34375 119.1875 C 115.34375 119.988281 114.695312 120.636719 113.898438 120.636719 L 94.300781 120.636719 C 93.5 120.636719 92.851562 119.988281 92.851562 119.1875 L 92.851562 117.269531 C 92.851562 116.472656 93.5 115.820312 94.300781 115.820312 Z M 94.300781 115.820312 "/>
<path style=" stroke:none;fill-rule:nonzero;fill:rgb(90.196078%,90.196078%,90.196078%);fill-opacity:1;" d="M 82.878906 125.453125 L 125.320312 125.453125 C 126.121094 125.453125 126.765625 126.101562 126.765625 126.902344 L 126.765625 128.820312 C 126.765625 129.621094 126.121094 130.269531 125.320312 130.269531 L 82.878906 130.269531 C 82.078125 130.269531 81.429688 129.621094 81.429688 128.820312 L 81.429688 126.902344 C 81.429688 126.101562 82.078125 125.453125 82.878906 125.453125 Z M 82.878906 125.453125 "/>
<path style=" stroke:none;fill-rule:nonzero;fill:rgb(90.196078%,90.196078%,90.196078%);fill-opacity:1;" d="M 82.878906 135.085938 L 125.320312 135.085938 C 126.121094 135.085938 126.765625 135.734375 126.765625 136.535156 L 126.765625 138.453125 C 126.765625 139.253906 126.121094 139.902344 125.320312 139.902344 L 82.878906 139.902344 C 82.078125 139.902344 81.429688 139.253906 81.429688 138.453125 L 81.429688 136.535156 C 81.429688 135.734375 82.078125 135.085938 82.878906 135.085938 Z M 82.878906 135.085938 "/>
<path style=" stroke:none;fill-rule:nonzero;fill:rgb(24.705882%,23.921569%,33.72549%);fill-opacity:1;" d="M 128.917969 167.339844 L 129.015625 167.644531 L 129.019531 167.65625 L 131.914062 176.464844 L 135.242188 186.617188 L 141.503906 205.691406 L 141.566406 208.65625 L 141.566406 208.667969 L 142.03125 232.503906 L 140.738281 235.738281 L 142.191406 241.035156 C 142.191406 241.035156 141.523438 233.027344 137.941406 237.625 C 135.914062 240.238281 133.542969 242.914062 131.59375 245.421875 C 134.433594 246.570312 137.316406 247.613281 140.246094 248.542969 C 140.875 248.746094 141.515625 248.9375 142.152344 249.128906 C 142.289062 249.171875 142.425781 249.210938 142.5625 249.25 C 152.269531 252.125 162.308594 253.742188 172.429688 254.058594 C 172.953125 254.074219 173.46875 254.085938 173.972656 254.09375 C 174.148438 254.097656 174.320312 254.105469 174.492188 254.105469 C 175.058594 254.109375 175.621094 254.113281 176.1875 254.113281 C 177.332031 254.113281 178.46875 254.097656 179.601562 254.0625 C 187.988281 253.828125 196.328125 252.699219 204.476562 250.695312 C 204.421875 247.328125 204.269531 243.390625 204.050781 239.1875 C 203.949219 237.125 201.679688 234.890625 201.542969 232.730469 C 201.445312 231.113281 203.484375 229.585938 203.378906 227.941406 C 202.691406 217.804688 201.832031 221.695312 201.191406 214.515625 C 201.128906 213.8125 201.066406 213.140625 201.011719 212.496094 C 200.601562 207.886719 200.316406 205.003906 200.316406 205.003906 L 203.039062 187.824219 L 207.3125 160.855469 L 206.984375 160.316406 L 206.617188 160.132812 L 184.070312 148.957031 L 182.84375 145.816406 C 182.113281 143.964844 180.335938 142.746094 178.347656 142.730469 L 163.496094 142.671875 C 161.929688 142.664062 160.460938 143.414062 159.542969 144.683594 L 155.523438 150.257812 Z M 128.917969 167.339844 "/>
<path style=" stroke:none;fill-rule:nonzero;fill:rgb(24.705882%,23.921569%,33.72549%);fill-opacity:1;" d="M 144.929688 201.449219 L 139.269531 213.578125 L 135.316406 234.292969 L 133.339844 236.394531 L 131.644531 228.953125 L 113.90625 232.898438 C 113.324219 229.660156 113.75 233.007812 113.390625 229.457031 C 113.492188 229.355469 113.601562 229.253906 113.707031 229.152344 C 113.988281 228.886719 114.226562 228.640625 114.222656 228.402344 C 114.019531 216.152344 114.625 195.308594 119.695312 182.679688 C 120.488281 180.617188 121.535156 178.664062 122.8125 176.859375 C 122.914062 176.722656 123.007812 176.585938 123.105469 176.449219 C 125.441406 173.171875 126.917969 169.945312 129.015625 167.648438 L 129.015625 167.644531 C 129.027344 167.632812 129.039062 167.621094 129.050781 167.609375 C 129.058594 167.605469 129.0625 167.601562 129.070312 167.59375 L 143.457031 159.953125 L 144.074219 177.320312 L 144.515625 189.800781 Z M 144.929688 201.449219 "/>
<path style=" stroke:none;fill-rule:nonzero;fill:rgb(24.705882%,23.921569%,33.72549%);fill-opacity:1;" d="M 196.804688 203.496094 L 201.007812 212.5 L 202.476562 215.632812 L 206.425781 236.34375 L 208.398438 238.441406 L 210.09375 231.003906 L 210.894531 230.839844 L 225.289062 227.851562 L 229.484375 241.195312 C 231.433594 237.941406 230.828125 233.765625 228.035156 231.203125 C 227.75 230.941406 227.511719 230.6875 227.519531 230.449219 C 227.757812 216.042969 226.875 189.738281 218.929688 178.910156 C 216.40625 175.472656 214.890625 172.050781 212.6875 169.660156 C 212.679688 169.65625 212.679688 169.648438 212.675781 169.648438 L 207.3125 160.855469 L 206.984375 160.316406 L 206.617188 160.132812 Z M 196.804688 203.496094 "/>
<path style=" stroke:none;fill-rule:nonzero;fill:rgb(100%,71.372549%,71.372549%);fill-opacity:1;" d="M 191.109375 118.652344 C 191.109375 129.578125 182.261719 138.4375 171.351562 138.4375 C 160.4375 138.4375 151.589844 129.578125 151.589844 118.652344 C 151.589844 107.722656 160.4375 98.867188 171.351562 98.867188 C 182.261719 98.867188 191.109375 107.722656 191.109375 118.652344 Z M 191.109375 118.652344 "/>
<path style=" stroke:none;fill-rule:nonzero;fill:rgb(18.431373%,18.039216%,25.490196%);fill-opacity:1;" d="M 198.058594 104.832031 C 197.746094 104.5 197.316406 104.308594 196.863281 104.304688 L 197.160156 103.476562 C 197.359375 102.945312 197.257812 102.351562 196.890625 101.917969 C 196.527344 101.488281 195.960938 101.285156 195.40625 101.390625 L 194.324219 101.597656 L 194.425781 100.875 C 194.503906 100.328125 194.289062 99.777344 193.859375 99.429688 C 193.429688 99.082031 192.847656 98.984375 192.328125 99.179688 C 191.859375 99.363281 191.328125 99.324219 190.890625 99.078125 C 190.449219 98.835938 190.140625 98.410156 190.039062 97.917969 L 189.664062 96.097656 L 189.621094 96 C 187.785156 92.933594 184.257812 90.707031 179.9375 89.890625 C 176.09375 89.15625 172.152344 89.527344 168.351562 89.878906 C 166.84375 90.023438 165.140625 90.183594 163.71875 91.050781 C 162.515625 91.796875 161.496094 93.289062 161.703125 94.796875 C 157.957031 93.644531 153.9375 95.941406 151.945312 98.835938 C 149.585938 102.28125 149.203125 106.597656 149.140625 109.972656 C 148.972656 117.957031 150.617188 124.488281 154.019531 129.390625 C 154.265625 129.746094 154.328125 130.488281 154.820312 130.738281 L 154.71875 130.574219 C 155.269531 130.847656 155.828125 131.292969 155.617188 131.769531 C 155.019531 133.136719 158.996094 136.160156 161.800781 137.160156 C 166.914062 138.984375 173.710938 138.828125 178.492188 138.171875 L 178.660156 137.039062 C 180.386719 136.804688 181.601562 136.355469 181.941406 135.652344 C 182.546875 135.136719 183.058594 134.675781 183.507812 134.25 L 183.511719 134.246094 C 183.519531 134.238281 183.539062 134.222656 183.546875 134.214844 C 185.707031 132.140625 186.207031 130.960938 186.433594 129.160156 C 186.652344 127.398438 186.265625 125.609375 185.871094 123.996094 C 194.179688 125.285156 182.597656 115.132812 190.339844 113.171875 C 190.429688 113.144531 190.519531 113.121094 190.613281 113.105469 C 190.839844 113.050781 191.0625 112.996094 191.28125 112.933594 C 192.328125 112.652344 193.332031 112.222656 194.261719 111.660156 C 196.425781 110.34375 197.140625 108.59375 198.257812 106.621094 C 198.585938 106.042969 198.507812 105.320312 198.058594 104.832031 Z M 198.058594 104.832031 "/>
<path style=" stroke:none;fill-rule:nonzero;fill:rgb(18.431373%,18.039216%,25.490196%);fill-opacity:1;" d="M 241.238281 204.902344 C 241.230469 205.679688 241.222656 206.769531 241.1875 208.113281 C 241.183594 208.300781 241.179688 208.492188 241.175781 208.6875 C 241.117188 211.160156 241.058594 213.234375 240.964844 215.539062 C 240.960938 215.699219 240.957031 215.855469 240.949219 216.015625 C 240.824219 219.230469 240.628906 222.972656 240.292969 228.902344 C 239.667969 239.851562 238.574219 230.40625 237.480469 234.246094 C 237.425781 234.4375 237.371094 234.664062 237.316406 234.929688 C 237.152344 235.898438 236.871094 236.839844 236.484375 237.742188 C 235.902344 238.089844 235.304688 238.421875 234.714844 238.753906 C 233.03125 239.691406 231.324219 240.59375 229.605469 241.449219 C 228.636719 241.929688 227.667969 242.398438 226.691406 242.851562 C 226.535156 242.921875 226.386719 242.996094 226.234375 243.0625 C 221.238281 245.375 216.089844 247.34375 210.824219 248.949219 C 209.796875 249.261719 208.769531 249.5625 207.734375 249.84375 C 206.652344 250.144531 205.570312 250.429688 204.472656 250.695312 C 196.324219 252.699219 187.988281 253.828125 179.601562 254.066406 C 178.46875 254.101562 177.332031 254.113281 176.1875 254.113281 C 175.617188 254.113281 175.058594 254.109375 174.492188 254.105469 C 174.320312 254.105469 174.144531 254.101562 173.972656 254.097656 C 173.472656 254.082031 172.953125 254.074219 172.429688 254.0625 C 162.308594 253.746094 152.273438 252.128906 142.5625 249.25 L 142.152344 249.132812 C 141.511719 248.9375 140.878906 248.746094 140.242188 248.542969 C 137.316406 247.613281 134.433594 246.574219 131.59375 245.425781 C 129.421875 244.550781 127.28125 243.609375 125.160156 242.609375 C 125.144531 242.601562 125.125 242.59375 125.109375 242.582031 C 124.664062 242.378906 124.21875 242.164062 123.773438 241.945312 C 123.714844 241.914062 123.65625 241.882812 123.59375 241.855469 C 121.9375 241.046875 120.300781 240.199219 118.683594 239.3125 C 117.320312 236.183594 115.40625 235.582031 114.21875 232.832031 C 113.871094 232.011719 113.621094 231.15625 113.472656 230.28125 C 113.472656 230.273438 113.46875 230.265625 113.46875 230.25 C 113.59375 231.902344 112.941406 227.320312 113.464844 230.234375 C 113.460938 230.179688 113.453125 230.121094 113.449219 230.054688 C 113.4375 229.894531 113.417969 229.699219 113.394531 229.457031 C 111.871094 214.585938 111.96875 197.578125 111.308594 183.5625 C 111.265625 182.65625 111.21875 181.789062 111.171875 180.960938 C 111.15625 180.683594 111.140625 180.414062 111.121094 180.148438 C 111.152344 180.066406 111.1875 179.984375 111.230469 179.902344 C 111.238281 179.878906 111.246094 179.859375 111.257812 179.835938 C 111.273438 179.808594 111.289062 179.78125 111.304688 179.757812 C 111.3125 179.742188 111.328125 179.726562 111.335938 179.710938 C 111.339844 179.695312 111.347656 179.683594 111.355469 179.667969 C 111.398438 179.605469 111.441406 179.539062 111.492188 179.476562 C 111.511719 179.449219 111.53125 179.429688 111.550781 179.40625 C 111.566406 179.382812 111.585938 179.363281 111.605469 179.34375 C 111.621094 179.324219 111.636719 179.304688 111.65625 179.285156 C 111.671875 179.269531 111.691406 179.246094 111.710938 179.222656 C 111.722656 179.210938 111.734375 179.199219 111.746094 179.1875 C 111.78125 179.148438 111.820312 179.109375 111.863281 179.078125 C 112.019531 178.933594 112.191406 178.796875 112.367188 178.679688 C 112.429688 178.636719 112.496094 178.597656 112.558594 178.554688 C 113.007812 178.285156 113.476562 178.058594 113.964844 177.878906 C 114.132812 177.816406 114.300781 177.757812 114.484375 177.695312 C 114.550781 177.679688 114.613281 177.65625 114.679688 177.632812 C 114.777344 177.601562 114.875 177.570312 114.976562 177.550781 C 115.480469 177.398438 116.027344 177.269531 116.617188 177.148438 C 116.6875 177.136719 116.761719 177.125 116.839844 177.105469 C 116.945312 177.082031 117.054688 177.066406 117.167969 177.046875 C 117.316406 177.023438 117.472656 176.996094 117.628906 176.96875 C 118.945312 176.757812 120.4375 176.605469 122.089844 176.5 C 122.246094 176.492188 122.398438 176.484375 122.554688 176.476562 C 122.738281 176.464844 122.917969 176.457031 123.105469 176.449219 C 123.257812 176.441406 123.417969 176.433594 123.578125 176.429688 C 123.734375 176.421875 123.894531 176.417969 124.058594 176.414062 C 124.503906 176.398438 124.96875 176.386719 125.4375 176.378906 C 126.777344 176.351562 128.1875 176.359375 129.667969 176.390625 C 130.355469 176.410156 131.054688 176.425781 131.773438 176.457031 C 131.824219 176.457031 131.867188 176.460938 131.910156 176.460938 C 132.535156 176.484375 133.167969 176.511719 133.8125 176.546875 C 134.265625 176.570312 134.722656 176.589844 135.179688 176.617188 C 135.609375 176.644531 136.042969 176.671875 136.484375 176.703125 C 136.824219 176.71875 137.167969 176.746094 137.511719 176.769531 C 137.804688 176.789062 138.097656 176.8125 138.390625 176.832031 L 138.789062 176.855469 C 139.007812 176.875 139.222656 176.886719 139.445312 176.910156 C 139.933594 176.949219 140.421875 176.992188 140.917969 177.03125 C 141.410156 177.074219 141.910156 177.121094 142.414062 177.164062 C 142.914062 177.207031 143.417969 177.257812 143.925781 177.304688 C 143.976562 177.308594 144.027344 177.316406 144.074219 177.320312 C 144.535156 177.367188 144.996094 177.414062 145.464844 177.460938 C 145.570312 177.46875 145.679688 177.480469 145.789062 177.492188 C 146.230469 177.535156 146.683594 177.589844 147.132812 177.636719 C 147.269531 177.652344 147.40625 177.667969 147.542969 177.679688 C 147.894531 177.71875 148.242188 177.753906 148.59375 177.792969 C 149.058594 177.847656 149.535156 177.894531 149.996094 177.957031 C 150.355469 178 150.714844 178.039062 151.074219 178.082031 C 151.636719 178.148438 152.207031 178.21875 152.78125 178.296875 C 152.996094 178.324219 153.214844 178.347656 153.433594 178.378906 C 155.0625 178.585938 156.714844 178.8125 158.390625 179.046875 C 160.929688 179.40625 163.511719 179.796875 166.109375 180.21875 C 168.714844 180.640625 171.332031 181.085938 173.964844 181.554688 C 174.628906 181.675781 175.292969 181.796875 175.964844 181.917969 C 176.265625 181.976562 176.566406 182.035156 176.867188 182.09375 C 177.382812 182.1875 177.898438 182.285156 178.414062 182.382812 C 178.925781 182.480469 179.441406 182.578125 179.957031 182.679688 C 180.566406 182.796875 181.183594 182.917969 181.796875 183.039062 C 185.828125 183.835938 189.835938 184.691406 193.746094 185.582031 C 194.390625 185.730469 195.03125 185.878906 195.671875 186.027344 C 196.949219 186.324219 198.214844 186.625 199.46875 186.933594 C 199.8125 187.011719 200.15625 187.097656 200.496094 187.179688 C 201.347656 187.394531 202.199219 187.609375 203.039062 187.824219 L 203.183594 187.867188 C 203.800781 188.015625 204.402344 188.171875 205.007812 188.332031 C 206.429688 188.703125 207.828125 189.082031 209.207031 189.464844 C 210.121094 189.71875 211.023438 189.972656 211.914062 190.230469 C 213.25 190.617188 214.558594 191.007812 215.832031 191.40625 C 216.144531 191.503906 216.460938 191.601562 216.769531 191.691406 C 217.703125 191.980469 218.621094 192.273438 219.511719 192.566406 C 220.222656 192.796875 220.914062 193.035156 221.597656 193.269531 C 222.277344 193.503906 222.949219 193.738281 223.605469 193.976562 C 224.027344 194.125 224.441406 194.285156 224.859375 194.4375 C 225.457031 194.660156 226.046875 194.882812 226.625 195.101562 C 226.800781 195.171875 226.976562 195.242188 227.148438 195.308594 C 227.257812 195.355469 227.367188 195.398438 227.472656 195.441406 C 227.679688 195.523438 227.894531 195.605469 228.097656 195.691406 C 228.304688 195.769531 228.507812 195.855469 228.714844 195.941406 C 228.914062 196.023438 229.117188 196.105469 229.3125 196.191406 C 229.511719 196.269531 229.707031 196.355469 229.902344 196.445312 C 230.066406 196.511719 230.226562 196.582031 230.382812 196.652344 C 230.695312 196.789062 231.011719 196.929688 231.316406 197.070312 C 231.46875 197.140625 231.617188 197.207031 231.769531 197.277344 L 232.113281 197.4375 C 232.164062 197.464844 232.210938 197.488281 232.261719 197.511719 C 232.371094 197.5625 232.488281 197.621094 232.597656 197.675781 C 232.855469 197.792969 233.109375 197.921875 233.355469 198.042969 C 233.6875 198.210938 234.011719 198.378906 234.324219 198.542969 C 234.636719 198.714844 234.945312 198.882812 235.238281 199.046875 C 235.285156 199.074219 235.328125 199.101562 235.378906 199.125 C 235.445312 199.160156 235.511719 199.203125 235.578125 199.238281 C 235.804688 199.367188 236.023438 199.5 236.238281 199.628906 C 236.664062 199.890625 237.066406 200.148438 237.445312 200.40625 C 237.53125 200.464844 237.609375 200.519531 237.695312 200.574219 C 237.972656 200.773438 238.238281 200.96875 238.488281 201.167969 C 238.488281 201.171875 238.488281 201.171875 238.492188 201.171875 C 238.574219 201.234375 238.65625 201.300781 238.734375 201.363281 C 238.800781 201.425781 238.875 201.480469 238.941406 201.542969 C 239.171875 201.742188 239.382812 201.933594 239.578125 202.128906 C 239.644531 202.1875 239.707031 202.253906 239.765625 202.320312 C 239.789062 202.339844 239.8125 202.363281 239.835938 202.390625 C 239.925781 202.480469 240.003906 202.566406 240.078125 202.65625 C 240.089844 202.667969 240.101562 202.683594 240.109375 202.695312 C 240.214844 202.820312 240.3125 202.945312 240.40625 203.070312 C 240.453125 203.132812 240.5 203.195312 240.539062 203.257812 C 240.59375 203.332031 240.648438 203.410156 240.691406 203.488281 C 240.730469 203.550781 240.765625 203.617188 240.800781 203.679688 C 240.894531 203.839844 240.976562 204.007812 241.042969 204.179688 C 241.089844 204.296875 241.132812 204.417969 241.160156 204.542969 C 241.195312 204.660156 241.21875 204.78125 241.238281 204.902344 Z M 241.238281 204.902344 "/>
<use xlink:href="#surface5" mask="url(#mask0)"/>
</g>
</svg>
