<?xml version="1.0" encoding="UTF-8"?>
<svg xmlns="http://www.w3.org/2000/svg" xmlns:xlink="http://www.w3.org/1999/xlink" width="350px" height="215px" viewBox="0 0 350 215" version="1.1">
<defs>
<filter id="alpha" filterUnits="objectBoundingBox" x="0%" y="0%" width="100%" height="100%">
  <feColorMatrix type="matrix" in="SourceGraphic" values="0 0 0 0 1 0 0 0 0 1 0 0 0 0 1 0 0 0 1 0"/>
</filter>
<mask id="mask0">
  <g filter="url(#alpha)">
<rect x="0" y="0" width="350" height="215" style="fill:rgb(0%,0%,0%);fill-opacity:0.4;stroke:none;"/>
  </g>
</mask>
<clipPath id="clip1">
  <rect x="0" y="0" width="350" height="215"/>
</clipPath>
<g id="surface5" clip-path="url(#clip1)">
<path style=" stroke:none;fill-rule:nonzero;fill:rgb(97.254902%,69.019608%,4.705882%);fill-opacity:1;" d="M 303.722656 75.757812 C 303.722656 79.542969 299.96875 82.609375 295.339844 82.609375 C 290.707031 82.609375 286.953125 79.542969 286.953125 75.757812 C 286.953125 71.976562 290.707031 68.90625 295.339844 68.90625 C 299.96875 68.90625 303.722656 71.976562 303.722656 75.757812 Z M 303.722656 75.757812 "/>
</g>
<mask id="mask1">
  <g filter="url(#alpha)">
<rect x="0" y="0" width="350" height="215" style="fill:rgb(0%,0%,0%);fill-opacity:0.4;stroke:none;"/>
  </g>
</mask>
<clipPath id="clip2">
  <rect x="0" y="0" width="350" height="215"/>
</clipPath>
<g id="surface8" clip-path="url(#clip2)">
<path style=" stroke:none;fill-rule:nonzero;fill:rgb(97.254902%,69.019608%,4.705882%);fill-opacity:1;" d="M 130.503906 35.15625 C 130.503906 40.550781 125.152344 44.921875 118.550781 44.921875 C 111.949219 44.921875 106.601562 40.550781 106.601562 35.15625 C 106.601562 29.761719 111.949219 25.390625 118.550781 25.390625 C 125.152344 25.390625 130.503906 29.761719 130.503906 35.15625 Z M 130.503906 35.15625 "/>
</g>
<mask id="mask2">
  <g filter="url(#alpha)">
<rect x="0" y="0" width="350" height="215" style="fill:rgb(0%,0%,0%);fill-opacity:0.4;stroke:none;"/>
  </g>
</mask>
<clipPath id="clip3">
  <rect x="0" y="0" width="350" height="215"/>
</clipPath>
<g id="surface11" clip-path="url(#clip3)">
<path style=" stroke:none;fill-rule:nonzero;fill:rgb(97.254902%,69.019608%,4.705882%);fill-opacity:1;" d="M 104.816406 39.820312 C 104.816406 43.605469 101.0625 46.671875 96.429688 46.671875 C 91.800781 46.671875 88.046875 43.605469 88.046875 39.820312 C 88.046875 36.039062 91.800781 32.96875 96.429688 32.96875 C 101.0625 32.96875 104.816406 36.039062 104.816406 39.820312 Z M 104.816406 39.820312 "/>
</g>
<mask id="mask3">
  <g filter="url(#alpha)">
<rect x="0" y="0" width="350" height="215" style="fill:rgb(0%,0%,0%);fill-opacity:0.101961;stroke:none;"/>
  </g>
</mask>
<clipPath id="clip4">
  <rect x="0" y="0" width="350" height="215"/>
</clipPath>
<g id="surface14" clip-path="url(#clip4)">
<path style=" stroke:none;fill-rule:nonzero;fill:rgb(0%,0%,0%);fill-opacity:1;" d="M 297.5 72.992188 L 297.5 73.371094 L 283.78125 80.871094 L 259.285156 94.257812 L 63.78125 94.257812 L 120.828125 72.992188 Z M 297.5 72.992188 "/>
</g>
<mask id="mask4">
  <g filter="url(#alpha)">
<rect x="0" y="0" width="350" height="215" style="fill:rgb(0%,0%,0%);fill-opacity:0.101961;stroke:none;"/>
  </g>
</mask>
<clipPath id="clip5">
  <rect x="0" y="0" width="350" height="215"/>
</clipPath>
<g id="surface17" clip-path="url(#clip5)">
<path style=" stroke:none;fill-rule:nonzero;fill:rgb(0%,0%,0%);fill-opacity:1;" d="M 297.5 72.992188 L 297.5 166.652344 L 259.285156 192.441406 L 259.5625 94.035156 L 283.78125 80.871094 L 297.277344 72.992188 Z M 297.5 72.992188 "/>
</g>
<mask id="mask5">
  <g filter="url(#alpha)">
<rect x="0" y="0" width="350" height="215" style="fill:rgb(0%,0%,0%);fill-opacity:0.101961;stroke:none;"/>
  </g>
</mask>
<clipPath id="clip6">
  <rect x="0" y="0" width="350" height="215"/>
</clipPath>
<g id="surface20" clip-path="url(#clip6)">
<path style=" stroke:none;fill-rule:nonzero;fill:rgb(0%,0%,0%);fill-opacity:1;" d="M 346.871094 151.078125 C 346.871094 151.078125 346.242188 156.90625 346.242188 157.417969 C 346.242188 157.933594 346.871094 165.992188 346.242188 166.335938 C 345.613281 166.675781 346.664062 169.078125 346.664062 169.933594 C 346.664062 170.792969 350.019531 185.023438 349.179688 190.507812 C 348.339844 195.996094 350.441406 195.480469 349.808594 195.996094 C 349.179688 196.507812 349.179688 196.507812 349.179688 197.539062 C 349.179688 198.566406 342.464844 199.421875 342.464844 199.421875 L 335.121094 161.535156 L 338.898438 150.21875 Z M 346.871094 151.078125 "/>
</g>
<mask id="mask6">
  <g filter="url(#alpha)">
<rect x="0" y="0" width="350" height="215" style="fill:rgb(0%,0%,0%);fill-opacity:0.101961;stroke:none;"/>
  </g>
</mask>
<clipPath id="clip7">
  <rect x="0" y="0" width="350" height="215"/>
</clipPath>
<g id="surface23" clip-path="url(#clip7)">
<path style=" stroke:none;fill-rule:nonzero;fill:rgb(0%,0%,0%);fill-opacity:1;" d="M 330.503906 112.671875 C 330.503906 112.671875 337.640625 112.332031 338.269531 120.902344 C 338.898438 129.476562 338.6875 137.53125 338.6875 137.703125 C 338.6875 137.875 335.75 154.164062 333.023438 154.164062 C 330.292969 154.164062 328.195312 153.820312 327.566406 152.960938 C 326.9375 152.105469 329.246094 139.761719 329.246094 139.761719 C 329.246094 139.761719 330.292969 126.730469 328.613281 122.617188 C 326.9375 118.503906 326.726562 113.1875 330.503906 112.671875 Z M 330.503906 112.671875 "/>
</g>
<mask id="mask7">
  <g filter="url(#alpha)">
<rect x="0" y="0" width="350" height="215" style="fill:rgb(0%,0%,0%);fill-opacity:0.101961;stroke:none;"/>
  </g>
</mask>
<clipPath id="clip8">
  <rect x="0" y="0" width="350" height="215"/>
</clipPath>
<g id="surface26" clip-path="url(#clip8)">
<path style=" stroke:none;fill-rule:nonzero;fill:rgb(0%,0%,0%);fill-opacity:1;" d="M 242.40625 33.515625 L 240.78125 39.046875 C 242.421875 39.09375 244.59375 39.117188 246.894531 39.082031 C 247.476562 37.660156 248.027344 36.175781 248.453125 34.789062 C 250.007812 29.707031 247.417969 21.945312 246.035156 18.273438 C 244.652344 14.605469 241.199219 13.617188 241.199219 13.617188 C 239.78125 14.023438 238.445312 14.59375 237.226562 15.3125 C 234.980469 16.582031 242.40625 33.515625 242.40625 33.515625 Z M 242.40625 33.515625 "/>
</g>
<mask id="mask8">
  <g filter="url(#alpha)">
<rect x="0" y="0" width="350" height="215" style="fill:rgb(0%,0%,0%);fill-opacity:0.101961;stroke:none;"/>
  </g>
</mask>
<clipPath id="clip9">
  <rect x="0" y="0" width="350" height="215"/>
</clipPath>
<g id="surface29" clip-path="url(#clip9)">
<path style=" stroke:none;fill-rule:nonzero;fill:rgb(0%,0%,0%);fill-opacity:1;" d="M 241.027344 33.234375 L 239.332031 38.988281 C 239.746094 39.007812 240.234375 39.027344 240.78125 39.046875 C 242.058594 39.082031 243.660156 39.105469 245.390625 39.097656 C 246.015625 37.585938 246.617188 35.988281 247.070312 34.503906 C 248.625 29.425781 246.035156 21.660156 244.652344 17.992188 C 243.273438 14.324219 240.25 18.34375 240.25 18.34375 C 240.25 18.34375 241.457031 15.945312 239.210938 17.214844 C 236.964844 18.488281 241.027344 33.234375 241.027344 33.234375 Z M 241.027344 33.234375 "/>
</g>
</defs>
<g id="surface1">
<use xlink:href="#surface5" mask="url(#mask0)"/>
<use xlink:href="#surface8" mask="url(#mask1)"/>
<use xlink:href="#surface11" mask="url(#mask2)"/>
<path style=" stroke:none;fill-rule:nonzero;fill:rgb(24.705882%,23.921569%,33.72549%);fill-opacity:1;" d="M 302.359375 152.359375 C 295.734375 158.285156 295.496094 166.917969 295.496094 166.917969 C 295.496094 166.917969 305.996094 165.941406 312.621094 160.015625 C 319.246094 154.089844 319.488281 145.457031 319.488281 145.457031 C 319.488281 145.457031 308.984375 146.433594 302.359375 152.359375 Z M 302.359375 152.359375 "/>
<path style=" stroke:none;fill-rule:nonzero;fill:rgb(97.254902%,69.019608%,4.705882%);fill-opacity:1;" d="M 306.101562 154.0625 C 304.097656 161.921875 295.671875 167.132812 295.671875 167.132812 C 295.671875 167.132812 290.496094 159.605469 292.5 151.746094 C 294.503906 143.890625 302.929688 138.679688 302.929688 138.679688 C 302.929688 138.679688 308.109375 146.207031 306.101562 154.0625 Z M 306.101562 154.0625 "/>
<path style=" stroke:none;fill-rule:nonzero;fill:rgb(24.705882%,23.921569%,33.72549%);fill-opacity:1;" d="M 297.5 72.992188 L 297.5 166.652344 L 259.285156 192.441406 L 63.78125 192.441406 L 63.78125 94.257812 L 120.828125 72.992188 Z M 297.5 72.992188 "/>
<use xlink:href="#surface14" mask="url(#mask3)"/>
<use xlink:href="#surface17" mask="url(#mask4)"/>
<path style=" stroke:none;fill-rule:nonzero;fill:rgb(18.431373%,18.039216%,25.490196%);fill-opacity:1;" d="M 245.992188 85.890625 L 126.917969 85.890625 L 135.78125 81.816406 L 249.871094 81.816406 Z M 245.992188 85.890625 "/>
<path style=" stroke:none;fill-rule:nonzero;fill:rgb(18.431373%,18.039216%,25.490196%);fill-opacity:1;" d="M 348.761719 197.539062 C 348.761719 197.539062 351.070312 205.421875 348.972656 205.765625 C 346.871094 206.109375 336.589844 206 334.070312 206.339844 C 331.554688 206.683594 326.304688 206.109375 326.304688 204.566406 C 326.304688 203.023438 331.761719 201.996094 331.761719 201.996094 C 331.761719 201.996094 339.527344 198.566406 339.738281 198.394531 C 339.945312 198.222656 348.761719 197.539062 348.761719 197.539062 Z M 348.761719 197.539062 "/>
<path style=" stroke:none;fill-rule:nonzero;fill:rgb(34.117647%,35.294118%,53.72549%);fill-opacity:1;" d="M 346.871094 151.078125 C 346.871094 151.078125 346.242188 156.90625 346.242188 157.417969 C 346.242188 157.933594 346.871094 165.992188 346.242188 166.335938 C 345.613281 166.675781 346.664062 169.078125 346.664062 169.933594 C 346.664062 170.792969 350.019531 185.023438 349.179688 190.507812 C 348.339844 195.996094 350.441406 195.480469 349.808594 195.996094 C 349.179688 196.507812 349.179688 196.507812 349.179688 197.539062 C 349.179688 198.566406 342.464844 199.421875 342.464844 199.421875 L 335.121094 161.535156 L 338.898438 150.21875 Z M 346.871094 151.078125 "/>
<use xlink:href="#surface20" mask="url(#mask5)"/>
<path style=" stroke:none;fill-rule:nonzero;fill:rgb(18.431373%,18.039216%,25.490196%);fill-opacity:1;" d="M 345.824219 199.9375 C 345.824219 199.9375 347.921875 206.109375 345.824219 206.453125 C 343.722656 206.796875 333.441406 206.058594 330.921875 206.402344 C 328.40625 206.746094 323.160156 206.796875 323.160156 205.253906 C 323.160156 203.710938 328.613281 202.679688 328.613281 202.679688 C 328.613281 202.679688 336.378906 199.25 336.589844 199.082031 C 336.800781 198.910156 345.824219 199.9375 345.824219 199.9375 Z M 345.824219 199.9375 "/>
<path style=" stroke:none;fill-rule:nonzero;fill:rgb(34.117647%,35.294118%,53.72549%);fill-opacity:1;" d="M 348.761719 144.21875 C 348.761719 144.21875 351.277344 149.191406 348.339844 151.761719 C 345.402344 154.332031 342.046875 159.476562 342.046875 159.820312 C 342.046875 160.164062 347.921875 194.28125 347.082031 196.507812 C 346.242188 198.738281 346.453125 200.109375 346.664062 200.453125 C 346.871094 200.792969 344.5625 202.679688 342.046875 202.679688 C 339.527344 202.679688 335.75 201.136719 335.332031 199.765625 C 334.910156 198.394531 335.960938 186.566406 335.75 184.335938 C 335.539062 182.109375 334.492188 178.851562 334.070312 178.164062 C 333.652344 177.480469 331.34375 176.792969 330.921875 174.734375 C 330.503906 172.679688 327.144531 146.449219 328.195312 145.589844 C 329.246094 144.734375 348.761719 144.21875 348.761719 144.21875 Z M 348.761719 144.21875 "/>
<path style=" stroke:none;fill-rule:nonzero;fill:rgb(100%,72.54902%,72.54902%);fill-opacity:1;" d="M 339.945312 98.957031 C 339.945312 102.175781 336.753906 104.785156 332.8125 104.785156 C 328.871094 104.785156 325.675781 102.175781 325.675781 98.957031 C 325.675781 95.738281 328.871094 93.128906 332.8125 93.128906 C 336.753906 93.128906 339.945312 95.738281 339.945312 98.957031 Z M 339.945312 98.957031 "/>
<path style=" stroke:none;fill-rule:nonzero;fill:rgb(100%,72.54902%,72.54902%);fill-opacity:1;" d="M 337.21875 101.871094 C 337.21875 101.871094 335.75 108.214844 336.800781 108.902344 C 337.847656 109.585938 328.824219 110.617188 328.824219 110.617188 C 328.824219 110.617188 327.777344 102.214844 327.566406 101.359375 C 327.355469 100.5 337.21875 101.871094 337.21875 101.871094 Z M 337.21875 101.871094 "/>
<path style=" stroke:none;fill-rule:nonzero;fill:rgb(97.254902%,69.019608%,4.705882%);fill-opacity:1;" d="M 327.566406 110.101562 C 327.566406 110.101562 330.082031 104.101562 340.367188 105.816406 C 340.367188 105.816406 342.253906 106.328125 341.625 106.84375 C 340.996094 107.359375 340.367188 107.359375 341.207031 107.871094 C 342.046875 108.386719 343.09375 107.871094 342.464844 108.386719 C 341.835938 108.902344 348.132812 111.988281 347.710938 117.816406 C 347.292969 123.644531 349.179688 131.875 347.710938 133.246094 C 346.242188 134.617188 348.761719 140.617188 348.339844 141.820312 C 347.921875 143.019531 350.859375 144.5625 349.601562 145.074219 C 348.339844 145.589844 325.675781 148.675781 325.046875 145.074219 C 324.417969 141.476562 324.835938 144.046875 324.207031 143.191406 C 323.578125 142.332031 323.367188 140.789062 323.789062 138.902344 C 324.207031 137.019531 325.257812 132.390625 324.835938 130.675781 C 324.417969 128.960938 324.835938 114.558594 326.097656 112.84375 C 327.355469 111.128906 327.566406 110.101562 327.566406 110.101562 Z M 327.566406 110.101562 "/>
<path style=" stroke:none;fill-rule:nonzero;fill:rgb(100%,72.54902%,72.54902%);fill-opacity:1;" d="M 331.972656 151.933594 C 331.972656 151.933594 335.121094 161.707031 331.132812 161.707031 C 327.144531 161.707031 327.355469 151.589844 327.355469 151.589844 Z M 331.972656 151.933594 "/>
<path style=" stroke:none;fill-rule:nonzero;fill:rgb(18.431373%,18.039216%,25.490196%);fill-opacity:1;" d="M 329.664062 98.957031 C 329.664062 99.457031 330.546875 99.769531 331.910156 99.84375 L 331.914062 99.84375 C 332.492188 99.871094 333.074219 99.859375 333.652344 99.816406 C 334.523438 99.75 334.886719 100.421875 335.035156 101.304688 C 335.277344 102.765625 334.9375 104.808594 335.332031 105.128906 C 335.871094 105.570312 339.820312 105.128906 341.054688 104.125 C 341.246094 103.984375 341.375 103.792969 341.417969 103.585938 C 341.546875 102.972656 341.914062 102.414062 342.46875 101.988281 C 343.199219 101.335938 344.234375 100.617188 345.402344 99.472656 C 347.5 97.414062 345.402344 97.242188 344.773438 95.699219 C 344.144531 94.15625 343.09375 93.644531 343.09375 92.613281 C 343.09375 91.585938 338.269531 90.730469 334.28125 90.898438 C 330.292969 91.070312 331.132812 95.1875 331.132812 95.1875 C 331.132812 95.1875 330.894531 95.683594 330.613281 96.324219 C 330.230469 97.128906 329.917969 97.957031 329.679688 98.796875 C 329.671875 98.851562 329.664062 98.902344 329.664062 98.957031 Z M 329.664062 98.957031 "/>
<use xlink:href="#surface23" mask="url(#mask6)"/>
<path style=" stroke:none;fill-rule:nonzero;fill:rgb(97.254902%,69.019608%,4.705882%);fill-opacity:1;" d="M 329.453125 111.816406 C 329.453125 111.816406 336.589844 111.472656 337.21875 120.046875 C 337.847656 128.617188 337.640625 136.675781 337.640625 136.847656 C 337.640625 137.019531 334.699219 153.304688 331.972656 153.304688 C 329.246094 153.304688 327.144531 152.960938 326.515625 152.105469 C 325.886719 151.246094 328.195312 138.902344 328.195312 138.902344 C 328.195312 138.902344 329.246094 125.875 327.566406 121.761719 C 325.886719 117.644531 325.675781 112.332031 329.453125 111.816406 Z M 329.453125 111.816406 "/>
<path style=" stroke:none;fill-rule:nonzero;fill:rgb(62.745098%,38.039216%,41.568627%);fill-opacity:1;" d="M 211.140625 28.011719 C 211.140625 28.011719 208.03125 20.816406 205.785156 23.074219 C 203.539062 25.332031 209.238281 29.140625 209.238281 29.140625 Z M 211.140625 28.011719 "/>
<path style=" stroke:none;fill-rule:nonzero;fill:rgb(34.117647%,35.294118%,53.72549%);fill-opacity:1;" d="M 225.824219 20.957031 L 223.953125 21.523438 C 223.953125 21.523438 223.058594 24.765625 223.40625 25.332031 C 223.75 25.894531 223.921875 25.472656 223.40625 26.601562 C 222.886719 27.730469 221.332031 30.695312 221.160156 31.117188 C 220.988281 31.542969 211.140625 28.4375 211.140625 26.882812 C 211.140625 26.882812 209.066406 28.859375 208.03125 29.28125 C 208.03125 29.28125 219.433594 36.058594 220.988281 36.902344 C 222.542969 37.75 223.40625 37.328125 224.789062 36.339844 C 226.167969 35.351562 232.042969 27.167969 232.042969 27.167969 Z M 225.824219 20.957031 "/>
<path style=" stroke:none;fill-rule:nonzero;fill:rgb(18.431373%,18.039216%,25.490196%);fill-opacity:1;" d="M 220.8125 71.058594 C 220.8125 71.058594 220.988281 72.609375 221.332031 72.75 C 221.679688 72.890625 224.269531 76.421875 221.332031 77.125 C 218.394531 77.832031 216.667969 77.550781 215.976562 77.832031 C 215.285156 78.113281 203.195312 78.679688 203.019531 77.125 C 202.847656 75.574219 208.894531 75.292969 208.894531 75.292969 C 208.894531 75.292969 214.421875 72.328125 215.285156 70.773438 C 216.148438 69.222656 220.8125 71.058594 220.8125 71.058594 Z M 220.8125 71.058594 "/>
<path style=" stroke:none;fill-rule:nonzero;fill:rgb(18.431373%,18.039216%,25.490196%);fill-opacity:1;" d="M 255.882812 73.878906 C 255.882812 73.878906 260.027344 79.667969 258.992188 80.371094 C 257.957031 81.078125 247.859375 83.648438 246.382812 83.757812 C 244.480469 83.898438 243.097656 82.628906 244.652344 81.925781 C 246.207031 81.21875 249.492188 78.253906 249.492188 77.265625 L 249.492188 74.726562 Z M 255.882812 73.878906 "/>
<path style=" stroke:none;fill-rule:nonzero;fill:rgb(18.431373%,18.039216%,25.490196%);fill-opacity:1;" d="M 259.855469 36.058594 C 259.855469 36.058594 263.484375 39.726562 257.78125 45.652344 L 248.28125 55.53125 C 248.28125 55.53125 254.15625 63.152344 254.328125 67.105469 C 254.5 71.058594 255.710938 70.210938 256.054688 71.902344 C 256.402344 73.597656 257.957031 72.75 256.746094 74.019531 C 255.535156 75.292969 251.046875 76.421875 249.664062 75.433594 C 248.699219 74.710938 248.191406 73.671875 248.28125 72.609375 C 248.28125 72.046875 245.863281 68.800781 245.691406 67.8125 C 245.515625 66.824219 239.125 58.777344 239.125 58.777344 C 239.125 58.777344 237.050781 53.980469 239.472656 51.300781 C 241.890625 48.617188 243.488281 44.816406 243.488281 44.816406 C 243.488281 44.816406 236.363281 51.863281 231.351562 53.558594 C 231.351562 53.558594 229.453125 53.839844 229.796875 54.546875 C 230.144531 55.25 229.796875 55.675781 229.277344 56.378906 C 228.761719 57.085938 225.132812 65.269531 223.925781 67.386719 C 222.714844 69.503906 223.234375 70.773438 221.851562 71.480469 C 220.46875 72.1875 214.25 71.621094 214.25 70.917969 C 214.25 70.210938 215.113281 68.375 215.632812 67.386719 C 216.148438 66.398438 220.296875 54.96875 219.949219 52.992188 C 219.605469 51.015625 220.125 48.335938 222.714844 47.207031 C 225.304688 46.078125 238.433594 36.902344 239.125 36.902344 C 239.816406 36.902344 259.855469 36.058594 259.855469 36.058594 Z M 259.855469 36.058594 "/>
<path style=" stroke:none;fill-rule:nonzero;fill:rgb(62.745098%,38.039216%,41.568627%);fill-opacity:1;" d="M 232.386719 7.972656 C 232.386719 11.246094 229.140625 13.898438 225.132812 13.898438 C 221.125 13.898438 217.878906 11.246094 217.878906 7.972656 C 217.878906 4.699219 221.125 2.046875 225.132812 2.046875 C 229.140625 2.046875 232.386719 4.699219 232.386719 7.972656 Z M 232.386719 7.972656 "/>
<path style=" stroke:none;fill-rule:nonzero;fill:rgb(62.745098%,38.039216%,41.568627%);fill-opacity:1;" d="M 231.007812 8.535156 C 231.007812 8.535156 233.253906 11.78125 236.015625 12.207031 C 238.78125 12.628906 228.761719 19.121094 228.761719 19.121094 C 228.761719 19.121094 226.34375 12.910156 224.269531 12.628906 C 222.195312 12.347656 231.007812 8.535156 231.007812 8.535156 Z M 231.007812 8.535156 "/>
<path style=" stroke:none;fill-rule:nonzero;fill:rgb(34.117647%,35.294118%,53.72549%);fill-opacity:1;" d="M 223.925781 21.804688 C 223.925781 23.636719 230.660156 28.859375 230.660156 28.859375 L 237.050781 33.234375 C 237.050781 33.234375 237.226562 34.789062 237.917969 34.929688 C 238.609375 35.070312 239.472656 35.070312 238.78125 35.917969 C 238.089844 36.761719 236.363281 38.597656 237.917969 38.878906 C 238.386719 38.9375 238.859375 38.976562 239.332031 38.988281 C 239.746094 39.007812 240.234375 39.027344 240.78125 39.046875 C 242.058594 39.082031 243.660156 39.105469 245.390625 39.097656 C 245.882812 39.09375 246.382812 39.089844 246.894531 39.082031 C 253.425781 38.976562 260.992188 38.363281 260.375 36.339844 C 259.335938 32.953125 260.027344 31.824219 257.78125 29.988281 C 255.535156 28.152344 251.910156 21.804688 251.910156 21.804688 C 251.910156 21.804688 244.652344 11.78125 238.609375 11.78125 L 237.351562 11.511719 C 236.15625 11.257812 234.890625 11.652344 234.210938 12.5 C 233 14.007812 231.085938 16.273438 229.96875 17.003906 C 228.242188 18.132812 227.972656 17.324219 227.972656 17.324219 C 227.972656 17.324219 223.925781 19.96875 223.925781 21.804688 Z M 223.925781 21.804688 "/>
<path style=" stroke:none;fill-rule:nonzero;fill:rgb(62.745098%,38.039216%,41.568627%);fill-opacity:1;" d="M 239.296875 43.253906 C 239.296875 43.253906 234.289062 49.605469 237.398438 50.734375 C 240.507812 51.863281 242.234375 44.101562 242.234375 44.101562 Z M 239.296875 43.253906 "/>
<path style=" stroke:none;fill-rule:nonzero;fill:rgb(18.431373%,18.039216%,25.490196%);fill-opacity:1;" d="M 229.875 7.304688 C 229.597656 7.273438 229.507812 6.988281 229.460938 6.761719 C 229.210938 5.550781 228.109375 4.402344 226.625 4.207031 C 226.054688 4.144531 225.480469 4.183594 224.933594 4.320312 C 224.148438 4.496094 223.410156 4.789062 222.761719 5.191406 C 222.445312 5.429688 222.078125 5.617188 221.675781 5.746094 C 221.40625 5.8125 220.25 6.234375 219.980469 6.304688 C 219.386719 6.460938 218.894531 6.96875 218.28125 6.867188 C 217.695312 6.769531 217.472656 6.195312 217.378906 5.710938 C 217.167969 4.617188 217.933594 2.980469 218.699219 2.058594 C 219.277344 1.363281 220.261719 0.960938 221.242188 0.699219 C 222.390625 0.414062 223.570312 0.222656 224.765625 0.128906 C 226.378906 -0.0273438 228.050781 -0.109375 229.597656 0.296875 C 231.144531 0.703125 232.554688 1.703125 232.84375 3.007812 C 232.902344 3.28125 232.914062 3.558594 232.988281 3.828125 C 233.167969 4.488281 233.699219 5.039062 234.011719 5.664062 C 234.464844 6.59375 234.417969 7.636719 233.878906 8.535156 C 233.449219 9.242188 232.699219 9.921875 232.863281 10.699219 L 231.527344 9.839844 C 231.132812 9.65625 230.945312 9.269531 231.082031 8.914062 L 231.277344 7.550781 C 231.34375 7.304688 231.3125 7.046875 231.191406 6.816406 C 230.597656 5.96875 230.339844 7.351562 229.875 7.304688 Z M 229.875 7.304688 "/>
<use xlink:href="#surface26" mask="url(#mask7)"/>
<use xlink:href="#surface29" mask="url(#mask8)"/>
<path style=" stroke:none;fill-rule:nonzero;fill:rgb(34.117647%,35.294118%,53.72549%);fill-opacity:1;" d="M 240.507812 13.335938 C 240.507812 13.335938 243.960938 14.324219 245.34375 17.992188 C 246.726562 21.660156 249.316406 29.425781 247.761719 34.503906 C 246.207031 39.585938 242.925781 45.9375 242.925781 45.9375 C 242.925781 45.9375 239.644531 43.960938 238.433594 44.382812 L 241.71875 33.234375 C 241.71875 33.234375 234.289062 16.300781 236.535156 15.027344 C 237.753906 14.3125 239.089844 13.742188 240.507812 13.335938 Z M 240.507812 13.335938 "/>
<path style=" stroke:none;fill-rule:nonzero;fill:rgb(94.901961%,94.901961%,94.901961%);fill-opacity:1;" d="M 243.082031 84.125 L 195.289062 2.757812 L 115.375 34.089844 L 144.765625 84.125 Z M 243.082031 84.125 "/>
<path style=" stroke:none;fill-rule:nonzero;fill:rgb(24.705882%,23.921569%,33.72549%);fill-opacity:1;" d="M 136.667969 51.335938 L 179.117188 34.695312 L 180.378906 36.847656 L 137.933594 53.488281 Z M 136.667969 51.335938 "/>
<path style=" stroke:none;fill-rule:nonzero;fill:rgb(24.705882%,23.921569%,33.72549%);fill-opacity:1;" d="M 147.90625 70.46875 L 190.351562 53.828125 L 191.617188 55.980469 L 149.171875 72.621094 Z M 147.90625 70.46875 "/>
<path style=" stroke:none;fill-rule:nonzero;fill:rgb(24.705882%,23.921569%,33.72549%);fill-opacity:1;" d="M 187.535156 27.570312 L 198.074219 23.441406 L 203.128906 32.050781 L 192.59375 36.179688 Z M 187.535156 27.570312 "/>
<path style=" stroke:none;fill-rule:nonzero;fill:rgb(24.705882%,23.921569%,33.72549%);fill-opacity:1;" d="M 198.773438 46.703125 L 209.3125 42.570312 L 214.367188 51.179688 L 203.828125 55.3125 Z M 198.773438 46.703125 "/>
<path style=" stroke:none;fill-rule:nonzero;fill:rgb(34.117647%,72.156863%,58.039216%);fill-opacity:1;" d="M 198.800781 17.476562 L 194.460938 27.5625 L 188.609375 25.882812 L 187.808594 27.746094 L 195.929688 30.078125 L 201.078125 18.128906 Z M 198.800781 17.476562 "/>
<path style=" stroke:none;fill-rule:nonzero;fill:rgb(34.117647%,72.156863%,58.039216%);fill-opacity:1;" d="M 210.035156 36.609375 L 205.695312 46.695312 L 199.847656 45.015625 L 199.046875 46.878906 L 207.167969 49.207031 L 212.316406 37.261719 Z M 210.035156 36.609375 "/>
<path style=" stroke:none;fill-rule:nonzero;fill:rgb(94.901961%,94.901961%,94.901961%);fill-opacity:1;" d="M 26.207031 174.003906 L 4.613281 177.773438 L 0 160.132812 L 21.59375 156.363281 Z M 26.207031 174.003906 "/>
<path style=" stroke:none;fill-rule:nonzero;fill:rgb(100%,72.54902%,72.54902%);fill-opacity:1;" d="M 25.605469 151.648438 C 25.605469 151.648438 17.671875 156.277344 20.316406 158.128906 C 22.960938 159.980469 28.25 152.574219 28.25 152.574219 Z M 25.605469 151.648438 "/>
<path style=" stroke:none;fill-rule:nonzero;fill:rgb(100%,72.54902%,72.54902%);fill-opacity:1;" d="M 62.238281 158.746094 C 62.238281 158.746094 60.726562 174.171875 60.351562 176.332031 C 59.972656 178.492188 59.59375 197.929688 58.839844 200.089844 C 58.085938 202.25 57.328125 207.496094 57.328125 207.496094 L 52.796875 207.496094 C 52.796875 207.496094 53.175781 197.929688 52.042969 194.230469 C 50.910156 190.527344 51.285156 180.34375 51.285156 180.34375 C 51.285156 180.34375 49.019531 162.140625 50.152344 159.671875 C 51.285156 157.203125 62.238281 158.746094 62.238281 158.746094 Z M 62.238281 158.746094 "/>
<path style=" stroke:none;fill-rule:nonzero;fill:rgb(18.431373%,18.039216%,25.490196%);fill-opacity:1;" d="M 56.195312 206.570312 C 56.195312 206.570312 58.085938 207.496094 58.085938 208.113281 C 58.085938 208.730469 57.707031 210.273438 58.085938 210.890625 C 58.460938 211.507812 61.105469 213.976562 59.59375 214.59375 C 58.085938 215.210938 51.285156 214.59375 51.285156 214.59375 C 51.285156 214.59375 51.664062 210.273438 52.042969 209.964844 C 52.417969 209.65625 51.664062 206.570312 51.664062 206.570312 Z M 56.195312 206.570312 "/>
<path style=" stroke:none;fill-rule:nonzero;fill:rgb(100%,72.54902%,72.54902%);fill-opacity:1;" d="M 33.367188 158.367188 C 33.367188 158.367188 32.886719 173.839844 32.988281 176.019531 C 33.085938 178.199219 30.960938 197.5625 31.4375 199.777344 C 31.910156 201.988281 31.988281 207.269531 31.988281 207.269531 L 36.496094 207.660156 C 36.496094 207.660156 37.347656 198.113281 38.949219 194.527344 C 40.550781 190.945312 41.484375 180.785156 41.484375 180.785156 C 41.484375 180.785156 46.078125 162.875 45.269531 160.324219 C 44.457031 157.773438 33.367188 158.367188 33.367188 158.367188 Z M 33.367188 158.367188 "/>
<path style=" stroke:none;fill-rule:nonzero;fill:rgb(18.431373%,18.039216%,25.490196%);fill-opacity:1;" d="M 33.234375 206.445312 C 33.234375 206.445312 31.234375 207.207031 31.15625 207.820312 C 31.078125 208.433594 31.253906 210 30.800781 210.582031 C 30.34375 211.160156 27.398438 213.390625 28.820312 214.132812 C 30.246094 214.875 37.085938 214.84375 37.085938 214.84375 C 37.085938 214.84375 37.265625 210.515625 36.929688 210.179688 C 36.59375 209.839844 37.738281 206.835938 37.738281 206.835938 Z M 33.234375 206.445312 "/>
<path style=" stroke:none;fill-rule:nonzero;fill:rgb(18.431373%,18.039216%,25.490196%);fill-opacity:1;" d="M 56.953125 135.605469 C 56.953125 135.605469 59.972656 135.914062 61.105469 141.160156 C 62.238281 146.40625 66.394531 159.671875 62.996094 160.597656 C 59.59375 161.523438 49.398438 163.375 49.019531 162.757812 C 48.644531 162.140625 47.886719 160.597656 47.886719 160.597656 C 47.886719 160.597656 49.019531 163.375 47.511719 163.375 C 46 163.375 31.269531 161.523438 31.648438 160.597656 C 32.023438 159.671875 32.78125 152.882812 32.78125 152.882812 C 32.78125 152.882812 35.046875 141.46875 37.3125 139.617188 C 38.640625 138.574219 39.332031 137.105469 39.199219 135.605469 Z M 56.953125 135.605469 "/>
<path style=" stroke:none;fill-rule:nonzero;fill:rgb(100%,72.54902%,72.54902%);fill-opacity:1;" d="M 62.617188 133.136719 C 62.617188 133.136719 57.707031 132.210938 56.953125 133.445312 C 56.195312 134.679688 58.839844 136.53125 59.972656 136.53125 C 61.105469 136.53125 62.996094 135.605469 62.996094 135.605469 Z M 62.617188 133.136719 "/>
<path style=" stroke:none;fill-rule:nonzero;fill:rgb(100%,72.54902%,72.54902%);fill-opacity:1;" d="M 59.21875 101.355469 C 59.21875 104.425781 56.175781 106.910156 52.417969 106.910156 C 48.664062 106.910156 45.621094 104.425781 45.621094 101.355469 C 45.621094 98.289062 48.664062 95.804688 52.417969 95.804688 C 56.175781 95.804688 59.21875 98.289062 59.21875 101.355469 Z M 59.21875 101.355469 "/>
<path style=" stroke:none;fill-rule:nonzero;fill:rgb(100%,72.54902%,72.54902%);fill-opacity:1;" d="M 51.285156 105.367188 C 51.285156 105.367188 50.152344 109.6875 50.910156 109.6875 C 51.664062 109.6875 45.242188 112.464844 45.242188 112.464844 L 40.335938 111.847656 L 38.824219 109.996094 C 38.824219 109.996094 46.753906 105.675781 46.753906 103.207031 C 46.753906 100.738281 51.285156 105.367188 51.285156 105.367188 Z M 51.285156 105.367188 "/>
<path style=" stroke:none;fill-rule:nonzero;fill:rgb(97.254902%,69.019608%,4.705882%);fill-opacity:1;" d="M 47.886719 109.6875 C 47.886719 109.6875 49.019531 109.070312 49.398438 109.070312 L 52.417969 109.070312 C 52.796875 109.070312 57.707031 109.996094 57.707031 109.996094 L 60.726562 123.878906 C 60.726562 123.878906 55.441406 130.976562 59.21875 136.53125 C 59.21875 136.53125 58.085938 135.914062 52.796875 136.222656 C 47.511719 136.53125 38.066406 137.457031 37.691406 137.457031 C 37.3125 137.457031 37.3125 134.988281 37.691406 134.371094 C 38.066406 133.753906 37.3125 134.0625 37.3125 132.519531 C 37.3125 130.976562 36.179688 128.199219 36.179688 128.199219 L 30.890625 112.464844 C 30.890625 112.464844 37.691406 109.378906 38.824219 109.6875 C 39.957031 109.996094 43.355469 110.921875 44.109375 110.613281 C 44.867188 110.304688 47.886719 109.6875 47.886719 109.6875 Z M 47.886719 109.6875 "/>
<path style=" stroke:none;fill-rule:nonzero;fill:rgb(97.254902%,69.019608%,4.705882%);fill-opacity:1;" d="M 56.574219 110.304688 L 57.707031 109.996094 C 57.707031 109.996094 59.972656 109.6875 62.617188 111.539062 C 65.261719 113.390625 75.078125 118.945312 75.078125 118.945312 C 75.078125 118.945312 78.855469 121.414062 77.722656 124.1875 C 76.589844 126.964844 74.703125 133.753906 69.039062 133.445312 C 69.039062 133.445312 65.636719 137.148438 63.75 136.53125 C 61.863281 135.914062 60.351562 133.445312 61.484375 133.136719 C 62.617188 132.828125 65.636719 129.742188 65.636719 129.742188 L 61.863281 123.878906 L 60.726562 123.878906 L 56.574219 122.03125 Z M 56.574219 110.304688 "/>
<path style=" stroke:none;fill-rule:nonzero;fill:rgb(97.254902%,69.019608%,4.705882%);fill-opacity:1;" d="M 33.914062 112.15625 L 30.890625 112.464844 C 30.890625 112.464844 28.25 113.390625 28.625 117.402344 C 29.003906 121.414062 26.359375 139.617188 27.492188 141.777344 C 27.492188 141.777344 23.714844 152.265625 24.472656 152.574219 C 25.226562 152.882812 29.757812 154.734375 29.382812 153.5 C 29.003906 152.265625 33.535156 143.628906 33.535156 143.628906 C 33.535156 143.628906 38.824219 139 36.558594 132.519531 L 36.558594 127.273438 Z M 33.914062 112.15625 "/>
<path style=" stroke:none;fill-rule:nonzero;fill:rgb(18.431373%,18.039216%,25.490196%);fill-opacity:1;" d="M 58.078125 106.726562 L 53.277344 107.582031 L 52.660156 105.648438 L 52.894531 107.648438 L 45.152344 109.027344 L 44.808594 107.960938 L 44.941406 109.0625 L 39.980469 109.949219 L 38.917969 101.625 C 37.828125 98.210938 41.808594 94.570312 45.992188 93.679688 L 47.84375 93.28125 C 50.914062 92.628906 56.496094 93.222656 57.296875 95.730469 C 55.894531 100.105469 53.503906 104.898438 58.078125 106.726562 Z M 58.078125 106.726562 "/>
</g>
</svg>
