<?xml version="1.0" encoding="UTF-8"?>
<svg xmlns="http://www.w3.org/2000/svg" xmlns:xlink="http://www.w3.org/1999/xlink" width="350px" height="215px" viewBox="0 0 350 215" version="1.1">
<g id="surface1">
<path style=" stroke:none;fill-rule:nonzero;fill:rgb(94.117647%,94.117647%,94.117647%);fill-opacity:1;" d="M 284.941406 21.605469 C 287.175781 14.792969 285.050781 6.851562 277.824219 2.371094 C 277.679688 9.996094 273.929688 17.339844 267.234375 23.101562 C 264.644531 25.316406 261.449219 27.578125 261.324219 30.515625 C 261.246094 32.347656 262.441406 34.101562 264.089844 35.457031 C 265.738281 36.8125 267.816406 37.828125 269.875 38.824219 L 270.175781 39.222656 C 276.789062 34.242188 282.703125 28.417969 284.941406 21.605469 Z M 284.941406 21.605469 "/>
<path style=" stroke:none;fill-rule:nonzero;fill:rgb(100%,100%,100%);fill-opacity:1;" d="M 277.675781 2.46875 C 280.449219 7.894531 280.863281 13.832031 278.855469 19.441406 C 278.453125 20.652344 277.796875 21.8125 276.910156 22.871094 C 276 23.882812 274.746094 24.695312 273.277344 25.222656 C 271.917969 25.738281 270.449219 26.144531 269.28125 26.894531 C 268.089844 27.683594 267.402344 28.816406 267.398438 30.007812 C 267.34375 31.476562 267.996094 32.871094 268.699219 34.214844 C 269.476562 35.710938 270.320312 37.257812 270.140625 38.894531 C 270.117188 39.09375 270.53125 39.105469 270.550781 38.90625 C 270.867188 36.058594 268.273438 33.652344 267.863281 30.890625 C 267.671875 29.597656 268 28.257812 269.277344 27.320312 C 270.390625 26.496094 271.90625 26.074219 273.289062 25.566406 C 274.730469 25.066406 275.992188 24.308594 276.953125 23.363281 C 277.910156 22.339844 278.625 21.203125 279.070312 20 C 280.128906 17.304688 280.613281 14.503906 280.507812 11.695312 C 280.40625 8.488281 279.574219 5.320312 278.042969 2.324219 C 277.949219 2.140625 277.582031 2.285156 277.675781 2.46875 Z M 277.675781 2.46875 "/>
<path style=" stroke:none;fill-rule:nonzero;fill:rgb(100%,100%,100%);fill-opacity:1;" d="M 279.644531 17.664062 C 282.339844 17.917969 284.890625 16.675781 285.664062 14.730469 C 285.738281 14.539062 285.34375 14.441406 285.269531 14.632812 C 284.554688 16.449219 282.171875 17.601562 279.664062 17.355469 C 279.398438 17.328125 279.382812 17.636719 279.644531 17.664062 Z M 279.644531 17.664062 "/>
<path style=" stroke:none;fill-rule:nonzero;fill:rgb(100%,100%,100%);fill-opacity:1;" d="M 274.011719 25.03125 C 272.34375 23.453125 271.53125 21.464844 271.742188 19.464844 C 271.761719 19.265625 271.347656 19.25 271.328125 19.449219 C 271.117188 21.535156 271.964844 23.601562 273.703125 25.242188 C 273.871094 25.394531 274.175781 25.1875 274.011719 25.03125 Z M 274.011719 25.03125 "/>
<path style=" stroke:none;fill-rule:nonzero;fill:rgb(100%,100%,100%);fill-opacity:1;" d="M 279.910156 8.660156 C 278.855469 8.722656 277.828125 8.386719 277.179688 7.761719 C 277.015625 7.605469 276.710938 7.816406 276.875 7.972656 C 277.59375 8.65625 278.726562 9.03125 279.890625 8.96875 C 280.003906 8.972656 280.097656 8.90625 280.105469 8.820312 C 280.109375 8.738281 280.023438 8.664062 279.910156 8.660156 Z M 279.910156 8.660156 "/>
<path style=" stroke:none;fill-rule:nonzero;fill:rgb(94.117647%,94.117647%,94.117647%);fill-opacity:1;" d="M 246.566406 6.777344 C 246.664062 6.878906 246.765625 6.980469 246.863281 7.082031 C 248.171875 8.441406 249.332031 9.875 250.332031 11.371094 C 250.414062 11.488281 250.492188 11.605469 250.566406 11.71875 C 252.925781 15.347656 254.359375 19.269531 254.800781 23.285156 C 254.972656 24.886719 254.984375 26.492188 254.832031 28.089844 C 254.617188 30.300781 254.152344 32.683594 254.910156 34.757812 C 254.984375 34.972656 255.078125 35.1875 255.191406 35.394531 L 269.5 39.46875 C 269.539062 39.464844 269.578125 39.464844 269.617188 39.460938 L 270.179688 39.644531 C 270.195312 39.5625 270.207031 39.476562 270.222656 39.394531 C 270.234375 39.34375 270.238281 39.296875 270.25 39.25 C 270.253906 39.21875 270.257812 39.183594 270.265625 39.15625 C 270.269531 39.144531 270.269531 39.136719 270.269531 39.128906 C 270.277344 39.097656 270.28125 39.070312 270.285156 39.046875 C 270.363281 38.566406 270.441406 38.089844 270.511719 37.609375 C 270.511719 37.605469 270.511719 37.605469 270.507812 37.605469 C 271.09375 33.953125 271.09375 30.261719 270.511719 26.609375 C 270.492188 26.5 270.476562 26.390625 270.449219 26.277344 C 270.148438 24.648438 269.671875 23.042969 269.019531 21.472656 C 268.65625 20.613281 268.238281 19.765625 267.765625 18.941406 C 266.53125 16.804688 264.855469 14.824219 262.800781 13.078125 C 258.699219 9.59375 253.152344 7.125 247.035156 6.800781 C 246.878906 6.792969 246.726562 6.785156 246.566406 6.777344 Z M 246.566406 6.777344 "/>
<path style=" stroke:none;fill-rule:nonzero;fill:rgb(100%,100%,100%);fill-opacity:1;" d="M 246.53125 6.925781 C 253.117188 10.007812 258.234375 14.566406 261.15625 19.945312 C 261.8125 21.09375 262.222656 22.316406 262.371094 23.558594 C 262.460938 24.777344 262.117188 25.988281 261.367188 27.070312 C 260.695312 28.089844 259.851562 29.074219 259.523438 30.199219 C 259.210938 31.367188 259.578125 32.578125 260.535156 33.53125 C 261.671875 34.730469 263.316406 35.546875 264.964844 36.308594 C 266.792969 37.152344 268.710938 38.007812 269.886719 39.394531 C 270.027344 39.5625 270.371094 39.390625 270.226562 39.222656 C 268.179688 36.804688 264.171875 36.050781 261.613281 34.027344 C 260.421875 33.082031 259.601562 31.867188 259.863281 30.542969 C 260.089844 29.382812 260.960938 28.367188 261.652344 27.339844 C 262.402344 26.289062 262.796875 25.121094 262.804688 23.933594 C 262.742188 22.6875 262.394531 21.457031 261.78125 20.296875 C 260.453125 17.667969 258.578125 15.210938 256.230469 13.019531 C 253.566406 10.503906 250.34375 8.347656 246.707031 6.644531 C 246.480469 6.539062 246.308594 6.820312 246.53125 6.925781 Z M 246.53125 6.925781 "/>
<path style=" stroke:none;fill-rule:nonzero;fill:rgb(100%,100%,100%);fill-opacity:1;" d="M 260.351562 18.171875 C 262.714844 17.164062 263.746094 15.027344 262.792969 13.125 C 262.699219 12.9375 262.308594 13.039062 262.402344 13.226562 C 263.292969 14.996094 262.324219 16.984375 260.121094 17.917969 C 259.886719 18.015625 260.121094 18.269531 260.351562 18.171875 Z M 260.351562 18.171875 "/>
<path style=" stroke:none;fill-rule:nonzero;fill:rgb(100%,100%,100%);fill-opacity:1;" d="M 261.796875 26.585938 C 259.195312 26.078125 256.945312 24.855469 255.496094 23.160156 C 255.351562 22.992188 255.011719 23.167969 255.152344 23.335938 C 256.667969 25.097656 259.011719 26.367188 261.722656 26.890625 C 261.980469 26.941406 262.054688 26.636719 261.796875 26.585938 Z M 261.796875 26.585938 "/>
<path style=" stroke:none;fill-rule:nonzero;fill:rgb(100%,100%,100%);fill-opacity:1;" d="M 253.304688 10.863281 C 252.515625 11.390625 251.425781 11.582031 250.402344 11.375 C 250.144531 11.324219 250.070312 11.628906 250.328125 11.679688 C 251.457031 11.902344 252.660156 11.691406 253.539062 11.121094 C 253.628906 11.070312 253.652344 10.976562 253.59375 10.90625 C 253.527344 10.835938 253.398438 10.816406 253.304688 10.863281 Z M 253.304688 10.863281 "/>
<path style=" stroke:none;fill-rule:nonzero;fill:rgb(89.411765%,89.411765%,89.411765%);fill-opacity:1;" d="M 227.644531 160.652344 C 179.660156 160.652344 140.625 131.507812 140.625 95.6875 C 140.625 59.863281 179.660156 30.71875 227.644531 30.71875 C 232.71875 30.71875 237.78125 31.046875 242.777344 31.699219 C 242.945312 31.71875 243.089844 31.808594 243.148438 31.929688 C 243.207031 32.050781 243.175781 32.183594 243.0625 32.28125 C 242.953125 32.382812 242.78125 32.429688 242.613281 32.40625 C 237.667969 31.761719 232.660156 31.4375 227.644531 31.4375 C 180.191406 31.4375 141.585938 60.257812 141.585938 95.6875 C 141.585938 131.113281 180.191406 159.933594 227.644531 159.933594 C 275.097656 159.933594 313.703125 131.113281 313.703125 95.6875 C 313.722656 79.671875 305.714844 64.234375 291.253906 52.410156 C 291.074219 52.265625 291.089844 52.039062 291.285156 51.90625 C 291.480469 51.773438 291.785156 51.78125 291.964844 51.925781 C 306.585938 63.882812 314.683594 79.496094 314.664062 95.6875 C 314.664062 131.507812 275.625 160.652344 227.644531 160.652344 Z M 227.644531 160.652344 "/>
<path style=" stroke:none;fill-rule:nonzero;fill:rgb(97.254902%,69.019608%,4.705882%);fill-opacity:1;" d="M 283.230469 40.148438 C 283.230469 47.246094 275.523438 53 266.011719 53 C 256.503906 53 248.796875 47.246094 248.796875 40.148438 C 248.796875 33.046875 256.503906 27.292969 266.011719 27.292969 C 275.523438 27.292969 283.230469 33.046875 283.230469 40.148438 Z M 283.230469 40.148438 "/>
<path style=" stroke:none;fill-rule:nonzero;fill:rgb(100%,100%,100%);fill-opacity:1;" d="M 263.664062 46.835938 C 263.0625 46.835938 262.492188 46.625 262.132812 46.265625 L 257.433594 41.589844 C 256.800781 40.957031 256.972656 40.0625 257.820312 39.585938 C 258.664062 39.113281 259.863281 39.242188 260.5 39.875 L 263.574219 42.933594 L 271.464844 34.09375 C 272.054688 33.441406 273.238281 33.265625 274.117188 33.699219 C 274.996094 34.136719 275.234375 35.023438 274.652344 35.679688 L 265.257812 46.199219 C 264.914062 46.585938 264.339844 46.824219 263.71875 46.835938 C 263.699219 46.835938 263.683594 46.835938 263.664062 46.835938 Z M 263.664062 46.835938 "/>
<path style=" stroke:none;fill-rule:nonzero;fill:rgb(24.705882%,23.921569%,33.72549%);fill-opacity:1;" d="M 225.40625 85.605469 L 198.855469 30.460938 L 199.527344 30.28125 L 194.644531 20.136719 L 193.972656 20.320312 L 185.820312 3.390625 C 184.539062 0.730469 180.613281 -0.652344 177.054688 0.304688 L 129.054688 13.183594 C 125.496094 14.140625 123.644531 17.070312 124.925781 19.730469 L 130.609375 31.535156 L 129.542969 31.839844 L 133.171875 38.875 L 134.023438 38.628906 L 134.777344 40.195312 L 133.871094 40.457031 L 137.5 47.488281 L 138.195312 47.289062 L 164.507812 101.945312 C 165.121094 103.226562 166.390625 104.269531 168.035156 104.847656 C 169.679688 105.425781 171.566406 105.492188 173.277344 105.03125 L 221.273438 92.152344 C 224.832031 91.191406 226.679688 88.261719 225.40625 85.605469 Z M 225.40625 85.605469 "/>
<path style=" stroke:none;fill-rule:nonzero;fill:rgb(100%,100%,100%);fill-opacity:1;" d="M 170.753906 103.214844 C 169.367188 103.210938 168.132812 102.5625 167.664062 101.589844 L 127.664062 18.507812 C 127.050781 17.230469 127.933594 15.828125 129.640625 15.371094 L 139.855469 12.628906 L 139.839844 12.894531 C 139.785156 13.835938 140.363281 14.734375 141.378906 15.292969 C 142.394531 15.847656 143.714844 15.992188 144.902344 15.675781 L 167.566406 9.59375 C 168.675781 9.214844 169.476562 8.460938 169.722656 7.570312 C 169.96875 6.691406 169.632812 5.78125 168.828125 5.117188 L 168.589844 4.917969 L 179.136719 2.085938 C 180.84375 1.628906 182.722656 2.292969 183.339844 3.566406 L 221.503906 82.832031 C 223.125 86.214844 220.777344 89.9375 216.25 91.15625 L 171.867188 103.066406 C 171.507812 103.164062 171.132812 103.214844 170.753906 103.214844 Z M 170.753906 103.214844 "/>
<path style=" stroke:none;fill-rule:nonzero;fill:rgb(97.254902%,69.019608%,4.705882%);fill-opacity:1;" d="M 179.824219 34.59375 C 179.824219 39.945312 174.011719 44.285156 166.84375 44.285156 C 159.675781 44.285156 153.863281 39.945312 153.863281 34.59375 C 153.863281 29.242188 159.675781 24.902344 166.84375 24.902344 C 174.011719 24.902344 179.824219 29.242188 179.824219 34.59375 Z M 179.824219 34.59375 "/>
<path style=" stroke:none;fill-rule:nonzero;fill:rgb(90.196078%,90.196078%,90.196078%);fill-opacity:1;" d="M 199.007812 48.6875 L 154.054688 60.75 C 153.675781 60.851562 153.246094 60.796875 152.9375 60.601562 C 152.625 60.40625 152.480469 60.101562 152.550781 59.800781 C 152.625 59.503906 152.90625 59.257812 153.289062 59.152344 L 198.242188 47.089844 C 198.832031 46.933594 199.480469 47.164062 199.691406 47.601562 C 199.902344 48.042969 199.597656 48.527344 199.007812 48.6875 Z M 199.007812 48.6875 "/>
<path style=" stroke:none;fill-rule:nonzero;fill:rgb(90.196078%,90.196078%,90.196078%);fill-opacity:1;" d="M 185.660156 56.335938 L 170.875 60.304688 C 170.492188 60.40625 170.066406 60.347656 169.753906 60.152344 C 169.445312 59.957031 169.296875 59.652344 169.371094 59.355469 C 169.441406 59.054688 169.722656 58.808594 170.105469 58.707031 L 184.890625 54.738281 C 185.480469 54.582031 186.132812 54.808594 186.34375 55.25 C 186.554688 55.691406 186.25 56.175781 185.660156 56.335938 Z M 185.660156 56.335938 "/>
<path style=" stroke:none;fill-rule:nonzero;fill:rgb(90.196078%,90.196078%,90.196078%);fill-opacity:1;" d="M 189.175781 63.640625 L 174.390625 67.609375 C 173.800781 67.765625 173.148438 67.539062 172.9375 67.097656 C 172.726562 66.65625 173.03125 66.171875 173.621094 66.011719 L 188.410156 62.042969 C 189 61.886719 189.648438 62.113281 189.859375 62.554688 C 190.074219 62.996094 189.765625 63.480469 189.175781 63.640625 Z M 189.175781 63.640625 "/>
<path style=" stroke:none;fill-rule:nonzero;fill:rgb(90.196078%,90.196078%,90.196078%);fill-opacity:1;" d="M 190.976562 67.378906 L 176.191406 71.347656 C 175.808594 71.453125 175.382812 71.394531 175.070312 71.199219 C 174.761719 71.003906 174.613281 70.699219 174.6875 70.402344 C 174.761719 70.101562 175.039062 69.855469 175.421875 69.753906 L 190.210938 65.785156 C 190.589844 65.683594 191.019531 65.738281 191.328125 65.933594 C 191.640625 66.128906 191.785156 66.433594 191.714844 66.734375 C 191.640625 67.03125 191.359375 67.277344 190.976562 67.378906 Z M 190.976562 67.378906 "/>
<path style=" stroke:none;fill-rule:nonzero;fill:rgb(90.196078%,90.196078%,90.196078%);fill-opacity:1;" d="M 195.6875 57.710938 L 164.316406 66.128906 C 163.933594 66.234375 163.503906 66.175781 163.195312 65.980469 C 162.886719 65.785156 162.738281 65.480469 162.8125 65.179688 C 162.882812 64.882812 163.164062 64.636719 163.546875 64.535156 L 194.917969 56.113281 C 195.300781 56.011719 195.726562 56.070312 196.035156 56.265625 C 196.347656 56.460938 196.492188 56.765625 196.421875 57.0625 C 196.347656 57.363281 196.070312 57.609375 195.6875 57.710938 Z M 195.6875 57.710938 "/>
<path style=" stroke:none;fill-rule:nonzero;fill:rgb(97.254902%,69.019608%,4.705882%);fill-opacity:1;" d="M 189.367188 76.464844 L 184 77.902344 C 182.996094 78.171875 181.890625 77.785156 181.53125 77.035156 C 181.167969 76.285156 181.6875 75.460938 182.691406 75.191406 L 188.0625 73.75 C 189.0625 73.480469 190.167969 73.871094 190.53125 74.621094 C 190.890625 75.367188 190.371094 76.191406 189.367188 76.464844 Z M 189.367188 76.464844 "/>
<path style=" stroke:none;fill-rule:nonzero;fill:rgb(100%,100%,100%);fill-opacity:1;" d="M 147.804688 12.339844 C 147.804688 12.648438 147.472656 12.898438 147.058594 12.898438 C 146.648438 12.898438 146.3125 12.648438 146.3125 12.339844 C 146.3125 12.03125 146.648438 11.78125 147.058594 11.78125 C 147.472656 11.78125 147.804688 12.03125 147.804688 12.339844 Z M 147.804688 12.339844 "/>
<path style=" stroke:none;fill-rule:nonzero;fill:rgb(94.117647%,94.117647%,94.117647%);fill-opacity:1;" d="M 61.195312 43.691406 C 69.5625 36.335938 83.140625 31.703125 95.65625 34.105469 C 84.382812 40.371094 76.441406 49.414062 73.238281 59.628906 C 72.019531 63.574219 71.214844 68.054688 66.929688 70.527344 C 64.257812 72.070312 60.671875 72.488281 57.320312 72.210938 C 53.96875 71.929688 50.777344 71.019531 47.628906 70.113281 L 46.792969 70.183594 C 48.898438 60.660156 52.824219 51.042969 61.195312 43.691406 Z M 61.195312 43.691406 "/>
<path style=" stroke:none;fill-rule:nonzero;fill:rgb(100%,100%,100%);fill-opacity:1;" d="M 95.625 34.304688 C 85.292969 36.371094 76.09375 40.816406 69.335938 47.007812 C 67.847656 48.320312 66.648438 49.800781 65.777344 51.394531 C 65 52.964844 64.796875 54.664062 65.195312 56.316406 C 65.523438 57.859375 66.101562 59.410156 65.921875 60.984375 C 65.703125 62.617188 64.5625 64.097656 62.789062 65.0625 C 60.644531 66.292969 58.035156 66.871094 55.457031 67.375 C 52.597656 67.933594 49.613281 68.476562 47.3125 69.945312 C 47.035156 70.125 46.679688 69.792969 46.957031 69.613281 C 50.960938 67.054688 56.644531 67.273438 61.101562 65.386719 C 63.179688 64.507812 64.917969 63.152344 65.292969 61.332031 C 65.621094 59.742188 65.027344 58.140625 64.675781 56.582031 C 64.257812 54.976562 64.371094 53.316406 65.007812 51.753906 C 65.765625 50.132812 66.886719 48.621094 68.324219 47.28125 C 71.496094 44.226562 75.289062 41.5625 79.570312 39.390625 C 84.433594 36.886719 89.839844 35.027344 95.542969 33.886719 C 95.898438 33.8125 95.976562 34.234375 95.625 34.304688 Z M 95.625 34.304688 "/>
<path style=" stroke:none;fill-rule:nonzero;fill:rgb(100%,100%,100%);fill-opacity:1;" d="M 71.351562 44.917969 C 68.796875 42.878906 68.597656 39.757812 70.878906 37.542969 C 71.105469 37.328125 71.566406 37.578125 71.339844 37.796875 C 69.207031 39.855469 69.402344 42.765625 71.800781 44.652344 C 72.050781 44.851562 71.601562 45.117188 71.351562 44.917969 Z M 71.351562 44.917969 "/>
<path style=" stroke:none;fill-rule:nonzero;fill:rgb(100%,100%,100%);fill-opacity:1;" d="M 64.890625 55.546875 C 68.589844 55.664062 72.210938 54.738281 75.035156 52.949219 C 75.316406 52.769531 75.667969 53.105469 75.390625 53.28125 C 72.449219 55.136719 68.675781 56.097656 64.824219 55.972656 C 64.457031 55.957031 64.527344 55.535156 64.890625 55.546875 Z M 64.890625 55.546875 "/>
<path style=" stroke:none;fill-rule:nonzero;fill:rgb(100%,100%,100%);fill-opacity:1;" d="M 84.582031 37.441406 C 85.335938 38.367188 86.667969 38.949219 88.121094 38.988281 C 88.488281 38.996094 88.421875 39.421875 88.054688 39.410156 C 86.449219 39.363281 84.980469 38.722656 84.136719 37.707031 C 84.042969 37.613281 84.0625 37.480469 84.179688 37.40625 C 84.304688 37.335938 84.484375 37.351562 84.582031 37.441406 Z M 84.582031 37.441406 "/>
<path style=" stroke:none;fill-rule:nonzero;fill:rgb(94.117647%,94.117647%,94.117647%);fill-opacity:1;" d="M 114.269531 63.671875 C 114.042969 63.671875 113.8125 63.671875 113.578125 63.671875 C 110.496094 63.675781 107.417969 63.867188 104.375 64.242188 C 104.140625 64.265625 103.902344 64.296875 103.667969 64.328125 C 96.351562 65.289062 89.339844 67.257812 82.984375 70.128906 C 80.457031 71.273438 78.050781 72.5625 75.785156 73.976562 C 72.65625 75.9375 69.472656 78.246094 65.769531 79.285156 C 65.386719 79.398438 64.992188 79.492188 64.589844 79.566406 L 46.972656 70.9375 C 46.945312 70.90625 46.914062 70.871094 46.886719 70.839844 L 46.164062 70.515625 C 46.273438 70.4375 46.390625 70.359375 46.5 70.277344 C 46.5625 70.234375 46.628906 70.1875 46.695312 70.140625 C 46.738281 70.113281 46.78125 70.082031 46.816406 70.054688 C 46.832031 70.042969 46.847656 70.03125 46.859375 70.027344 C 46.894531 69.996094 46.933594 69.972656 46.96875 69.945312 C 47.617188 69.496094 48.273438 69.046875 48.929688 68.601562 C 48.933594 68.597656 48.933594 68.597656 48.941406 68.597656 C 53.976562 65.214844 59.4375 62.113281 65.355469 59.730469 C 65.53125 59.660156 65.714844 59.585938 65.898438 59.519531 C 68.574219 58.453125 71.359375 57.558594 74.230469 56.832031 C 75.804688 56.441406 77.40625 56.109375 79.023438 55.835938 C 83.207031 55.140625 87.511719 54.9375 91.78125 55.242188 C 100.289062 55.84375 108.445312 58.472656 113.863281 63.300781 C 114 63.425781 114.132812 63.546875 114.269531 63.671875 Z M 114.269531 63.671875 "/>
<path style=" stroke:none;fill-rule:nonzero;fill:rgb(100%,100%,100%);fill-opacity:1;" d="M 114.085938 63.820312 C 104.167969 60.824219 93.238281 60.238281 82.847656 62.144531 C 80.601562 62.527344 78.449219 63.167969 76.472656 64.050781 C 74.582031 64.953125 73.050781 66.21875 72.039062 67.714844 C 71.054688 69.097656 70.265625 70.59375 68.851562 71.769531 C 67.363281 72.976562 65.257812 73.648438 63.0625 73.617188 C 60.359375 73.636719 57.808594 72.925781 55.34375 72.167969 C 52.609375 71.328125 49.789062 70.421875 46.765625 70.5625 C 46.402344 70.578125 46.386719 70.152344 46.753906 70.136719 C 52.011719 69.894531 56.375 72.621094 61.453125 73.117188 C 63.824219 73.351562 66.300781 73.050781 68.070312 71.765625 C 69.613281 70.640625 70.433594 69.097656 71.410156 67.695312 C 72.371094 66.222656 73.796875 64.953125 75.566406 63.988281 C 77.476562 63.035156 79.59375 62.332031 81.820312 61.910156 C 86.816406 60.894531 91.996094 60.476562 97.164062 60.664062 C 103.066406 60.851562 108.882812 61.792969 114.359375 63.449219 C 114.699219 63.550781 114.421875 63.921875 114.085938 63.820312 Z M 114.085938 63.820312 "/>
<path style=" stroke:none;fill-rule:nonzero;fill:rgb(100%,100%,100%);fill-opacity:1;" d="M 86.144531 61.382812 C 85.75 58.605469 88.105469 56.023438 91.714844 55.285156 C 92.066406 55.210938 92.234375 55.617188 91.878906 55.691406 C 88.515625 56.375 86.324219 58.789062 86.714844 61.375 C 86.753906 61.644531 86.1875 61.65625 86.144531 61.382812 Z M 86.144531 61.382812 "/>
<path style=" stroke:none;fill-rule:nonzero;fill:rgb(100%,100%,100%);fill-opacity:1;" d="M 72.414062 66.964844 C 75.273438 68.722656 78.914062 69.609375 82.609375 69.449219 C 82.976562 69.433594 82.992188 69.859375 82.625 69.875 C 78.777344 70.035156 74.992188 69.105469 72.019531 67.273438 C 71.738281 67.101562 72.132812 66.792969 72.414062 66.964844 Z M 72.414062 66.964844 "/>
<path style=" stroke:none;fill-rule:nonzero;fill:rgb(100%,100%,100%);fill-opacity:1;" d="M 102.738281 61.359375 C 102.59375 62.441406 103.1875 63.503906 104.316406 64.1875 C 104.601562 64.359375 104.207031 64.664062 103.921875 64.496094 C 102.679688 63.734375 102.023438 62.5625 102.167969 61.371094 C 102.167969 61.253906 102.289062 61.160156 102.445312 61.152344 C 102.601562 61.148438 102.734375 61.242188 102.738281 61.359375 Z M 102.738281 61.359375 "/>
<path style=" stroke:none;fill-rule:nonzero;fill:rgb(94.117647%,94.117647%,94.117647%);fill-opacity:1;" d="M 312.332031 185.035156 C 321.457031 186.703125 332.097656 185.117188 338.097656 179.71875 C 327.882812 179.613281 318.046875 176.816406 310.332031 171.816406 C 307.363281 169.882812 304.335938 167.496094 300.394531 167.402344 C 297.945312 167.34375 295.59375 168.238281 293.777344 169.46875 C 291.964844 170.699219 290.605469 172.25 289.265625 173.785156 L 288.734375 174.011719 C 295.40625 178.949219 303.207031 183.363281 312.332031 185.035156 Z M 312.332031 185.035156 "/>
<path style=" stroke:none;fill-rule:nonzero;fill:rgb(100%,100%,100%);fill-opacity:1;" d="M 337.964844 179.613281 C 330.699219 181.679688 322.746094 181.988281 315.234375 180.492188 C 313.609375 180.191406 312.058594 179.699219 310.636719 179.039062 C 309.28125 178.359375 308.191406 177.425781 307.484375 176.328125 C 306.800781 175.3125 306.253906 174.214844 305.25 173.34375 C 304.191406 172.453125 302.671875 171.941406 301.078125 171.9375 C 299.113281 171.898438 297.246094 172.382812 295.441406 172.910156 C 293.4375 173.492188 291.367188 174.117188 289.175781 173.984375 C 288.910156 173.96875 288.890625 174.277344 289.15625 174.292969 C 292.972656 174.527344 296.195312 172.59375 299.898438 172.285156 C 301.625 172.140625 303.421875 172.386719 304.679688 173.339844 C 305.78125 174.171875 306.34375 175.304688 307.027344 176.335938 C 307.695312 177.414062 308.710938 178.351562 309.976562 179.074219 C 311.347656 179.785156 312.871094 180.320312 314.480469 180.652344 C 318.09375 181.441406 321.847656 181.804688 325.609375 181.722656 C 329.902344 181.648438 334.144531 181.027344 338.15625 179.886719 C 338.40625 179.816406 338.210938 179.542969 337.964844 179.613281 Z M 337.964844 179.613281 "/>
<path style=" stroke:none;fill-rule:nonzero;fill:rgb(100%,100%,100%);fill-opacity:1;" d="M 317.613281 181.082031 C 317.273438 183.09375 318.9375 184.996094 321.542969 185.574219 C 321.796875 185.628906 321.925781 185.335938 321.671875 185.28125 C 319.242188 184.746094 317.695312 182.96875 318.027344 181.09375 C 318.0625 180.898438 317.648438 180.882812 317.613281 181.082031 Z M 317.613281 181.082031 "/>
<path style=" stroke:none;fill-rule:nonzero;fill:rgb(100%,100%,100%);fill-opacity:1;" d="M 307.742188 176.875 C 309.855469 175.628906 312.519531 175.023438 315.203125 175.179688 C 315.46875 175.195312 315.488281 174.886719 315.222656 174.871094 C 312.429688 174.714844 309.660156 175.347656 307.464844 176.644531 C 307.253906 176.769531 307.535156 176.996094 307.742188 176.875 Z M 307.742188 176.875 "/>
<path style=" stroke:none;fill-rule:nonzero;fill:rgb(100%,100%,100%);fill-opacity:1;" d="M 329.671875 181.277344 C 329.585938 180.492188 330.039062 179.726562 330.875 179.242188 C 331.085938 179.117188 330.804688 178.890625 330.59375 179.011719 C 329.675781 179.550781 329.175781 180.394531 329.257812 181.261719 C 329.257812 181.347656 329.34375 181.417969 329.457031 181.425781 C 329.570312 181.429688 329.664062 181.363281 329.671875 181.277344 Z M 329.671875 181.277344 "/>
<path style=" stroke:none;fill-rule:nonzero;fill:rgb(94.117647%,94.117647%,94.117647%);fill-opacity:1;" d="M 332.191406 156.386719 C 332.058594 156.460938 331.921875 156.53125 331.785156 156.605469 C 329.96875 157.585938 328.046875 158.453125 326.039062 159.199219 C 325.886719 159.257812 325.730469 159.316406 325.574219 159.371094 C 320.714844 161.132812 315.464844 162.203125 310.082031 162.53125 C 307.941406 162.664062 305.789062 162.667969 303.644531 162.554688 C 300.6875 162.398438 297.492188 162.050781 294.71875 162.613281 C 294.429688 162.671875 294.140625 162.742188 293.863281 162.824219 L 288.410156 173.507812 C 288.414062 173.539062 288.414062 173.566406 288.417969 173.59375 L 288.171875 174.015625 C 288.28125 174.027344 288.398438 174.035156 288.507812 174.046875 C 288.570312 174.054688 288.636719 174.058594 288.699219 174.066406 C 288.742188 174.070312 288.785156 174.074219 288.824219 174.078125 C 288.839844 174.082031 288.851562 174.082031 288.863281 174.082031 C 288.902344 174.085938 288.9375 174.089844 288.972656 174.09375 C 289.613281 174.152344 290.253906 174.207031 290.894531 174.261719 C 290.898438 174.261719 290.898438 174.261719 290.902344 174.261719 C 295.796875 174.695312 300.738281 174.695312 305.628906 174.261719 C 305.777344 174.25 305.925781 174.234375 306.074219 174.214844 C 308.253906 173.992188 310.410156 173.632812 312.511719 173.148438 C 313.664062 172.878906 314.796875 172.566406 315.902344 172.210938 C 318.765625 171.289062 321.414062 170.039062 323.757812 168.503906 C 328.425781 165.445312 331.726562 161.300781 332.164062 156.734375 C 332.175781 156.617188 332.183594 156.503906 332.191406 156.386719 Z M 332.191406 156.386719 "/>
<path style=" stroke:none;fill-rule:nonzero;fill:rgb(100%,100%,100%);fill-opacity:1;" d="M 331.996094 156.359375 C 327.867188 161.277344 321.761719 165.097656 314.558594 167.277344 C 313.015625 167.769531 311.382812 168.074219 309.714844 168.183594 C 308.085938 168.253906 306.460938 167.996094 305.011719 167.433594 C 303.644531 166.933594 302.328125 166.304688 300.820312 166.058594 C 299.257812 165.824219 297.632812 166.097656 296.359375 166.8125 C 294.753906 167.664062 293.65625 168.890625 292.640625 170.121094 C 291.507812 171.484375 290.363281 172.917969 288.503906 173.796875 C 288.277344 173.902344 288.511719 174.15625 288.738281 174.050781 C 291.972656 172.523438 292.988281 169.527344 295.695312 167.621094 C 296.957031 166.726562 298.589844 166.117188 300.363281 166.3125 C 301.914062 166.484375 303.277344 167.132812 304.652344 167.648438 C 306.058594 168.207031 307.625 168.503906 309.214844 168.507812 C 310.886719 168.460938 312.53125 168.203125 314.085938 167.746094 C 317.605469 166.753906 320.894531 165.355469 323.835938 163.597656 C 327.203125 161.609375 330.089844 159.207031 332.371094 156.492188 C 332.511719 156.324219 332.136719 156.191406 331.996094 156.359375 Z M 331.996094 156.359375 "/>
<path style=" stroke:none;fill-rule:nonzero;fill:rgb(100%,100%,100%);fill-opacity:1;" d="M 316.933594 166.679688 C 318.285156 168.441406 321.144531 169.210938 323.691406 168.5 C 323.941406 168.429688 323.808594 168.136719 323.558594 168.207031 C 321.1875 168.875 318.519531 168.148438 317.273438 166.503906 C 317.144531 166.332031 316.800781 166.507812 316.933594 166.679688 Z M 316.933594 166.679688 "/>
<path style=" stroke:none;fill-rule:nonzero;fill:rgb(100%,100%,100%);fill-opacity:1;" d="M 305.660156 167.757812 C 306.34375 165.8125 307.980469 164.132812 310.25 163.050781 C 310.472656 162.945312 310.238281 162.691406 310.015625 162.796875 C 307.65625 163.925781 305.957031 165.675781 305.253906 167.699219 C 305.1875 167.894531 305.59375 167.949219 305.660156 167.757812 Z M 305.660156 167.757812 "/>
<path style=" stroke:none;fill-rule:nonzero;fill:rgb(100%,100%,100%);fill-opacity:1;" d="M 326.71875 161.417969 C 326.015625 160.824219 325.761719 160.011719 326.035156 159.25 C 326.105469 159.058594 325.699219 159.003906 325.628906 159.191406 C 325.332031 160.035156 325.609375 160.933594 326.378906 161.589844 C 326.445312 161.660156 326.570312 161.675781 326.664062 161.632812 C 326.757812 161.582031 326.78125 161.488281 326.71875 161.417969 Z M 326.71875 161.417969 "/>
<path style=" stroke:none;fill-rule:nonzero;fill:rgb(24.705882%,23.921569%,33.72549%);fill-opacity:1;" d="M 348.890625 119.5625 L 334.980469 137.039062 L 335.507812 137.25 L 330.796875 143.917969 L 329.816406 143.53125 L 326.71875 147.417969 L 327.488281 147.746094 L 322.441406 154.273438 L 321.566406 153.894531 L 276.167969 210.9375 C 273.6875 214.046875 268.304688 215.070312 264.136719 213.222656 L 179.738281 175.785156 C 175.574219 173.933594 174.203125 169.914062 176.675781 166.804688 L 249.402344 75.425781 C 251.882812 72.316406 257.261719 71.296875 261.429688 73.140625 L 345.828125 110.582031 C 349.992188 112.433594 351.363281 116.449219 348.890625 119.5625 Z M 348.890625 119.5625 "/>
<path style=" stroke:none;fill-rule:nonzero;fill:rgb(100%,100%,100%);fill-opacity:1;" d="M 267.144531 209.695312 L 182.449219 172.125 C 181.167969 171.554688 180.742188 170.316406 181.503906 169.355469 L 254.714844 77.371094 C 255.476562 76.414062 257.136719 76.097656 258.421875 76.667969 L 343.117188 114.238281 C 344.402344 114.808594 344.824219 116.046875 344.0625 117.007812 L 270.855469 208.992188 C 270.089844 209.949219 268.429688 210.265625 267.144531 209.695312 Z M 267.144531 209.695312 "/>
<path style=" stroke:none;fill-rule:nonzero;fill:rgb(100%,100%,100%);fill-opacity:1;" d="M 302.683594 93.441406 C 302.683594 93.75 302.347656 94 301.9375 94 C 301.523438 94 301.191406 93.75 301.191406 93.441406 C 301.191406 93.132812 301.523438 92.882812 301.9375 92.882812 C 302.347656 92.882812 302.683594 93.132812 302.683594 93.441406 Z M 302.683594 93.441406 "/>
<path style=" stroke:none;fill-rule:nonzero;fill:rgb(90.196078%,90.196078%,90.196078%);fill-opacity:1;" d="M 297.316406 159.890625 L 226.617188 128.527344 C 226.011719 128.261719 225.644531 127.777344 225.652344 127.253906 C 225.660156 126.730469 226.042969 126.253906 226.652344 125.996094 C 227.265625 125.742188 228.011719 125.75 228.613281 126.019531 L 299.3125 157.382812 C 299.917969 157.648438 300.285156 158.132812 300.277344 158.65625 C 300.269531 159.179688 299.886719 159.660156 299.273438 159.914062 C 298.664062 160.167969 297.917969 160.160156 297.316406 159.890625 Z M 297.316406 159.890625 "/>
<path style=" stroke:none;fill-rule:nonzero;fill:rgb(90.196078%,90.196078%,90.196078%);fill-opacity:1;" d="M 269.085938 155.03125 L 245.832031 144.714844 C 244.902344 144.304688 244.597656 143.40625 245.148438 142.714844 C 245.699219 142.023438 246.898438 141.792969 247.828125 142.207031 L 271.082031 152.523438 C 272.011719 152.933594 272.316406 153.828125 271.765625 154.523438 C 271.214844 155.214844 270.015625 155.445312 269.085938 155.03125 Z M 269.085938 155.03125 "/>
<path style=" stroke:none;fill-rule:nonzero;fill:rgb(90.196078%,90.196078%,90.196078%);fill-opacity:1;" d="M 259.941406 166.519531 L 236.6875 156.203125 C 235.757812 155.792969 235.453125 154.898438 236.003906 154.203125 C 236.558594 153.511719 237.757812 153.28125 238.683594 153.695312 L 261.941406 164.011719 C 262.867188 164.421875 263.171875 165.316406 262.621094 166.011719 C 262.070312 166.703125 260.871094 166.933594 259.941406 166.519531 Z M 259.941406 166.519531 "/>
<path style=" stroke:none;fill-rule:nonzero;fill:rgb(90.196078%,90.196078%,90.196078%);fill-opacity:1;" d="M 255.257812 172.402344 L 232.003906 162.089844 C 231.402344 161.820312 231.035156 161.335938 231.042969 160.8125 C 231.050781 160.292969 231.433594 159.8125 232.042969 159.558594 C 232.652344 159.304688 233.402344 159.3125 234 159.578125 L 257.257812 169.894531 C 257.859375 170.160156 258.226562 170.644531 258.21875 171.167969 C 258.210938 171.691406 257.828125 172.171875 257.21875 172.425781 C 256.605469 172.679688 255.859375 172.671875 255.257812 172.402344 Z M 255.257812 172.402344 "/>
<path style=" stroke:none;fill-rule:nonzero;fill:rgb(90.196078%,90.196078%,90.196078%);fill-opacity:1;" d="M 277.621094 166.480469 L 228.28125 144.59375 C 227.355469 144.179688 227.054688 143.289062 227.605469 142.597656 C 228.15625 141.90625 229.351562 141.675781 230.277344 142.085938 L 279.617188 163.972656 C 280.222656 164.238281 280.589844 164.722656 280.582031 165.246094 C 280.574219 165.769531 280.191406 166.246094 279.578125 166.503906 C 278.96875 166.757812 278.222656 166.75 277.621094 166.480469 Z M 277.621094 166.480469 "/>
<path style=" stroke:none;fill-rule:nonzero;fill:rgb(97.254902%,69.019608%,4.705882%);fill-opacity:1;" d="M 268.214844 194.453125 L 259.773438 190.707031 C 258.195312 190.007812 257.679688 188.484375 258.617188 187.308594 C 259.554688 186.128906 261.589844 185.742188 263.167969 186.441406 L 271.613281 190.1875 C 273.191406 190.886719 273.710938 192.410156 272.773438 193.585938 C 271.835938 194.765625 269.792969 195.152344 268.214844 194.453125 Z M 268.214844 194.453125 "/>
<path style=" stroke:none;fill-rule:nonzero;fill:rgb(97.254902%,69.019608%,4.705882%);fill-opacity:1;" d="M 301.277344 120.714844 C 301.277344 127.851562 293.527344 133.636719 283.96875 133.636719 C 274.410156 133.636719 266.664062 127.851562 266.664062 120.714844 C 266.664062 113.578125 274.410156 107.792969 283.96875 107.792969 C 293.527344 107.792969 301.277344 113.578125 301.277344 120.714844 Z M 301.277344 120.714844 "/>
<path style=" stroke:none;fill-rule:nonzero;fill:rgb(79.215686%,79.215686%,79.215686%);fill-opacity:1;" d="M 0.203125 173.222656 L 234.425781 173.222656 L 234.425781 71.988281 C 234.421875 70.40625 232.707031 69.128906 230.59375 69.125 L 4.035156 69.125 C 1.921875 69.128906 0.207031 70.40625 0.203125 71.988281 Z M 0.203125 173.222656 "/>
<path style=" stroke:none;fill-rule:nonzero;fill:rgb(100%,100%,100%);fill-opacity:1;" d="M 7.441406 73.082031 L 227.1875 73.082031 L 227.1875 166.222656 L 7.441406 166.222656 Z M 7.441406 73.082031 "/>
<path style=" stroke:none;fill-rule:nonzero;fill:rgb(24.705882%,23.921569%,33.72549%);fill-opacity:1;" d="M 0 170.484375 L 0 182.976562 C 0 185.152344 2.363281 186.917969 5.28125 186.917969 L 91.730469 186.917969 L 91.730469 211.574219 L 90.582031 211.574219 C 90.203125 211.574219 89.898438 211.804688 89.898438 212.085938 L 89.898438 213.800781 C 89.898438 214.082031 90.203125 214.3125 90.582031 214.3125 L 144.25 214.3125 C 144.628906 214.3125 144.9375 214.082031 144.9375 213.800781 L 144.9375 212.085938 C 144.9375 211.804688 144.628906 211.574219 144.25 211.574219 L 143.101562 211.574219 L 143.101562 186.917969 L 229.550781 186.917969 C 232.46875 186.917969 234.832031 185.152344 234.832031 182.976562 L 234.832031 170.484375 Z M 0 170.484375 "/>
<path style=" stroke:none;fill-rule:nonzero;fill:rgb(90.196078%,90.196078%,90.196078%);fill-opacity:1;" d="M 195.390625 104.230469 L 91.328125 104.230469 C 89.960938 104.230469 88.851562 103.40625 88.851562 102.386719 C 88.851562 101.363281 89.960938 100.539062 91.328125 100.539062 L 195.390625 100.539062 C 196.757812 100.539062 197.863281 101.363281 197.863281 102.386719 C 197.863281 103.40625 196.757812 104.230469 195.390625 104.230469 Z M 195.390625 104.230469 "/>
<path style=" stroke:none;fill-rule:nonzero;fill:rgb(90.196078%,90.196078%,90.196078%);fill-opacity:1;" d="M 160.472656 112.566406 L 126.242188 112.566406 C 124.878906 112.566406 123.769531 111.742188 123.769531 110.722656 C 123.769531 109.703125 124.878906 108.875 126.242188 108.875 L 160.472656 108.875 C 161.839844 108.875 162.949219 109.703125 162.949219 110.722656 C 162.949219 111.742188 161.839844 112.566406 160.472656 112.566406 Z M 160.472656 112.566406 "/>
<path style=" stroke:none;fill-rule:nonzero;fill:rgb(90.196078%,90.196078%,90.196078%);fill-opacity:1;" d="M 160.472656 129.476562 L 126.242188 129.476562 C 124.878906 129.476562 123.769531 128.652344 123.769531 127.632812 C 123.769531 126.609375 124.878906 125.785156 126.242188 125.785156 L 160.472656 125.785156 C 161.839844 125.785156 162.949219 126.609375 162.949219 127.632812 C 162.949219 128.652344 161.839844 129.476562 160.472656 129.476562 Z M 160.472656 129.476562 "/>
<path style=" stroke:none;fill-rule:nonzero;fill:rgb(90.196078%,90.196078%,90.196078%);fill-opacity:1;" d="M 160.472656 138.140625 L 126.242188 138.140625 C 124.878906 138.140625 123.769531 137.3125 123.769531 136.292969 C 123.769531 135.273438 124.878906 134.445312 126.242188 134.445312 L 160.472656 134.445312 C 161.839844 134.445312 162.945312 135.273438 162.945312 136.292969 C 162.945312 137.3125 161.839844 138.140625 160.472656 138.140625 Z M 160.472656 138.140625 "/>
<path style=" stroke:none;fill-rule:nonzero;fill:rgb(90.196078%,90.196078%,90.196078%);fill-opacity:1;" d="M 179.671875 120.902344 L 107.046875 120.902344 C 105.679688 120.902344 104.574219 120.078125 104.574219 119.058594 C 104.574219 118.039062 105.679688 117.210938 107.046875 117.210938 L 179.671875 117.210938 C 181.035156 117.210938 182.144531 118.039062 182.144531 119.058594 C 182.144531 120.078125 181.035156 120.902344 179.671875 120.902344 Z M 179.671875 120.902344 "/>
<path style=" stroke:none;fill-rule:nonzero;fill:rgb(97.254902%,69.019608%,4.705882%);fill-opacity:1;" d="M 193.660156 155.871094 L 181.230469 155.871094 C 178.90625 155.871094 177.023438 154.464844 177.023438 152.730469 C 177.023438 150.996094 178.90625 149.589844 181.230469 149.589844 L 193.660156 149.589844 C 195.980469 149.589844 197.863281 150.996094 197.863281 152.730469 C 197.863281 154.464844 195.980469 155.871094 193.660156 155.871094 Z M 193.660156 155.871094 "/>
<path style=" stroke:none;fill-rule:nonzero;fill:rgb(97.254902%,69.019608%,4.705882%);fill-opacity:1;" d="M 80.238281 116.925781 C 80.238281 125.847656 70.550781 133.078125 58.601562 133.078125 C 46.65625 133.078125 36.96875 125.847656 36.96875 116.925781 C 36.96875 108.007812 46.65625 100.777344 58.601562 100.777344 C 70.550781 100.777344 80.238281 108.007812 80.238281 116.925781 Z M 80.238281 116.925781 "/>
<path style=" stroke:none;fill-rule:nonzero;fill:rgb(79.215686%,79.215686%,79.215686%);fill-opacity:1;" d="M 311.773438 214.980469 L 0.574219 214.980469 C 0.257812 214.980469 0 214.789062 0 214.550781 C 0 214.316406 0.257812 214.125 0.574219 214.125 L 311.773438 214.125 C 312.085938 214.125 312.34375 214.316406 312.34375 214.550781 C 312.34375 214.789062 312.085938 214.980469 311.773438 214.980469 Z M 311.773438 214.980469 "/>
<path style=" stroke:none;fill-rule:nonzero;fill:rgb(100%,100%,100%);fill-opacity:1;" d="M 118.027344 70.496094 C 118.027344 70.832031 117.664062 71.105469 117.210938 71.105469 C 116.761719 71.105469 116.398438 70.832031 116.398438 70.496094 C 116.398438 70.160156 116.761719 69.886719 117.210938 69.886719 C 117.664062 69.886719 118.027344 70.160156 118.027344 70.496094 Z M 118.027344 70.496094 "/>
</g>
</svg>
