<?xml version="1.0" encoding="UTF-8"?>
<svg xmlns="http://www.w3.org/2000/svg" xmlns:xlink="http://www.w3.org/1999/xlink" width="350px" height="215px" viewBox="0 0 350 215" version="1.1">
<defs>
<filter id="alpha" filterUnits="objectBoundingBox" x="0%" y="0%" width="100%" height="100%">
  <feColorMatrix type="matrix" in="SourceGraphic" values="0 0 0 0 1 0 0 0 0 1 0 0 0 0 1 0 0 0 1 0"/>
</filter>
<mask id="mask0">
  <g filter="url(#alpha)">
<rect x="0" y="0" width="350" height="215" style="fill:rgb(0%,0%,0%);fill-opacity:0.2;stroke:none;"/>
  </g>
</mask>
<clipPath id="clip1">
  <rect x="0" y="0" width="350" height="215"/>
</clipPath>
<g id="surface5" clip-path="url(#clip1)">
<path style=" stroke:none;fill-rule:nonzero;fill:rgb(0%,0%,0%);fill-opacity:1;" d="M 42.761719 64.988281 C 37.320312 65.03125 30.125 64.152344 28.675781 63.285156 C 27.570312 62.625 27.128906 60.25 26.984375 59.152344 C 26.882812 59.160156 26.824219 59.160156 26.824219 59.160156 C 26.824219 59.160156 27.128906 62.984375 28.578125 63.851562 C 30.027344 64.722656 37.222656 65.597656 42.664062 65.554688 C 44.234375 65.542969 44.777344 64.992188 44.746094 64.179688 C 44.527344 64.671875 43.929688 64.976562 42.761719 64.988281 Z M 42.761719 64.988281 "/>
</g>
<mask id="mask1">
  <g filter="url(#alpha)">
<rect x="0" y="0" width="350" height="215" style="fill:rgb(0%,0%,0%);fill-opacity:0.101961;stroke:none;"/>
  </g>
</mask>
<clipPath id="clip2">
  <rect x="0" y="0" width="350" height="215"/>
</clipPath>
<g id="surface8" clip-path="url(#clip2)">
<path style=" stroke:none;fill-rule:nonzero;fill:rgb(0%,0%,0%);fill-opacity:1;" d="M 111.128906 130.570312 C 111.128906 126.941406 89.160156 124 62.066406 124 C 34.96875 124 13.003906 126.941406 13.003906 130.570312 C 13.003906 134.195312 34.96875 137.136719 62.066406 137.136719 C 89.160156 137.136719 111.128906 134.195312 111.128906 130.570312 Z M 111.128906 130.570312 "/>
</g>
<mask id="mask2">
  <g filter="url(#alpha)">
<rect x="0" y="0" width="350" height="215" style="fill:rgb(0%,0%,0%);fill-opacity:0.101961;stroke:none;"/>
  </g>
</mask>
<clipPath id="clip3">
  <rect x="0" y="0" width="350" height="215"/>
</clipPath>
<g id="surface11" clip-path="url(#clip3)">
<path style=" stroke:none;fill-rule:nonzero;fill:rgb(0%,0%,0%);fill-opacity:1;" d="M 235.570312 195.066406 C 237.507812 193.375 240.882812 191.605469 240.882812 191.605469 L 243.34375 176.136719 L 278.945312 176.171875 L 281.40625 191.421875 C 284.277344 192.984375 286.054688 194.183594 287.097656 195.105469 C 288.675781 194.75 290.40625 193.429688 281.40625 188.527344 L 278.945312 172.3125 L 243.34375 173.242188 L 240.882812 188.710938 C 240.882812 188.710938 230.699219 194.039062 235.570312 195.066406 Z M 235.570312 195.066406 "/>
</g>
<mask id="mask3">
  <g filter="url(#alpha)">
<rect x="0" y="0" width="350" height="215" style="fill:rgb(0%,0%,0%);fill-opacity:0.101961;stroke:none;"/>
  </g>
</mask>
<clipPath id="clip4">
  <rect x="0" y="0" width="350" height="215"/>
</clipPath>
<g id="surface14" clip-path="url(#clip4)">
<path style=" stroke:none;fill-rule:nonzero;fill:rgb(0%,0%,0%);fill-opacity:1;" d="M 342.011719 203.476562 C 335.058594 206.097656 328.859375 206.292969 322.5 201.945312 C 319.292969 199.753906 316.378906 199.210938 314.191406 199.253906 C 316.578125 198.007812 324.496094 194.941406 338.539062 199.382812 C 339.574219 199.703125 340.496094 200.296875 341.207031 201.105469 C 341.777344 201.757812 342.222656 202.589844 342.011719 203.476562 Z M 342.011719 203.476562 "/>
</g>
<mask id="mask4">
  <g filter="url(#alpha)">
<rect x="0" y="0" width="350" height="215" style="fill:rgb(0%,0%,0%);fill-opacity:0.101961;stroke:none;"/>
  </g>
</mask>
<clipPath id="clip5">
  <rect x="0" y="0" width="350" height="215"/>
</clipPath>
<g id="surface17" clip-path="url(#clip5)">
<path style=" stroke:none;fill-rule:nonzero;fill:rgb(0%,0%,0%);fill-opacity:1;" d="M 302.804688 205.300781 L 302.804688 207.164062 L 200.925781 207.164062 L 200.925781 205.671875 L 201.066406 205.300781 Z M 302.804688 205.300781 "/>
</g>
<mask id="mask5">
  <g filter="url(#alpha)">
<rect x="0" y="0" width="350" height="215" style="fill:rgb(0%,0%,0%);fill-opacity:0.4;stroke:none;"/>
  </g>
</mask>
<clipPath id="clip6">
  <rect x="0" y="0" width="350" height="215"/>
</clipPath>
<g id="surface20" clip-path="url(#clip6)">
<path style=" stroke:none;fill-rule:nonzero;fill:rgb(97.254902%,69.019608%,4.705882%);fill-opacity:1;" d="M 84.878906 46.136719 L 89.878906 46.136719 L 89.878906 51.058594 L 84.878906 51.058594 Z M 84.878906 46.136719 "/>
</g>
<mask id="mask6">
  <g filter="url(#alpha)">
<rect x="0" y="0" width="350" height="215" style="fill:rgb(0%,0%,0%);fill-opacity:0.8;stroke:none;"/>
  </g>
</mask>
<clipPath id="clip7">
  <rect x="0" y="0" width="350" height="215"/>
</clipPath>
<g id="surface23" clip-path="url(#clip7)">
<path style=" stroke:none;fill-rule:nonzero;fill:rgb(97.254902%,69.019608%,4.705882%);fill-opacity:1;" d="M 92.066406 46.136719 L 97.066406 46.136719 L 97.066406 51.058594 L 92.066406 51.058594 Z M 92.066406 46.136719 "/>
</g>
<mask id="mask7">
  <g filter="url(#alpha)">
<rect x="0" y="0" width="350" height="215" style="fill:rgb(0%,0%,0%);fill-opacity:0.4;stroke:none;"/>
  </g>
</mask>
<clipPath id="clip8">
  <rect x="0" y="0" width="350" height="215"/>
</clipPath>
<g id="surface26" clip-path="url(#clip8)">
<path style=" stroke:none;fill-rule:nonzero;fill:rgb(97.254902%,69.019608%,4.705882%);fill-opacity:1;" d="M 84.878906 77.203125 L 89.878906 77.203125 L 89.878906 82.125 L 84.878906 82.125 Z M 84.878906 77.203125 "/>
</g>
<mask id="mask8">
  <g filter="url(#alpha)">
<rect x="0" y="0" width="350" height="215" style="fill:rgb(0%,0%,0%);fill-opacity:0.8;stroke:none;"/>
  </g>
</mask>
<clipPath id="clip9">
  <rect x="0" y="0" width="350" height="215"/>
</clipPath>
<g id="surface29" clip-path="url(#clip9)">
<path style=" stroke:none;fill-rule:nonzero;fill:rgb(97.254902%,69.019608%,4.705882%);fill-opacity:1;" d="M 92.066406 77.203125 L 97.066406 77.203125 L 97.066406 82.125 L 92.066406 82.125 Z M 92.066406 77.203125 "/>
</g>
<mask id="mask9">
  <g filter="url(#alpha)">
<rect x="0" y="0" width="350" height="215" style="fill:rgb(0%,0%,0%);fill-opacity:0.4;stroke:none;"/>
  </g>
</mask>
<clipPath id="clip10">
  <rect x="0" y="0" width="350" height="215"/>
</clipPath>
<g id="surface32" clip-path="url(#clip10)">
<path style=" stroke:none;fill-rule:nonzero;fill:rgb(97.254902%,69.019608%,4.705882%);fill-opacity:1;" d="M 84.878906 108.269531 L 89.878906 108.269531 L 89.878906 113.191406 L 84.878906 113.191406 Z M 84.878906 108.269531 "/>
</g>
<mask id="mask10">
  <g filter="url(#alpha)">
<rect x="0" y="0" width="350" height="215" style="fill:rgb(0%,0%,0%);fill-opacity:0.8;stroke:none;"/>
  </g>
</mask>
<clipPath id="clip11">
  <rect x="0" y="0" width="350" height="215"/>
</clipPath>
<g id="surface35" clip-path="url(#clip11)">
<path style=" stroke:none;fill-rule:nonzero;fill:rgb(97.254902%,69.019608%,4.705882%);fill-opacity:1;" d="M 92.066406 108.269531 L 97.066406 108.269531 L 97.066406 113.191406 L 92.066406 113.191406 Z M 92.066406 108.269531 "/>
</g>
</defs>
<g id="surface1">
<path style=" stroke:none;fill-rule:nonzero;fill:rgb(94.901961%,94.901961%,94.901961%);fill-opacity:1;" d="M 158.003906 65.515625 C 158.003906 101.699219 128.203125 131.03125 91.441406 131.03125 C 54.679688 131.03125 24.878906 101.699219 24.878906 65.515625 C 24.878906 29.332031 54.679688 0 91.441406 0 C 128.203125 0 158.003906 29.332031 158.003906 65.515625 Z M 158.003906 65.515625 "/>
<path style=" stroke:none;fill-rule:nonzero;fill:rgb(18.431373%,18.039216%,25.490196%);fill-opacity:1;" d="M 0 15.730469 C 0 39.566406 15.191406 58.855469 33.96875 58.855469 "/>
<path style=" stroke:none;fill-rule:nonzero;fill:rgb(97.254902%,69.019608%,4.705882%);fill-opacity:1;" d="M 33.96875 58.855469 C 33.96875 34.75 50.921875 15.246094 71.875 15.246094 "/>
<path style=" stroke:none;fill-rule:nonzero;fill:rgb(97.254902%,69.019608%,4.705882%);fill-opacity:1;" d="M 12.308594 17.890625 C 12.308594 40.535156 21.996094 58.855469 33.96875 58.855469 "/>
<path style=" stroke:none;fill-rule:nonzero;fill:rgb(18.431373%,18.039216%,25.490196%);fill-opacity:1;" d="M 33.96875 58.855469 C 33.96875 28.054688 53.566406 3.132812 77.785156 3.132812 "/>
<path style=" stroke:none;fill-rule:nonzero;fill:rgb(65.882353%,65.882353%,65.882353%);fill-opacity:1;" d="M 26.824219 59.160156 C 26.824219 59.160156 31.640625 59.015625 33.09375 57.996094 C 34.542969 56.980469 40.503906 55.765625 40.863281 57.394531 C 41.222656 59.027344 48.101562 65.511719 42.664062 65.554688 C 37.222656 65.597656 30.027344 64.722656 28.578125 63.851562 C 27.128906 62.984375 26.824219 59.160156 26.824219 59.160156 Z M 26.824219 59.160156 "/>
<use xlink:href="#surface5" mask="url(#mask0)"/>
<path style=" stroke:none;fill-rule:nonzero;fill:rgb(24.705882%,23.921569%,33.72549%);fill-opacity:1;" d="M 120.503906 130.570312 C 120.503906 126.246094 94.339844 122.742188 62.066406 122.742188 C 29.792969 122.742188 3.628906 126.246094 3.628906 130.570312 C 3.628906 134.890625 29.792969 138.394531 62.066406 138.394531 C 94.339844 138.394531 120.503906 134.890625 120.503906 130.570312 Z M 120.503906 130.570312 "/>
<use xlink:href="#surface8" mask="url(#mask1)"/>
<path style=" stroke:none;fill-rule:nonzero;fill:rgb(24.705882%,23.921569%,33.72549%);fill-opacity:1;" d="M 349.878906 203.15625 C 349.878906 196.617188 310.28125 191.316406 261.441406 191.316406 C 212.597656 191.316406 173.003906 196.617188 173.003906 203.15625 C 173.003906 209.699219 212.597656 215 261.441406 215 C 310.28125 215 349.878906 209.699219 349.878906 203.15625 Z M 349.878906 203.15625 "/>
<path style=" stroke:none;fill-rule:nonzero;fill:rgb(24.705882%,23.921569%,33.72549%);fill-opacity:1;" d="M 150.191406 198.542969 C 150.191406 194.617188 126.40625 191.429688 97.066406 191.429688 C 67.726562 191.429688 43.941406 194.617188 43.941406 198.542969 C 43.941406 202.472656 67.726562 205.65625 97.066406 205.65625 C 126.40625 205.65625 150.191406 202.472656 150.191406 198.542969 Z M 150.191406 198.542969 "/>
<path style="fill:none;stroke-width:2;stroke-linecap:butt;stroke-linejoin:miter;stroke:rgb(18.431373%,18.039216%,25.490196%);stroke-opacity:1;stroke-miterlimit:10;" d="M 494.00339 726.501235 C 584.00339 749.500672 757.00339 696.504179 776.00339 636.497366 " transform="matrix(0.3125,0,0,0.307582,-9.809653,-30.912017)"/>
<path style="fill:none;stroke-width:2;stroke-linecap:butt;stroke-linejoin:miter;stroke:rgb(18.431373%,18.039216%,25.490196%);stroke-opacity:1;stroke-miterlimit:10;" d="M 341.00339 359.500836 C 341.00339 359.500836 471.00339 323.496748 479.00339 439.49722 C 487.00339 555.497693 372.00339 588.504615 462.00339 611.504052 " transform="matrix(0.3125,0,0,0.307582,-9.809653,-30.912017)"/>
<path style="fill:none;stroke-width:2;stroke-linecap:butt;stroke-linejoin:miter;stroke:rgb(18.431373%,18.039216%,25.490196%);stroke-opacity:1;stroke-miterlimit:10;" d="M 215.40339 637.780051 C 215.40339 637.780051 254.47839 626.959775 256.87839 661.833576 C 259.27839 696.694677 224.71589 706.613263 251.76589 713.521984 " transform="matrix(0.3125,0,0,0.307582,-9.809653,-30.912017)"/>
<path style=" stroke:none;fill-rule:nonzero;fill:rgb(18.431373%,18.039216%,25.490196%);fill-opacity:1;" d="M 243.34375 173.242188 L 240.882812 188.710938 C 240.882812 188.710938 228.765625 195.050781 237.285156 195.234375 C 245.808594 195.421875 285.953125 195.234375 285.953125 195.234375 C 285.953125 195.234375 293.714844 195.234375 281.40625 188.527344 L 278.945312 172.3125 Z M 243.34375 173.242188 "/>
<use xlink:href="#surface11" mask="url(#mask2)"/>
<path style=" stroke:none;fill-rule:nonzero;fill:rgb(18.431373%,18.039216%,25.490196%);fill-opacity:1;" d="M 186.398438 65.417969 L 335.511719 65.417969 C 338.628906 65.417969 341.152344 67.902344 341.152344 70.96875 L 341.152344 169.835938 C 341.152344 172.902344 338.628906 175.386719 335.511719 175.386719 L 186.398438 175.386719 C 183.285156 175.386719 180.761719 172.902344 180.761719 169.835938 L 180.761719 70.96875 C 180.761719 67.902344 183.285156 65.417969 186.398438 65.417969 Z M 186.398438 65.417969 "/>
<path style=" stroke:none;fill-rule:nonzero;fill:rgb(24.705882%,23.921569%,33.72549%);fill-opacity:1;" d="M 186.15625 71.289062 L 335.753906 71.289062 L 335.753906 153.671875 L 186.15625 153.671875 Z M 186.15625 71.289062 "/>
<path style=" stroke:none;fill-rule:nonzero;fill:rgb(94.901961%,94.901961%,94.901961%);fill-opacity:1;" d="M 261.902344 68.679688 C 261.902344 69.195312 261.480469 69.613281 260.957031 69.613281 C 260.433594 69.613281 260.007812 69.195312 260.007812 68.679688 C 260.007812 68.167969 260.433594 67.75 260.957031 67.75 C 261.480469 67.75 261.902344 68.167969 261.902344 68.679688 Z M 261.902344 68.679688 "/>
<path style=" stroke:none;fill-rule:nonzero;fill:rgb(18.431373%,18.039216%,25.490196%);fill-opacity:1;" d="M 341.152344 160.195312 L 341.152344 169.835938 C 341.152344 172.902344 338.628906 175.386719 335.511719 175.386719 L 186.398438 175.386719 C 183.285156 175.386719 180.761719 172.902344 180.761719 169.835938 L 180.761719 160.195312 Z M 341.152344 160.195312 "/>
<path style=" stroke:none;fill-rule:nonzero;fill:rgb(18.431373%,18.039216%,25.490196%);fill-opacity:1;" d="M 302.804688 205.300781 L 302.804688 207.164062 L 200.925781 207.164062 L 200.925781 205.671875 L 201.066406 205.300781 L 203.578125 198.589844 L 300.722656 198.589844 Z M 302.804688 205.300781 "/>
<path style=" stroke:none;fill-rule:nonzero;fill:rgb(18.431373%,18.039216%,25.490196%);fill-opacity:1;" d="M 342.011719 203.476562 C 341.824219 204.257812 341.125 205.082031 339.542969 205.859375 C 333.863281 208.65625 322.308594 205.113281 322.308594 205.113281 C 322.308594 205.113281 313.410156 203.625 313.410156 199.710938 C 313.660156 199.539062 313.921875 199.386719 314.191406 199.253906 C 316.578125 198.007812 324.496094 194.941406 338.539062 199.382812 C 339.574219 199.703125 340.496094 200.296875 341.207031 201.105469 C 341.777344 201.757812 342.222656 202.589844 342.011719 203.476562 Z M 342.011719 203.476562 "/>
<use xlink:href="#surface14" mask="url(#mask3)"/>
<path style=" stroke:none;fill-rule:nonzero;fill:rgb(94.901961%,94.901961%,94.901961%);fill-opacity:1;" d="M 335.753906 201.199219 C 335.753906 200.789062 334.652344 200.453125 333.292969 200.453125 C 331.933594 200.453125 330.832031 200.789062 330.832031 201.199219 C 330.832031 201.613281 331.933594 201.945312 333.292969 201.945312 C 334.652344 201.945312 335.753906 201.613281 335.753906 201.199219 Z M 335.753906 201.199219 "/>
<path style=" stroke:none;fill-rule:nonzero;fill:rgb(94.901961%,94.901961%,94.901961%);fill-opacity:1;" d="M 264.554688 167.835938 C 264.554688 169.792969 262.941406 171.378906 260.957031 171.378906 C 258.96875 171.378906 257.359375 169.792969 257.359375 167.835938 C 257.359375 165.882812 258.96875 164.296875 260.957031 164.296875 C 262.941406 164.296875 264.554688 165.882812 264.554688 167.835938 Z M 264.554688 167.835938 "/>
<use xlink:href="#surface17" mask="url(#mask4)"/>
<path style=" stroke:none;fill-rule:nonzero;fill:rgb(18.431373%,18.039216%,25.490196%);fill-opacity:1;" d="M 33.941406 48.90625 L 98.941406 48.90625 L 98.941406 123.339844 L 33.941406 123.339844 Z M 33.941406 48.90625 "/>
<path style=" stroke:none;fill-rule:nonzero;fill:rgb(24.705882%,23.921569%,33.72549%);fill-opacity:1;" d="M 27.378906 41.523438 L 105.503906 41.523438 L 105.503906 67.976562 L 27.378906 67.976562 Z M 27.378906 41.523438 "/>
<path style=" stroke:none;fill-rule:nonzero;fill:rgb(24.705882%,23.921569%,33.72549%);fill-opacity:1;" d="M 27.378906 72.898438 L 105.503906 72.898438 L 105.503906 99.347656 L 27.378906 99.347656 Z M 27.378906 72.898438 "/>
<path style=" stroke:none;fill-rule:nonzero;fill:rgb(24.705882%,23.921569%,33.72549%);fill-opacity:1;" d="M 27.378906 104.269531 L 105.503906 104.269531 L 105.503906 130.722656 L 27.378906 130.722656 Z M 27.378906 104.269531 "/>
<use xlink:href="#surface20" mask="url(#mask5)"/>
<use xlink:href="#surface23" mask="url(#mask6)"/>
<path style=" stroke:none;fill-rule:nonzero;fill:rgb(97.254902%,69.019608%,4.705882%);fill-opacity:1;" d="M 99.253906 46.136719 L 104.253906 46.136719 L 104.253906 51.058594 L 99.253906 51.058594 Z M 99.253906 46.136719 "/>
<use xlink:href="#surface26" mask="url(#mask7)"/>
<use xlink:href="#surface29" mask="url(#mask8)"/>
<path style=" stroke:none;fill-rule:nonzero;fill:rgb(97.254902%,69.019608%,4.705882%);fill-opacity:1;" d="M 99.253906 77.203125 L 104.253906 77.203125 L 104.253906 82.125 L 99.253906 82.125 Z M 99.253906 77.203125 "/>
<use xlink:href="#surface32" mask="url(#mask9)"/>
<use xlink:href="#surface35" mask="url(#mask10)"/>
<path style=" stroke:none;fill-rule:nonzero;fill:rgb(97.254902%,69.019608%,4.705882%);fill-opacity:1;" d="M 99.253906 108.269531 L 104.253906 108.269531 L 104.253906 113.191406 L 99.253906 113.191406 Z M 99.253906 108.269531 "/>
<path style=" stroke:none;fill-rule:nonzero;fill:rgb(18.431373%,18.039216%,25.490196%);fill-opacity:1;" d="M 123.628906 165.480469 C 123.628906 178.898438 112.574219 189.777344 98.941406 189.777344 C 85.304688 189.777344 74.253906 178.898438 74.253906 165.480469 C 74.253906 152.058594 85.304688 141.179688 98.941406 141.179688 C 112.574219 141.179688 123.628906 152.058594 123.628906 165.480469 Z M 123.628906 165.480469 "/>
<path style=" stroke:none;fill-rule:nonzero;fill:rgb(18.431373%,18.039216%,25.490196%);fill-opacity:1;" d="M 87.691406 184.550781 L 95.191406 184.550781 L 95.191406 197.777344 L 87.691406 197.777344 Z M 87.691406 184.550781 "/>
<path style=" stroke:none;fill-rule:nonzero;fill:rgb(18.431373%,18.039216%,25.490196%);fill-opacity:1;" d="M 102.691406 184.550781 L 110.191406 184.550781 L 110.191406 197.777344 L 102.691406 197.777344 Z M 102.691406 184.550781 "/>
<path style=" stroke:none;fill-rule:nonzero;fill:rgb(18.431373%,18.039216%,25.490196%);fill-opacity:1;" d="M 100.191406 197.929688 C 100.191406 196.65625 97.390625 195.621094 93.941406 195.621094 C 90.488281 195.621094 87.691406 196.65625 87.691406 197.929688 C 87.691406 199.203125 90.488281 200.234375 93.941406 200.234375 C 97.390625 200.234375 100.191406 199.203125 100.191406 197.929688 Z M 100.191406 197.929688 "/>
<path style=" stroke:none;fill-rule:nonzero;fill:rgb(18.431373%,18.039216%,25.490196%);fill-opacity:1;" d="M 115.191406 197.621094 C 115.191406 196.347656 112.390625 195.316406 108.941406 195.316406 C 105.488281 195.316406 102.691406 196.347656 102.691406 197.621094 C 102.691406 198.894531 105.488281 199.929688 108.941406 199.929688 C 112.390625 199.929688 115.191406 198.894531 115.191406 197.621094 Z M 115.191406 197.621094 "/>
<path style=" stroke:none;fill-rule:nonzero;fill:rgb(100%,100%,100%);fill-opacity:1;" d="M 108.003906 159.328125 C 108.003906 163.914062 104.226562 167.632812 99.566406 167.632812 C 94.90625 167.632812 91.128906 163.914062 91.128906 159.328125 C 91.128906 154.742188 94.90625 151.023438 99.566406 151.023438 C 104.226562 151.023438 108.003906 154.742188 108.003906 159.328125 Z M 108.003906 159.328125 "/>
<path style=" stroke:none;fill-rule:nonzero;fill:rgb(24.705882%,23.921569%,33.72549%);fill-opacity:1;" d="M 102.378906 159.328125 C 102.378906 160.855469 101.117188 162.097656 99.566406 162.097656 C 98.011719 162.097656 96.753906 160.855469 96.753906 159.328125 C 96.753906 157.796875 98.011719 156.558594 99.566406 156.558594 C 101.117188 156.558594 102.378906 157.796875 102.378906 159.328125 Z M 102.378906 159.328125 "/>
<path style=" stroke:none;fill-rule:nonzero;fill:rgb(97.254902%,69.019608%,4.705882%);fill-opacity:1;" d="M 74.992188 142.882812 C 73 134.09375 79.371094 125.214844 89.226562 123.050781 C 99.078125 120.886719 108.683594 126.253906 110.675781 135.039062 C 112.667969 143.828125 106.140625 147.066406 96.285156 149.234375 C 86.433594 151.398438 76.984375 151.667969 74.992188 142.882812 Z M 74.992188 142.882812 "/>
<path style=" stroke:none;fill-rule:nonzero;fill:rgb(18.431373%,18.039216%,25.490196%);fill-opacity:1;" d="M 131.917969 152.347656 C 131.074219 150.410156 125.3125 150.980469 119.046875 153.621094 C 112.777344 156.261719 108.378906 159.96875 109.222656 161.90625 C 110.0625 163.84375 115.828125 163.273438 122.09375 160.632812 C 128.363281 157.992188 132.761719 154.28125 131.917969 152.347656 Z M 131.917969 152.347656 "/>
<path style=" stroke:none;fill-rule:nonzero;fill:rgb(18.431373%,18.039216%,25.490196%);fill-opacity:1;" d="M 85.667969 168.648438 C 84.824219 166.710938 79.0625 167.28125 72.796875 169.921875 C 66.527344 172.5625 62.128906 176.273438 62.972656 178.207031 C 63.8125 180.144531 69.578125 179.574219 75.84375 176.933594 C 82.113281 174.292969 86.511719 170.585938 85.667969 168.648438 Z M 85.667969 168.648438 "/>
<path style=" stroke:none;fill-rule:nonzero;fill:rgb(100%,100%,100%);fill-opacity:1;" d="M 113.316406 172.554688 C 113.316406 174.933594 107.09375 179.628906 100.191406 179.628906 C 93.285156 179.628906 86.753906 175.238281 86.753906 172.859375 C 86.753906 170.484375 93.285156 171.015625 100.191406 171.015625 C 107.09375 171.015625 113.316406 170.175781 113.316406 172.554688 Z M 113.316406 172.554688 "/>
</g>
</svg>
