<?xml version="1.0" encoding="UTF-8"?>
<svg xmlns="http://www.w3.org/2000/svg" xmlns:xlink="http://www.w3.org/1999/xlink" width="350px" height="215px" viewBox="0 0 350 215" version="1.1">
<g id="surface1">
<path style=" stroke:none;fill-rule:nonzero;fill:rgb(100%,71.372549%,71.372549%);fill-opacity:1;" d="M 99.722656 136.101562 C 98.640625 135.796875 97.789062 135.140625 97.40625 134.316406 C 97.019531 133.492188 97.140625 132.578125 97.730469 131.824219 L 88.757812 123.800781 L 95.925781 123.152344 L 103.347656 130.871094 C 104.992188 131.722656 105.53125 133.371094 104.609375 134.707031 C 103.683594 136.039062 101.585938 136.640625 99.722656 136.101562 Z M 99.722656 136.101562 "/>
<path style=" stroke:none;fill-rule:nonzero;fill:rgb(100%,71.372549%,71.372549%);fill-opacity:1;" d="M 62.777344 211.316406 L 67.546875 211.316406 L 69.8125 197.410156 L 62.777344 197.410156 Z M 62.777344 211.316406 "/>
<path style=" stroke:none;fill-rule:nonzero;fill:rgb(18.431373%,18.039216%,25.490196%);fill-opacity:1;" d="M 61.5625 210.140625 L 62.902344 210.140625 L 68.140625 208.53125 L 70.949219 210.140625 C 74.253906 210.140625 76.933594 212.167969 76.933594 214.664062 L 76.933594 214.8125 L 61.5625 214.8125 Z M 61.5625 210.140625 "/>
<path style=" stroke:none;fill-rule:nonzero;fill:rgb(100%,71.372549%,71.372549%);fill-opacity:1;" d="M 81.253906 209.046875 L 85.902344 209.839844 L 92.167969 196.652344 L 85.304688 195.480469 Z M 81.253906 209.046875 "/>
<path style=" stroke:none;fill-rule:nonzero;fill:rgb(18.431373%,18.039216%,25.490196%);fill-opacity:1;" d="M 80.410156 207.695312 L 81.71875 207.917969 L 87.296875 207.21875 L 89.570312 209.257812 C 92.792969 209.808594 94.816406 212.230469 94.085938 214.671875 L 94.042969 214.8125 L 79.050781 212.253906 Z M 80.410156 207.695312 "/>
<path style=" stroke:none;fill-rule:nonzero;fill:rgb(18.431373%,18.039216%,25.490196%);fill-opacity:1;" d="M 54.050781 139.777344 L 58.359375 176.308594 C 58.359375 176.308594 56.746094 198.242188 61.957031 205.957031 L 69.515625 205.957031 L 73.261719 174.304688 L 73.730469 153.058594 L 89.9375 170.984375 L 79.613281 205.441406 L 88.917969 206.070312 L 105.671875 168.675781 L 87.265625 133.574219 Z M 54.050781 139.777344 "/>
<path style=" stroke:none;fill-rule:nonzero;fill:rgb(100%,72.156863%,72.156863%);fill-opacity:1;" d="M 69.683594 73.191406 C 69.683594 77.835938 64.703125 81.601562 58.5625 81.601562 C 52.421875 81.601562 47.445312 77.835938 47.445312 73.191406 C 47.445312 68.546875 52.421875 64.78125 58.5625 64.78125 C 64.703125 64.78125 69.683594 68.546875 69.683594 73.191406 Z M 69.683594 73.191406 "/>
<path style=" stroke:none;fill-rule:nonzero;fill:rgb(24.705882%,23.921569%,33.72549%);fill-opacity:1;" d="M 81.90625 89.613281 L 68.988281 86.652344 L 67.308594 82.742188 L 53.457031 84.445312 L 50.511719 88.261719 L 40.984375 94.960938 L 52.148438 133.132812 L 51.808594 141.46875 C 51.808594 141.46875 58.953125 143.902344 89.9375 138.300781 C 90.308594 138.234375 89.53125 137.941406 89.53125 137.941406 Z M 81.90625 89.613281 "/>
<path style=" stroke:none;fill-rule:nonzero;fill:rgb(24.705882%,23.921569%,33.72549%);fill-opacity:1;" d="M 94.171875 131.691406 L 79.03125 116.355469 L 74.738281 89.179688 L 74.863281 89.132812 C 77.246094 88.265625 80.042969 88.363281 82.308594 89.390625 C 84.574219 90.421875 86.003906 92.246094 86.109375 94.242188 L 87.003906 111.035156 L 102.042969 126.046875 Z M 94.171875 131.691406 "/>
<path style=" stroke:none;fill-rule:nonzero;fill:rgb(18.431373%,18.039216%,25.490196%);fill-opacity:1;" d="M 47.003906 77.960938 C 46.925781 77.882812 46.847656 77.800781 46.773438 77.71875 C 46.742188 77.769531 46.71875 77.820312 46.683594 77.867188 Z M 47.003906 77.960938 "/>
<path style=" stroke:none;fill-rule:nonzero;fill:rgb(18.431373%,18.039216%,25.490196%);fill-opacity:1;" d="M 69.625 67.039062 C 68.882812 65.816406 67.554688 64.847656 65.914062 64.328125 C 64.285156 63.832031 62.460938 63.832031 60.835938 64.332031 C 59.363281 63.628906 57.730469 63.070312 56.011719 63.003906 C 54.292969 62.933594 52.472656 63.417969 51.414062 64.480469 C 51.175781 64.757812 50.90625 65.023438 50.609375 65.269531 C 49.757812 65.863281 48.460938 65.777344 47.328125 65.65625 C 47.835938 65.984375 48.347656 66.316406 48.855469 66.644531 C 48.238281 66.765625 47.625 66.886719 47.007812 67.007812 C 47.726562 67.339844 48.445312 67.667969 49.160156 67.996094 C 47.078125 68.941406 46.132812 71.007812 46.382812 72.878906 C 46.617188 74.65625 47.75 76.277344 49.105469 77.71875 C 49.644531 76.859375 49.53125 75.828125 49.519531 74.855469 C 49.511719 73.828125 49.75 72.664062 50.839844 72.089844 C 51.570312 71.703125 52.515625 71.6875 53.398438 71.691406 C 57.859375 71.707031 62.316406 71.917969 66.746094 72.320312 C 67.34375 72.339844 67.929688 72.46875 68.453125 72.695312 C 69.433594 73.199219 69.625 74.242188 69.722656 75.160156 C 70.238281 73.648438 70.492188 72.09375 70.476562 70.53125 C 70.519531 69.335938 70.230469 68.144531 69.625 67.039062 Z M 69.625 67.039062 "/>
<path style=" stroke:none;fill-rule:nonzero;fill:rgb(94.117647%,94.117647%,94.117647%);fill-opacity:1;" d="M 86.03125 155.882812 C 86.03125 163.191406 78.195312 169.117188 68.53125 169.117188 C 58.867188 169.117188 51.03125 163.191406 51.03125 155.882812 C 51.03125 148.574219 58.867188 142.648438 68.53125 142.648438 C 78.195312 142.648438 86.03125 148.574219 86.03125 155.882812 Z M 86.03125 155.882812 "/>
<path style=" stroke:none;fill-rule:nonzero;fill:rgb(24.705882%,23.921569%,33.72549%);fill-opacity:1;" d="M 68.53125 142.351562 C 67.632812 142.351562 66.734375 142.402344 65.84375 142.507812 C 65.390625 142.554688 64.945312 142.621094 64.507812 142.699219 C 57.921875 143.847656 52.757812 147.703125 51.152344 152.667969 C 49.550781 157.632812 51.785156 162.855469 56.925781 166.171875 C 57.226562 166.363281 57.53125 166.546875 57.84375 166.722656 C 64.078125 170.238281 72.601562 170.304688 78.929688 166.886719 C 85.257812 163.46875 87.941406 157.351562 85.566406 151.75 C 83.191406 146.152344 76.308594 142.351562 68.53125 142.351562 Z M 68.53125 168.824219 C 64.894531 168.828125 61.347656 167.945312 58.421875 166.316406 C 58.101562 166.136719 57.792969 165.957031 57.496094 165.761719 C 52.480469 162.5625 50.328125 157.476562 51.953125 152.671875 C 53.578125 147.863281 58.695312 144.183594 65.125 143.199219 C 65.558594 143.132812 65.996094 143.078125 66.4375 143.039062 C 67.132812 142.972656 67.832031 142.941406 68.53125 142.941406 C 77.980469 142.941406 85.640625 148.734375 85.640625 155.882812 C 85.640625 163.03125 77.980469 168.824219 68.53125 168.824219 Z M 68.53125 168.824219 "/>
<path style=" stroke:none;fill-rule:nonzero;fill:rgb(97.254902%,69.019608%,4.705882%);fill-opacity:1;" d="M 77.085938 153.234375 L 59.976562 153.234375 C 59.332031 153.234375 58.808594 152.839844 58.808594 152.351562 C 58.808594 151.867188 59.332031 151.46875 59.976562 151.46875 L 77.085938 151.46875 C 77.730469 151.46875 78.253906 151.867188 78.253906 152.351562 C 78.253906 152.839844 77.730469 153.234375 77.085938 153.234375 Z M 77.085938 153.234375 "/>
<path style=" stroke:none;fill-rule:nonzero;fill:rgb(97.254902%,69.019608%,4.705882%);fill-opacity:1;" d="M 77.085938 156.765625 L 59.976562 156.765625 C 59.332031 156.765625 58.808594 156.371094 58.808594 155.882812 C 58.808594 155.394531 59.332031 155 59.976562 155 L 77.085938 155 C 77.730469 155 78.253906 155.394531 78.253906 155.882812 C 78.253906 156.371094 77.730469 156.765625 77.085938 156.765625 Z M 77.085938 156.765625 "/>
<path style=" stroke:none;fill-rule:nonzero;fill:rgb(97.254902%,69.019608%,4.705882%);fill-opacity:1;" d="M 77.085938 160.292969 L 59.976562 160.292969 C 59.332031 160.292969 58.808594 159.898438 58.808594 159.410156 C 58.808594 158.925781 59.332031 158.53125 59.976562 158.53125 L 77.085938 158.53125 C 77.730469 158.53125 78.253906 158.925781 78.253906 159.410156 C 78.253906 159.898438 77.730469 160.292969 77.085938 160.292969 Z M 77.085938 160.292969 "/>
<path style=" stroke:none;fill-rule:nonzero;fill:rgb(100%,71.372549%,71.372549%);fill-opacity:1;" d="M 69.652344 146.402344 C 68.507812 146.269531 67.5 145.761719 66.902344 145.011719 C 66.304688 144.261719 66.171875 143.351562 66.546875 142.523438 L 55.601562 136.050781 L 62.445312 134.308594 L 71.792969 140.726562 C 73.628906 141.304688 74.605469 142.835938 74.058594 144.285156 C 73.511719 145.734375 71.617188 146.644531 69.652344 146.402344 Z M 69.652344 146.402344 "/>
<path style=" stroke:none;fill-rule:nonzero;fill:rgb(24.705882%,23.921569%,33.72549%);fill-opacity:1;" d="M 47.726562 94.851562 L 40.984375 94.960938 C 38.308594 96.824219 36.804688 99.457031 36.835938 102.207031 L 36.835938 126.296875 L 62.132812 142.292969 L 70.3125 136.300781 L 51.484375 120.789062 Z M 47.726562 94.851562 "/>
<path style=" stroke:none;fill-rule:nonzero;fill:rgb(90.196078%,90.196078%,90.196078%);fill-opacity:1;" d="M 99.558594 37.519531 L 349.949219 37.519531 L 349.949219 158.804688 L 99.558594 158.804688 Z M 99.558594 37.519531 "/>
<path style=" stroke:none;fill-rule:nonzero;fill:rgb(100%,100%,100%);fill-opacity:1;" d="M 106.71875 52.734375 L 342.789062 52.734375 L 342.789062 151.628906 L 106.71875 151.628906 Z M 106.71875 52.734375 "/>
<path style=" stroke:none;fill-rule:nonzero;fill:rgb(97.254902%,69.019608%,4.705882%);fill-opacity:1;" d="M 99.449219 37.414062 L 349.839844 37.414062 L 349.839844 45.460938 L 99.449219 45.460938 Z M 99.449219 37.414062 "/>
<path style=" stroke:none;fill-rule:nonzero;fill:rgb(100%,100%,100%);fill-opacity:1;" d="M 109.328125 41.527344 C 109.328125 42.351562 108.445312 43.019531 107.355469 43.019531 C 106.265625 43.019531 105.382812 42.351562 105.382812 41.527344 C 105.382812 40.703125 106.265625 40.035156 107.355469 40.035156 C 108.445312 40.035156 109.328125 40.703125 109.328125 41.527344 Z M 109.328125 41.527344 "/>
<path style=" stroke:none;fill-rule:nonzero;fill:rgb(100%,100%,100%);fill-opacity:1;" d="M 116.808594 41.527344 C 116.808594 42.351562 115.929688 43.019531 114.839844 43.019531 C 113.75 43.019531 112.867188 42.351562 112.867188 41.527344 C 112.867188 40.703125 113.75 40.035156 114.839844 40.035156 C 115.929688 40.035156 116.808594 40.703125 116.808594 41.527344 Z M 116.808594 41.527344 "/>
<path style=" stroke:none;fill-rule:nonzero;fill:rgb(100%,100%,100%);fill-opacity:1;" d="M 124.292969 41.527344 C 124.292969 42.351562 123.410156 43.019531 122.324219 43.019531 C 121.234375 43.019531 120.351562 42.351562 120.351562 41.527344 C 120.351562 40.703125 121.234375 40.035156 122.324219 40.035156 C 123.410156 40.035156 124.292969 40.703125 124.292969 41.527344 Z M 124.292969 41.527344 "/>
<path style=" stroke:none;fill-rule:nonzero;fill:rgb(97.254902%,69.019608%,4.705882%);fill-opacity:1;" d="M 199.296875 62.996094 L 249.847656 62.996094 L 249.847656 84.566406 L 199.296875 84.566406 Z M 199.296875 62.996094 "/>
<path style=" stroke:none;fill-rule:nonzero;fill:rgb(90.196078%,90.196078%,90.196078%);fill-opacity:1;" d="M 199.296875 90.574219 L 249.847656 90.574219 L 249.847656 113.785156 L 199.296875 113.785156 Z M 199.296875 90.574219 "/>
<path style=" stroke:none;fill-rule:nonzero;fill:rgb(90.196078%,90.196078%,90.196078%);fill-opacity:1;" d="M 260.679688 62.996094 L 321.335938 62.996094 L 321.335938 97.148438 L 260.679688 97.148438 Z M 260.679688 62.996094 "/>
<path style=" stroke:none;fill-rule:nonzero;fill:rgb(97.254902%,69.019608%,4.705882%);fill-opacity:1;" d="M 260.679688 107.210938 L 321.335938 107.210938 L 321.335938 141.367188 L 260.679688 141.367188 Z M 260.679688 107.210938 "/>
<path style=" stroke:none;fill-rule:nonzero;fill:rgb(90.196078%,90.196078%,90.196078%);fill-opacity:1;" d="M 128.457031 62.996094 L 189.117188 62.996094 L 189.117188 97.148438 L 128.457031 97.148438 Z M 128.457031 62.996094 "/>
<path style=" stroke:none;fill-rule:nonzero;fill:rgb(24.705882%,23.921569%,33.72549%);fill-opacity:1;" d="M 241.582031 23.425781 L 224.300781 72.585938 L 225.09375 72.746094 L 242.210938 24.042969 Z M 241.582031 23.425781 "/>
<path style=" stroke:none;fill-rule:nonzero;fill:rgb(24.705882%,23.921569%,33.72549%);fill-opacity:1;" d="M 291.457031 123.996094 L 274.339844 172.699219 L 274.96875 173.320312 L 292.25 124.15625 Z M 291.457031 123.996094 "/>
<path style=" stroke:none;fill-rule:nonzero;fill:rgb(90.196078%,90.196078%,90.196078%);fill-opacity:1;" d="M 187.921875 117.835938 L 129.585938 117.835938 C 128.835938 117.835938 128.226562 117.375 128.226562 116.808594 C 128.226562 116.238281 128.835938 115.777344 129.585938 115.777344 L 187.921875 115.777344 C 188.671875 115.777344 189.28125 116.238281 189.28125 116.808594 C 189.28125 117.375 188.671875 117.835938 187.921875 117.835938 Z M 187.921875 117.835938 "/>
<path style=" stroke:none;fill-rule:nonzero;fill:rgb(90.196078%,90.196078%,90.196078%);fill-opacity:1;" d="M 187.921875 111.957031 L 129.585938 111.957031 C 128.835938 111.957031 128.226562 111.496094 128.226562 110.925781 C 128.226562 110.355469 128.835938 109.894531 129.585938 109.894531 L 187.921875 109.894531 C 188.671875 109.894531 189.28125 110.355469 189.28125 110.925781 C 189.28125 111.496094 188.671875 111.957031 187.921875 111.957031 Z M 187.921875 111.957031 "/>
<path style=" stroke:none;fill-rule:nonzero;fill:rgb(90.196078%,90.196078%,90.196078%);fill-opacity:1;" d="M 187.921875 123.71875 L 129.585938 123.71875 C 128.835938 123.71875 128.226562 123.257812 128.226562 122.691406 C 128.226562 122.121094 128.835938 121.660156 129.585938 121.660156 L 187.921875 121.660156 C 188.671875 121.660156 189.28125 122.121094 189.28125 122.691406 C 189.28125 123.257812 188.671875 123.71875 187.921875 123.71875 Z M 187.921875 123.71875 "/>
<path style=" stroke:none;fill-rule:nonzero;fill:rgb(90.196078%,90.196078%,90.196078%);fill-opacity:1;" d="M 187.921875 129.601562 L 129.585938 129.601562 C 128.835938 129.601562 128.226562 129.140625 128.226562 128.574219 C 128.226562 128.003906 128.835938 127.542969 129.585938 127.542969 L 187.921875 127.542969 C 188.671875 127.542969 189.28125 128.003906 189.28125 128.574219 C 189.28125 129.140625 188.671875 129.601562 187.921875 129.601562 Z M 187.921875 129.601562 "/>
<path style=" stroke:none;fill-rule:nonzero;fill:rgb(90.196078%,90.196078%,90.196078%);fill-opacity:1;" d="M 187.921875 135.484375 L 129.585938 135.484375 C 128.835938 135.484375 128.226562 135.023438 128.226562 134.457031 C 128.226562 133.886719 128.835938 133.425781 129.585938 133.425781 L 187.921875 133.425781 C 188.671875 133.425781 189.28125 133.886719 189.28125 134.457031 C 189.28125 135.023438 188.671875 135.484375 187.921875 135.484375 Z M 187.921875 135.484375 "/>
<path style=" stroke:none;fill-rule:nonzero;fill:rgb(90.196078%,90.196078%,90.196078%);fill-opacity:1;" d="M 187.921875 141.367188 L 129.585938 141.367188 C 128.835938 141.367188 128.226562 140.90625 128.226562 140.335938 C 128.226562 139.769531 128.835938 139.308594 129.585938 139.308594 L 187.921875 139.308594 C 188.671875 139.308594 189.28125 139.769531 189.28125 140.335938 C 189.28125 140.90625 188.671875 141.367188 187.921875 141.367188 Z M 187.921875 141.367188 "/>
<path style=" stroke:none;fill-rule:nonzero;fill:rgb(90.196078%,90.196078%,90.196078%);fill-opacity:1;" d="M 248.683594 123.71875 L 200.460938 123.71875 C 199.710938 123.71875 199.101562 123.257812 199.101562 122.691406 C 199.101562 122.121094 199.710938 121.660156 200.460938 121.660156 L 248.683594 121.660156 C 249.433594 121.660156 250.042969 122.121094 250.042969 122.691406 C 250.042969 123.257812 249.433594 123.71875 248.683594 123.71875 Z M 248.683594 123.71875 "/>
<path style=" stroke:none;fill-rule:nonzero;fill:rgb(90.196078%,90.196078%,90.196078%);fill-opacity:1;" d="M 248.683594 129.601562 L 200.460938 129.601562 C 199.710938 129.601562 199.101562 129.140625 199.101562 128.574219 C 199.101562 128.003906 199.710938 127.542969 200.460938 127.542969 L 248.683594 127.542969 C 249.433594 127.542969 250.042969 128.003906 250.042969 128.574219 C 250.042969 129.140625 249.433594 129.601562 248.683594 129.601562 Z M 248.683594 129.601562 "/>
<path style=" stroke:none;fill-rule:nonzero;fill:rgb(90.196078%,90.196078%,90.196078%);fill-opacity:1;" d="M 248.683594 135.484375 L 200.460938 135.484375 C 199.710938 135.484375 199.101562 135.023438 199.101562 134.457031 C 199.101562 133.886719 199.710938 133.425781 200.460938 133.425781 L 248.683594 133.425781 C 249.433594 133.425781 250.042969 133.886719 250.042969 134.457031 C 250.042969 135.023438 249.433594 135.484375 248.683594 135.484375 Z M 248.683594 135.484375 "/>
<path style=" stroke:none;fill-rule:nonzero;fill:rgb(90.196078%,90.196078%,90.196078%);fill-opacity:1;" d="M 248.683594 141.367188 L 200.460938 141.367188 C 199.710938 141.367188 199.101562 140.90625 199.101562 140.335938 C 199.101562 139.769531 199.710938 139.308594 200.460938 139.308594 L 248.683594 139.308594 C 249.433594 139.308594 250.042969 139.769531 250.042969 140.335938 C 250.042969 140.90625 249.433594 141.367188 248.683594 141.367188 Z M 248.683594 141.367188 "/>
<path style=" stroke:none;fill-rule:nonzero;fill:rgb(94.117647%,94.117647%,94.117647%);fill-opacity:1;" d="M 260.253906 13.53125 C 260.253906 20.839844 252.417969 26.765625 242.753906 26.765625 C 233.089844 26.765625 225.253906 20.839844 225.253906 13.53125 C 225.253906 6.21875 233.089844 0.292969 242.753906 0.292969 C 252.417969 0.292969 260.253906 6.21875 260.253906 13.53125 Z M 260.253906 13.53125 "/>
<path style=" stroke:none;fill-rule:nonzero;fill:rgb(24.705882%,23.921569%,33.72549%);fill-opacity:1;" d="M 242.753906 0 C 241.855469 0 240.957031 0.0507812 240.066406 0.152344 C 239.613281 0.203125 239.167969 0.269531 238.730469 0.347656 C 232.144531 1.496094 226.976562 5.351562 225.375 10.316406 C 223.773438 15.28125 226.007812 20.503906 231.148438 23.816406 C 231.449219 24.007812 231.75 24.195312 232.066406 24.371094 C 238.300781 27.886719 246.824219 27.953125 253.152344 24.535156 C 259.480469 21.117188 262.164062 14.996094 259.789062 9.398438 C 257.414062 3.796875 250.53125 0 242.753906 0 Z M 242.753906 26.46875 C 239.113281 26.472656 235.570312 25.59375 232.640625 23.960938 C 232.324219 23.785156 232.015625 23.601562 231.71875 23.410156 C 226.703125 20.210938 224.550781 15.125 226.175781 10.316406 C 227.800781 5.511719 232.917969 1.832031 239.347656 0.847656 C 239.78125 0.78125 240.21875 0.726562 240.660156 0.683594 C 241.355469 0.621094 242.054688 0.585938 242.753906 0.589844 C 252.203125 0.589844 259.863281 6.382812 259.863281 13.53125 C 259.863281 20.675781 252.203125 26.46875 242.753906 26.46875 Z M 242.753906 26.46875 "/>
<path style=" stroke:none;fill-rule:nonzero;fill:rgb(97.254902%,69.019608%,4.705882%);fill-opacity:1;" d="M 251.308594 10.882812 L 234.199219 10.882812 C 233.554688 10.882812 233.03125 10.488281 233.03125 10 C 233.03125 9.511719 233.554688 9.117188 234.199219 9.117188 L 251.308594 9.117188 C 251.953125 9.117188 252.476562 9.511719 252.476562 10 C 252.476562 10.488281 251.953125 10.882812 251.308594 10.882812 Z M 251.308594 10.882812 "/>
<path style=" stroke:none;fill-rule:nonzero;fill:rgb(97.254902%,69.019608%,4.705882%);fill-opacity:1;" d="M 251.308594 14.410156 L 234.199219 14.410156 C 233.554688 14.410156 233.03125 14.015625 233.03125 13.53125 C 233.03125 13.042969 233.554688 12.648438 234.199219 12.648438 L 251.308594 12.648438 C 251.953125 12.648438 252.476562 13.042969 252.476562 13.53125 C 252.476562 14.015625 251.953125 14.410156 251.308594 14.410156 Z M 251.308594 14.410156 "/>
<path style=" stroke:none;fill-rule:nonzero;fill:rgb(97.254902%,69.019608%,4.705882%);fill-opacity:1;" d="M 251.308594 17.941406 L 234.199219 17.941406 C 233.554688 17.941406 233.03125 17.546875 233.03125 17.058594 C 233.03125 16.570312 233.554688 16.175781 234.199219 16.175781 L 251.308594 16.175781 C 251.953125 16.175781 252.476562 16.570312 252.476562 17.058594 C 252.476562 17.546875 251.953125 17.941406 251.308594 17.941406 Z M 251.308594 17.941406 "/>
<path style=" stroke:none;fill-rule:nonzero;fill:rgb(94.117647%,94.117647%,94.117647%);fill-opacity:1;" d="M 289.808594 184.707031 C 289.808594 192.015625 281.972656 197.941406 272.308594 197.941406 C 262.644531 197.941406 254.808594 192.015625 254.808594 184.707031 C 254.808594 177.394531 262.644531 171.46875 272.308594 171.46875 C 281.972656 171.46875 289.808594 177.394531 289.808594 184.707031 Z M 289.808594 184.707031 "/>
<path style=" stroke:none;fill-rule:nonzero;fill:rgb(24.705882%,23.921569%,33.72549%);fill-opacity:1;" d="M 272.308594 171.175781 C 271.410156 171.175781 270.511719 171.226562 269.621094 171.328125 C 269.167969 171.378906 268.722656 171.445312 268.285156 171.523438 C 261.699219 172.671875 256.535156 176.527344 254.929688 181.492188 C 253.328125 186.457031 255.5625 191.679688 260.703125 194.992188 C 261.003906 195.183594 261.308594 195.371094 261.621094 195.546875 C 267.855469 199.0625 276.378906 199.128906 282.707031 195.710938 C 289.035156 192.292969 291.71875 186.175781 289.34375 180.574219 C 286.972656 174.972656 280.085938 171.175781 272.308594 171.175781 Z M 272.308594 197.648438 C 268.671875 197.648438 265.128906 196.769531 262.199219 195.136719 C 261.878906 194.960938 261.570312 194.78125 261.273438 194.585938 C 256.257812 191.386719 254.105469 186.300781 255.730469 181.496094 C 257.355469 176.6875 262.472656 173.007812 268.902344 172.023438 C 269.339844 171.957031 269.773438 171.902344 270.21875 171.863281 C 270.910156 171.796875 271.609375 171.765625 272.308594 171.765625 C 281.757812 171.765625 289.421875 177.558594 289.421875 184.707031 C 289.421875 191.851562 281.757812 197.648438 272.308594 197.648438 Z M 272.308594 197.648438 "/>
<path style=" stroke:none;fill-rule:nonzero;fill:rgb(97.254902%,69.019608%,4.705882%);fill-opacity:1;" d="M 280.863281 182.058594 L 263.753906 182.058594 C 263.109375 182.058594 262.585938 181.664062 262.585938 181.175781 C 262.585938 180.6875 263.109375 180.292969 263.753906 180.292969 L 280.863281 180.292969 C 281.507812 180.292969 282.03125 180.6875 282.03125 181.175781 C 282.03125 181.664062 281.507812 182.058594 280.863281 182.058594 Z M 280.863281 182.058594 "/>
<path style=" stroke:none;fill-rule:nonzero;fill:rgb(97.254902%,69.019608%,4.705882%);fill-opacity:1;" d="M 280.863281 185.589844 L 263.753906 185.589844 C 263.109375 185.589844 262.585938 185.191406 262.585938 184.707031 C 262.585938 184.21875 263.109375 183.824219 263.753906 183.824219 L 280.863281 183.824219 C 281.507812 183.824219 282.03125 184.21875 282.03125 184.707031 C 282.03125 185.191406 281.507812 185.589844 280.863281 185.589844 Z M 280.863281 185.589844 "/>
<path style=" stroke:none;fill-rule:nonzero;fill:rgb(97.254902%,69.019608%,4.705882%);fill-opacity:1;" d="M 280.863281 189.117188 L 263.753906 189.117188 C 263.109375 189.117188 262.585938 188.722656 262.585938 188.234375 C 262.585938 187.746094 263.109375 187.351562 263.753906 187.351562 L 280.863281 187.351562 C 281.507812 187.351562 282.03125 187.746094 282.03125 188.234375 C 282.03125 188.722656 281.507812 189.117188 280.863281 189.117188 Z M 280.863281 189.117188 "/>
<path style=" stroke:none;fill-rule:nonzero;fill:rgb(79.215686%,79.215686%,79.215686%);fill-opacity:1;" d="M 135.132812 215.054688 L 0.464844 215.054688 C 0.207031 215.054688 0 214.898438 0 214.707031 C 0 214.511719 0.207031 214.355469 0.464844 214.355469 L 135.132812 214.355469 C 135.386719 214.355469 135.59375 214.511719 135.59375 214.707031 C 135.59375 214.898438 135.386719 215.054688 135.132812 215.054688 Z M 135.132812 215.054688 "/>
</g>
</svg>
