<?xml version="1.0" encoding="UTF-8"?>
<svg xmlns="http://www.w3.org/2000/svg" xmlns:xlink="http://www.w3.org/1999/xlink" width="350px" height="215px" viewBox="0 0 350 215" version="1.1">
<defs>
<filter id="alpha" filterUnits="objectBoundingBox" x="0%" y="0%" width="100%" height="100%">
  <feColorMatrix type="matrix" in="SourceGraphic" values="0 0 0 0 1 0 0 0 0 1 0 0 0 0 1 0 0 0 1 0"/>
</filter>
<mask id="mask0">
  <g filter="url(#alpha)">
<rect x="0" y="0" width="350" height="215" style="fill:rgb(0%,0%,0%);fill-opacity:0.2;stroke:none;"/>
  </g>
</mask>
<clipPath id="clip1">
  <rect x="0" y="0" width="350" height="215"/>
</clipPath>
<g id="surface5" clip-path="url(#clip1)">
<path style=" stroke:none;fill-rule:nonzero;fill:rgb(0%,0%,0%);fill-opacity:1;" d="M 121.902344 129.035156 L 140.785156 145.78125 L 143.574219 137.960938 Z M 121.902344 129.035156 "/>
</g>
</defs>
<g id="surface1">
<path style=" stroke:none;fill-rule:nonzero;fill:rgb(94.509804%,94.509804%,94.509804%);fill-opacity:1;" d="M 319.316406 214.886719 L 319.316406 193.316406 C 319.316406 193.316406 332.542969 208.609375 319.316406 214.886719 Z M 319.316406 214.886719 "/>
<path style=" stroke:none;fill-rule:nonzero;fill:rgb(94.509804%,94.509804%,94.509804%);fill-opacity:1;" d="M 320.132812 214.882812 L 295.132812 200.296875 C 295.132812 200.296875 321.800781 204.445312 320.132812 214.882812 Z M 320.132812 214.882812 "/>
<path style=" stroke:none;fill-rule:nonzero;fill:rgb(100%,100%,100%);fill-opacity:1;" d="M 231.953125 95.179688 L 99.277344 144.464844 C 98.308594 144.824219 97.070312 144.617188 96.503906 144.003906 L 11.1875 51.222656 C 10.621094 50.609375 10.949219 49.820312 11.914062 49.460938 L 144.585938 0.175781 C 145.554688 -0.183594 146.792969 0.0234375 147.359375 0.636719 L 232.679688 93.417969 C 233.242188 94.03125 232.917969 94.820312 231.953125 95.179688 Z M 231.953125 95.179688 "/>
<path style=" stroke:none;fill-rule:nonzero;fill:rgb(24.705882%,23.921569%,33.72549%);fill-opacity:1;" d="M 231.953125 95.179688 L 99.277344 144.464844 C 98.308594 144.824219 97.070312 144.617188 96.503906 144.003906 L 11.1875 51.222656 C 10.621094 50.609375 10.949219 49.820312 11.914062 49.460938 L 144.585938 0.175781 C 145.554688 -0.183594 146.792969 0.0234375 147.359375 0.636719 L 232.679688 93.417969 C 233.242188 94.03125 232.917969 94.820312 231.953125 95.179688 Z M 12.324219 49.90625 C 11.742188 50.121094 11.546875 50.59375 11.886719 50.964844 L 97.203125 143.746094 C 97.542969 144.113281 98.289062 144.238281 98.867188 144.023438 L 231.542969 94.734375 C 232.121094 94.519531 232.316406 94.046875 231.976562 93.679688 L 146.660156 0.898438 C 146.320312 0.53125 145.578125 0.40625 144.996094 0.621094 Z M 12.324219 49.90625 "/>
<path style=" stroke:none;fill-rule:nonzero;fill:rgb(94.901961%,94.901961%,94.901961%);fill-opacity:1;" d="M 97.605469 59.144531 L 64.699219 71.371094 C 63.734375 71.726562 62.492188 71.519531 61.925781 70.90625 L 42.695312 49.992188 C 42.128906 49.378906 42.457031 48.589844 43.421875 48.230469 L 76.328125 36.007812 C 77.292969 35.648438 78.535156 35.855469 79.101562 36.46875 L 98.332031 57.382812 C 98.898438 57.996094 98.570312 58.785156 97.605469 59.144531 Z M 43.832031 48.675781 C 43.25 48.890625 43.054688 49.363281 43.394531 49.734375 L 62.625 70.648438 C 62.964844 71.015625 63.710938 71.140625 64.289062 70.925781 L 97.195312 58.699219 C 97.777344 58.484375 97.972656 58.011719 97.632812 57.644531 L 78.402344 36.730469 C 78.0625 36.359375 77.316406 36.234375 76.738281 36.453125 Z M 43.832031 48.675781 "/>
<path style=" stroke:none;fill-rule:nonzero;fill:rgb(97.254902%,69.019608%,4.705882%);fill-opacity:1;" d="M 90.507812 65.214844 L 57.601562 77.4375 C 56.730469 77.761719 55.613281 77.574219 55.105469 77.023438 L 35.871094 56.109375 C 35.367188 55.554688 35.660156 54.847656 36.527344 54.523438 L 69.433594 42.296875 C 70.304688 41.976562 71.421875 42.164062 71.929688 42.714844 L 91.160156 63.628906 C 91.667969 64.183594 91.375 64.890625 90.507812 65.214844 Z M 90.507812 65.214844 "/>
<path style=" stroke:none;fill-rule:nonzero;fill:rgb(80%,80%,80%);fill-opacity:1;" d="M 169.929688 49.441406 L 67.011719 87.675781 C 66.144531 87.996094 65.023438 87.8125 64.515625 87.257812 C 64.007812 86.707031 64.300781 85.996094 65.171875 85.671875 L 168.089844 47.441406 C 168.960938 47.117188 170.078125 47.304688 170.585938 47.855469 C 171.09375 48.410156 170.800781 49.117188 169.929688 49.441406 Z M 169.929688 49.441406 "/>
<path style=" stroke:none;fill-rule:nonzero;fill:rgb(80%,80%,80%);fill-opacity:1;" d="M 151.417969 65.574219 L 73.355469 94.570312 C 72.484375 94.894531 71.367188 94.707031 70.859375 94.15625 C 70.351562 93.601562 70.644531 92.890625 71.515625 92.570312 L 149.578125 63.570312 C 150.449219 63.246094 151.566406 63.433594 152.074219 63.984375 C 152.582031 64.539062 152.289062 65.25 151.417969 65.574219 Z M 151.417969 65.574219 "/>
<path style=" stroke:none;fill-rule:nonzero;fill:rgb(80%,80%,80%);fill-opacity:1;" d="M 146.257812 24.207031 L 100.75 41.113281 C 99.878906 41.4375 98.761719 41.25 98.253906 40.695312 C 97.742188 40.144531 98.039062 39.433594 98.90625 39.109375 L 144.414062 22.207031 C 145.285156 21.882812 146.402344 22.070312 146.910156 22.621094 C 147.417969 23.175781 147.125 23.882812 146.257812 24.207031 Z M 146.257812 24.207031 "/>
<path style=" stroke:none;fill-rule:nonzero;fill:rgb(80%,80%,80%);fill-opacity:1;" d="M 141.242188 35.324219 L 107.089844 48.011719 C 106.222656 48.332031 105.105469 48.148438 104.59375 47.59375 C 104.085938 47.042969 104.378906 46.332031 105.25 46.007812 L 139.402344 33.320312 C 140.269531 33 141.386719 33.183594 141.898438 33.738281 C 142.40625 34.289062 142.113281 35 141.242188 35.324219 Z M 141.242188 35.324219 "/>
<path style=" stroke:none;fill-rule:nonzero;fill:rgb(80%,80%,80%);fill-opacity:1;" d="M 182.617188 63.238281 L 79.699219 101.46875 C 78.828125 101.792969 77.710938 101.605469 77.203125 101.054688 C 76.691406 100.5 76.988281 99.789062 77.855469 99.464844 L 180.773438 61.234375 C 181.644531 60.910156 182.761719 61.097656 183.269531 61.652344 C 183.78125 62.203125 183.488281 62.914062 182.617188 63.238281 Z M 182.617188 63.238281 "/>
<path style=" stroke:none;fill-rule:nonzero;fill:rgb(80%,80%,80%);fill-opacity:1;" d="M 164.105469 79.367188 L 86.039062 108.367188 C 85.171875 108.6875 84.054688 108.503906 83.542969 107.949219 C 83.035156 107.398438 83.328125 106.6875 84.199219 106.363281 L 162.261719 77.363281 C 163.132812 77.042969 164.25 77.226562 164.757812 77.78125 C 165.265625 78.332031 164.972656 79.042969 164.105469 79.367188 Z M 164.105469 79.367188 "/>
<path style=" stroke:none;fill-rule:nonzero;fill:rgb(80%,80%,80%);fill-opacity:1;" d="M 195.300781 77.03125 L 92.382812 115.261719 C 91.511719 115.585938 90.394531 115.402344 89.886719 114.847656 C 89.378906 114.292969 89.671875 113.585938 90.542969 113.261719 L 193.460938 75.027344 C 194.332031 74.707031 195.449219 74.890625 195.957031 75.445312 C 196.464844 76 196.171875 76.707031 195.300781 77.03125 Z M 195.300781 77.03125 "/>
<path style=" stroke:none;fill-rule:nonzero;fill:rgb(80%,80%,80%);fill-opacity:1;" d="M 201.644531 83.929688 L 98.726562 122.160156 C 97.855469 122.484375 96.738281 122.296875 96.230469 121.746094 C 95.722656 121.191406 96.015625 120.480469 96.882812 120.160156 L 199.804688 81.925781 C 200.671875 81.601562 201.789062 81.789062 202.296875 82.34375 C 202.808594 82.894531 202.515625 83.605469 201.644531 83.929688 Z M 201.644531 83.929688 "/>
<path style=" stroke:none;fill-rule:nonzero;fill:rgb(97.254902%,69.019608%,4.705882%);fill-opacity:1;" d="M 168.363281 110.78125 C 169.792969 109.710938 171.078125 108.566406 172.210938 107.359375 C 173.222656 106.269531 174.21875 105.109375 174.441406 103.832031 C 174.675781 102.730469 174.066406 101.625 172.800781 100.855469 C 171.566406 100.128906 169.734375 99.996094 168.277344 100.527344 C 166.808594 101.0625 165.921875 102.066406 165.964844 103.140625 C 166.085938 104.316406 167.039062 105.394531 168.5625 106.066406 C 171.605469 107.464844 176.355469 107.394531 179.597656 106.328125 C 183.25 105.125 185.136719 101.984375 182.269531 99.835938 C 181.671875 99.386719 180.679688 99.886719 180.828125 100.371094 C 181.222656 101.722656 183.203125 102.648438 185.351562 102.476562 C 187.5 102.308594 189.070312 101.105469 188.933594 99.734375 L 187.644531 100.210938 C 190.863281 101.117188 194.597656 100.863281 197.441406 99.542969 C 198.132812 99.226562 198.75 98.847656 199.273438 98.417969 C 199.90625 97.894531 200.964844 97.554688 201.824219 97.179688 L 208.011719 94.460938 C 208.921875 94.0625 208.058594 93.109375 207.140625 93.511719 L 201.535156 95.972656 C 200.601562 96.382812 199.660156 96.789062 198.734375 97.203125 C 198.070312 97.5 197.660156 97.980469 197.058594 98.332031 C 194.722656 99.667969 191.386719 100.027344 188.496094 99.253906 C 188.226562 99.160156 187.902344 99.164062 187.636719 99.261719 C 187.375 99.359375 187.210938 99.539062 187.203125 99.734375 C 187.347656 100.554688 186.421875 101.296875 185.128906 101.390625 C 183.835938 101.488281 182.664062 100.90625 182.5 100.085938 L 181.058594 100.621094 C 182.910156 102.007812 181.679688 104.136719 179.546875 105.066406 C 177.160156 106.109375 173.636719 106.289062 170.949219 105.640625 C 169.617188 105.351562 168.535156 104.71875 167.964844 103.902344 C 167.425781 103.152344 167.703125 102.265625 168.648438 101.703125 C 169.480469 101.179688 170.816406 101.171875 171.664062 101.683594 C 172.570312 102.269531 172.953125 103.101562 172.691406 103.90625 C 172.414062 105.007812 171.457031 106.023438 170.566406 106.964844 C 169.546875 108.039062 168.398438 109.054688 167.125 110.011719 C 166.410156 110.546875 167.640625 111.320312 168.363281 110.78125 Z M 168.363281 110.78125 "/>
<path style=" stroke:none;fill-rule:nonzero;fill:rgb(100%,71.764706%,71.764706%);fill-opacity:1;" d="M 183.722656 136.925781 C 183.871094 137.023438 184.007812 137.128906 184.132812 137.238281 L 203.296875 136.941406 L 205.53125 134.34375 L 212.140625 135.976562 L 208.882812 140.816406 C 208.34375 141.621094 207.035156 142.101562 205.671875 141.996094 L 184.015625 140.335938 C 182.972656 141.175781 181.214844 141.519531 179.605469 141.195312 C 178 140.871094 176.875 139.949219 176.78125 138.878906 C 176.6875 137.808594 177.648438 136.8125 179.191406 136.378906 C 180.734375 135.945312 182.539062 136.160156 183.722656 136.925781 Z M 183.722656 136.925781 "/>
<path style=" stroke:none;fill-rule:nonzero;fill:rgb(100%,71.764706%,71.764706%);fill-opacity:1;" d="M 246.199219 210.902344 L 239.894531 210.902344 L 236.898438 195.453125 L 246.199219 195.453125 Z M 246.199219 210.902344 "/>
<path style=" stroke:none;fill-rule:nonzero;fill:rgb(18.431373%,18.039216%,25.490196%);fill-opacity:1;" d="M 247.804688 214.785156 L 227.484375 214.785156 L 227.484375 214.621094 C 227.484375 211.84375 231.027344 209.59375 235.394531 209.59375 L 247.804688 209.59375 Z M 247.804688 214.785156 "/>
<path style=" stroke:none;fill-rule:nonzero;fill:rgb(100%,71.764706%,71.764706%);fill-opacity:1;" d="M 188.976562 210.8125 L 183.183594 209.238281 L 189.972656 194.285156 L 198.527344 196.605469 Z M 188.976562 210.8125 "/>
<path style=" stroke:none;fill-rule:nonzero;fill:rgb(18.431373%,18.039216%,25.490196%);fill-opacity:1;" d="M 188.054688 214.785156 L 169.371094 209.710938 L 169.472656 209.558594 C 171.1875 207.007812 175.835938 205.820312 179.851562 206.914062 L 191.265625 210.011719 Z M 188.054688 214.785156 "/>
<path style=" stroke:none;fill-rule:nonzero;fill:rgb(100%,71.764706%,71.764706%);fill-opacity:1;" d="M 215.566406 140.273438 L 215.113281 144.964844 L 228.433594 145.871094 L 242.371094 146.820312 L 238.265625 139.691406 Z M 215.566406 140.273438 "/>
<path style=" stroke:none;fill-rule:nonzero;fill:rgb(18.431373%,18.039216%,25.490196%);fill-opacity:1;" d="M 214.691406 145.027344 L 209.519531 122.097656 L 218.488281 120.230469 L 221.121094 117.933594 L 233.941406 118.417969 L 235.824219 121.09375 L 242.65625 123.148438 L 241.609375 135.546875 L 242.375 145.921875 Z M 214.691406 145.027344 "/>
<path style=" stroke:none;fill-rule:nonzero;fill:rgb(18.431373%,18.039216%,25.490196%);fill-opacity:1;" d="M 211.4375 138.882812 L 202.3125 136.5625 L 202.351562 136.457031 C 202.390625 136.355469 206.273438 126.042969 206.789062 124.386719 C 207.328125 122.660156 209.289062 122.179688 209.371094 122.160156 L 209.433594 122.148438 L 213.042969 122.847656 L 214.628906 130.765625 Z M 211.4375 138.882812 "/>
<path style=" stroke:none;fill-rule:nonzero;fill:rgb(18.431373%,18.039216%,25.490196%);fill-opacity:1;" d="M 193.671875 208.097656 L 181.527344 206.515625 L 200.9375 172.472656 L 207.578125 160.863281 C 207.578125 160.863281 211.792969 151.554688 213.695312 147.953125 L 214.84375 143.117188 L 242.039062 145.03125 C 242.039062 145.03125 249.632812 152.121094 247.328125 163.675781 L 248.371094 207.109375 L 236.226562 207.503906 L 226.054688 163.699219 L 208.203125 187.714844 C 208.203125 187.714844 202.574219 197.960938 198.550781 200.179688 Z M 193.671875 208.097656 "/>
<path style=" stroke:none;fill-rule:nonzero;fill:rgb(100%,71.764706%,71.764706%);fill-opacity:1;" d="M 231.132812 146.644531 C 231.347656 146.640625 231.5625 146.648438 231.773438 146.664062 L 244.460938 137.53125 L 242.984375 134.722656 L 249.359375 132.753906 L 252.730469 137.5625 C 253.292969 138.359375 252.953125 139.296875 251.90625 139.863281 L 235.265625 148.824219 C 235.527344 149.882812 234.726562 150.933594 233.261719 151.464844 C 231.792969 151.992188 229.964844 151.890625 228.664062 151.203125 C 227.367188 150.519531 226.871094 149.394531 227.417969 148.382812 C 227.96875 147.367188 229.445312 146.675781 231.132812 146.644531 Z M 231.132812 146.644531 "/>
<path style=" stroke:none;fill-rule:nonzero;fill:rgb(18.431373%,18.039216%,25.490196%);fill-opacity:1;" d="M 243.445312 138.417969 L 238.15625 130.507812 L 240.21875 124.996094 L 242.441406 123.210938 C 242.773438 123.121094 243.144531 123.121094 243.472656 123.214844 C 244.292969 123.425781 244.992188 124.070312 245.546875 125.128906 L 250.507812 134.105469 Z M 243.445312 138.417969 "/>
<path style=" stroke:none;fill-rule:nonzero;fill:rgb(18.431373%,18.039216%,25.490196%);fill-opacity:1;" d="M 215.988281 115.003906 L 215.988281 109.039062 C 215.988281 104.621094 221.621094 101.042969 228.566406 101.042969 C 235.511719 101.042969 241.140625 104.621094 241.140625 109.039062 L 241.140625 115.003906 C 241.140625 115.59375 240.386719 116.074219 239.453125 116.074219 L 217.679688 116.074219 C 216.746094 116.074219 215.992188 115.59375 215.988281 115.003906 Z M 215.988281 115.003906 "/>
<path style=" stroke:none;fill-rule:nonzero;fill:rgb(100%,71.764706%,71.764706%);fill-opacity:1;" d="M 235.203125 110.078125 C 235.203125 113.3125 231.074219 115.9375 225.980469 115.9375 C 220.890625 115.9375 216.761719 113.3125 216.761719 110.078125 C 216.761719 106.839844 220.890625 104.21875 225.980469 104.21875 C 231.074219 104.21875 235.203125 106.839844 235.203125 110.078125 Z M 235.203125 110.078125 "/>
<path style=" stroke:none;fill-rule:nonzero;fill:rgb(18.431373%,18.039216%,25.490196%);fill-opacity:1;" d="M 213.015625 109.515625 C 213.019531 106.023438 217.472656 103.195312 222.964844 103.191406 L 224.839844 103.191406 C 230.332031 103.195312 234.78125 106.023438 234.789062 109.515625 L 234.789062 109.632812 L 230.820312 109.632812 L 229.46875 107.226562 L 229.199219 109.632812 L 227.148438 109.632812 L 226.464844 108.417969 L 226.328125 109.632812 L 213.015625 109.632812 Z M 213.015625 109.515625 "/>
<path style=" stroke:none;fill-rule:nonzero;fill:rgb(18.431373%,18.039216%,25.490196%);fill-opacity:1;" d="M 225.074219 116.746094 C 224.695312 116.417969 224.644531 115.984375 224.941406 115.625 C 226.929688 113.21875 229.714844 108.777344 226.019531 106.035156 L 225.753906 105.839844 L 236.484375 105.839844 L 236.484375 116.078125 L 226.738281 117.171875 C 226.636719 117.183594 226.539062 117.1875 226.4375 117.191406 C 225.898438 117.191406 225.390625 117.023438 225.074219 116.746094 Z M 225.074219 116.746094 "/>
<path style=" stroke:none;fill-rule:nonzero;fill:rgb(62.352941%,38.039216%,41.568627%);fill-opacity:1;" d="M 99.886719 207.527344 L 105.582031 208.820312 L 116.144531 195.476562 L 107.738281 193.566406 Z M 99.886719 207.527344 "/>
<path style=" stroke:none;fill-rule:nonzero;fill:rgb(18.431373%,18.039216%,25.490196%);fill-opacity:1;" d="M 96.460938 210.707031 L 99.101562 206.015625 L 110.316406 208.5625 C 114.257812 209.460938 116.3125 212.21875 114.910156 214.730469 L 114.824219 214.878906 Z M 96.460938 210.707031 "/>
<path style=" stroke:none;fill-rule:nonzero;fill:rgb(62.352941%,38.039216%,41.568627%);fill-opacity:1;" d="M 136.921875 211.105469 L 142.96875 211.105469 L 145.84375 196.28125 L 136.917969 196.28125 Z M 136.921875 211.105469 "/>
<path style=" stroke:none;fill-rule:nonzero;fill:rgb(18.431373%,18.039216%,25.490196%);fill-opacity:1;" d="M 135.378906 209.851562 L 147.289062 209.851562 C 151.480469 209.851562 154.878906 212.011719 154.878906 214.675781 L 154.878906 214.832031 L 135.378906 214.832031 Z M 135.378906 209.851562 "/>
<path style=" stroke:none;fill-rule:nonzero;fill:rgb(94.509804%,94.509804%,94.509804%);fill-opacity:1;" d="M 123.136719 116.386719 L 125.769531 113.082031 C 125.769531 113.082031 135.566406 114.644531 136.457031 118.253906 Z M 123.136719 116.386719 "/>
<path style=" stroke:none;fill-rule:nonzero;fill:rgb(18.431373%,18.039216%,25.490196%);fill-opacity:1;" d="M 112.285156 154.15625 L 119.4375 179.523438 L 100.445312 200.871094 L 111.792969 203.695312 L 131.03125 183 L 133.496094 177.355469 L 134.976562 206.828125 L 145.210938 206.632812 L 149.902344 179.113281 L 142.375 153.527344 Z M 112.285156 154.15625 "/>
<path style=" stroke:none;fill-rule:nonzero;fill:rgb(24.705882%,23.921569%,33.72549%);fill-opacity:1;" d="M 125.863281 160.152344 C 115.355469 160.152344 108.683594 158.875 108.535156 158.855469 L 108.292969 158.824219 L 113.765625 142.695312 L 114.011719 127.816406 C 114.011719 121.511719 120.539062 116.867188 121.445312 116.4375 C 121.753906 115.660156 122.585938 115.011719 123.714844 114.664062 C 125.894531 114.035156 128.554688 114.789062 128.664062 114.820312 L 136.652344 116.726562 L 136.691406 116.796875 C 136.785156 116.976562 147.304688 138.925781 147.304688 138.925781 C 147.304688 138.925781 146.667969 158.105469 146.449219 158.734375 C 146.449219 158.734375 131.699219 160.152344 125.863281 160.152344 Z M 125.863281 160.152344 "/>
<path style=" stroke:none;fill-rule:nonzero;fill:rgb(62.352941%,38.039216%,41.568627%);fill-opacity:1;" d="M 144.730469 105.183594 C 144.730469 108.972656 139.898438 112.042969 133.9375 112.042969 C 127.976562 112.042969 123.140625 108.972656 123.140625 105.183594 C 123.140625 101.394531 127.976562 98.320312 133.9375 98.320312 C 139.898438 98.320312 144.730469 101.394531 144.730469 105.183594 Z M 144.730469 105.183594 "/>
<use xlink:href="#surface5" mask="url(#mask0)"/>
<path style=" stroke:none;fill-rule:nonzero;fill:rgb(62.352941%,38.039216%,41.568627%);fill-opacity:1;" d="M 181.109375 140.429688 C 180.035156 140.96875 178.636719 141.179688 177.296875 141.003906 C 175.953125 140.828125 174.804688 140.28125 174.15625 139.511719 L 157.898438 141.167969 L 161.421875 136.210938 L 176.316406 135.402344 C 178.464844 134.78125 181.003906 135.277344 182.226562 136.5625 C 183.449219 137.84375 182.96875 139.507812 181.109375 140.429688 Z M 181.109375 140.429688 "/>
<path style=" stroke:none;fill-rule:nonzero;fill:rgb(94.509804%,94.509804%,94.509804%);fill-opacity:1;" d="M 162.257812 135.929688 L 168.097656 135.566406 L 169.71875 140.742188 L 162.367188 140.828125 Z M 162.257812 135.929688 "/>
<path style=" stroke:none;fill-rule:nonzero;fill:rgb(24.705882%,23.921569%,33.72549%);fill-opacity:1;" d="M 167.046875 142.546875 L 138.441406 140.929688 L 123.996094 126.328125 L 123.953125 126.199219 C 123.105469 123.734375 125.269531 121.25 129.007812 120.398438 C 132.75 119.542969 136.902344 120.585938 138.714844 122.835938 L 147.195312 133.347656 L 164.308594 134.992188 Z M 167.046875 142.546875 "/>
<path style=" stroke:none;fill-rule:nonzero;fill:rgb(18.431373%,18.039216%,25.490196%);fill-opacity:1;" d="M 124.742188 111.140625 L 133.703125 111.34375 C 134.246094 111.355469 135.730469 107.609375 135.925781 106.832031 C 136.242188 105.785156 137.730469 105.050781 139.40625 105.117188 C 140.074219 105.15625 141.765625 104.359375 143.511719 103.417969 C 146.824219 101.628906 146.652344 98.265625 143.015625 96.75 C 142.914062 96.710938 142.816406 96.671875 142.722656 96.636719 C 140.425781 95.820312 137.738281 95.546875 135.109375 95.527344 C 132.722656 95.507812 130.269531 95.699219 128.167969 96.414062 C 124.402344 97.703125 122.398438 100.511719 122.21875 103.230469 C 122.042969 105.945312 123.414062 108.601562 124.96875 111.132812 "/>
<path style=" stroke:none;fill-rule:nonzero;fill:rgb(79.607843%,79.607843%,79.607843%);fill-opacity:1;" d="M 349.34375 215.101562 L 0.46875 215.101562 C 0.210938 215.101562 0 214.96875 0 214.804688 C 0 214.640625 0.210938 214.507812 0.46875 214.507812 L 349.53125 214.507812 C 349.789062 214.507812 350 214.640625 350 214.804688 C 350 214.96875 349.601562 215.101562 349.34375 215.101562 Z M 349.34375 215.101562 "/>
</g>
</svg>
