<?xml version="1.0" encoding="UTF-8"?>
<svg xmlns="http://www.w3.org/2000/svg" xmlns:xlink="http://www.w3.org/1999/xlink" width="350px" height="215px" viewBox="0 0 350 215" version="1.1">
<g id="surface1">
<path style=" stroke:none;fill-rule:nonzero;fill:rgb(94.901961%,94.901961%,94.901961%);fill-opacity:1;" d="M 341.078125 10.230469 C 341.078125 11.890625 339.816406 13.238281 338.257812 13.238281 C 336.699219 13.238281 335.433594 11.890625 335.433594 10.230469 C 335.433594 8.566406 336.699219 7.21875 338.257812 7.21875 C 339.816406 7.21875 341.078125 8.566406 341.078125 10.230469 Z M 341.078125 10.230469 "/>
<path style=" stroke:none;fill-rule:nonzero;fill:rgb(94.901961%,94.901961%,94.901961%);fill-opacity:1;" d="M 329.832031 10.230469 C 329.832031 11.890625 328.566406 13.238281 327.007812 13.238281 C 325.449219 13.238281 324.1875 11.890625 324.1875 10.230469 C 324.1875 8.566406 325.449219 7.21875 327.007812 7.21875 C 328.566406 7.21875 329.832031 8.566406 329.832031 10.230469 Z M 329.832031 10.230469 "/>
<path style=" stroke:none;fill-rule:nonzero;fill:rgb(94.901961%,94.901961%,94.901961%);fill-opacity:1;" d="M 318.582031 10.230469 C 318.582031 11.890625 317.320312 13.238281 315.761719 13.238281 C 314.203125 13.238281 312.9375 11.890625 312.9375 10.230469 C 312.9375 8.566406 314.203125 7.21875 315.761719 7.21875 C 317.320312 7.21875 318.582031 8.566406 318.582031 10.230469 Z M 318.582031 10.230469 "/>
<path style=" stroke:none;fill-rule:nonzero;fill:rgb(94.901961%,94.901961%,94.901961%);fill-opacity:1;" d="M 307.335938 10.230469 C 307.335938 11.890625 306.070312 13.238281 304.511719 13.238281 C 302.953125 13.238281 301.691406 11.890625 301.691406 10.230469 C 301.691406 8.566406 302.953125 7.21875 304.511719 7.21875 C 306.070312 7.21875 307.335938 8.566406 307.335938 10.230469 Z M 307.335938 10.230469 "/>
<path style=" stroke:none;fill-rule:nonzero;fill:rgb(94.901961%,94.901961%,94.901961%);fill-opacity:1;" d="M 341.078125 22.792969 C 341.078125 24.457031 339.816406 25.804688 338.257812 25.804688 C 336.699219 25.804688 335.433594 24.457031 335.433594 22.792969 C 335.433594 21.132812 336.699219 19.785156 338.257812 19.785156 C 339.816406 19.785156 341.078125 21.132812 341.078125 22.792969 Z M 341.078125 22.792969 "/>
<path style=" stroke:none;fill-rule:nonzero;fill:rgb(94.901961%,94.901961%,94.901961%);fill-opacity:1;" d="M 329.832031 22.792969 C 329.832031 24.457031 328.566406 25.804688 327.007812 25.804688 C 325.449219 25.804688 324.1875 24.457031 324.1875 22.792969 C 324.1875 21.132812 325.449219 19.785156 327.007812 19.785156 C 328.566406 19.785156 329.832031 21.132812 329.832031 22.792969 Z M 329.832031 22.792969 "/>
<path style=" stroke:none;fill-rule:nonzero;fill:rgb(94.901961%,94.901961%,94.901961%);fill-opacity:1;" d="M 318.582031 22.792969 C 318.582031 24.457031 317.320312 25.804688 315.761719 25.804688 C 314.203125 25.804688 312.9375 24.457031 312.9375 22.792969 C 312.9375 21.132812 314.203125 19.785156 315.761719 19.785156 C 317.320312 19.785156 318.582031 21.132812 318.582031 22.792969 Z M 318.582031 22.792969 "/>
<path style=" stroke:none;fill-rule:nonzero;fill:rgb(94.901961%,94.901961%,94.901961%);fill-opacity:1;" d="M 307.335938 22.792969 C 307.335938 24.457031 306.070312 25.804688 304.511719 25.804688 C 302.953125 25.804688 301.691406 24.457031 301.691406 22.792969 C 301.691406 21.132812 302.953125 19.785156 304.511719 19.785156 C 306.070312 19.785156 307.335938 21.132812 307.335938 22.792969 Z M 307.335938 22.792969 "/>
<path style=" stroke:none;fill-rule:nonzero;fill:rgb(94.901961%,94.901961%,94.901961%);fill-opacity:1;" d="M 341.078125 35.359375 C 341.078125 37.019531 339.816406 38.367188 338.257812 38.367188 C 336.699219 38.367188 335.433594 37.019531 335.433594 35.359375 C 335.433594 33.695312 336.699219 32.347656 338.257812 32.347656 C 339.816406 32.347656 341.078125 33.695312 341.078125 35.359375 Z M 341.078125 35.359375 "/>
<path style=" stroke:none;fill-rule:nonzero;fill:rgb(94.901961%,94.901961%,94.901961%);fill-opacity:1;" d="M 329.832031 35.359375 C 329.832031 37.019531 328.566406 38.367188 327.007812 38.367188 C 325.449219 38.367188 324.1875 37.019531 324.1875 35.359375 C 324.1875 33.695312 325.449219 32.347656 327.007812 32.347656 C 328.566406 32.347656 329.832031 33.695312 329.832031 35.359375 Z M 329.832031 35.359375 "/>
<path style=" stroke:none;fill-rule:nonzero;fill:rgb(94.901961%,94.901961%,94.901961%);fill-opacity:1;" d="M 318.582031 35.359375 C 318.582031 37.019531 317.320312 38.367188 315.761719 38.367188 C 314.203125 38.367188 312.9375 37.019531 312.9375 35.359375 C 312.9375 33.695312 314.203125 32.347656 315.761719 32.347656 C 317.320312 32.347656 318.582031 33.695312 318.582031 35.359375 Z M 318.582031 35.359375 "/>
<path style=" stroke:none;fill-rule:nonzero;fill:rgb(94.901961%,94.901961%,94.901961%);fill-opacity:1;" d="M 307.335938 35.359375 C 307.335938 37.019531 306.070312 38.367188 304.511719 38.367188 C 302.953125 38.367188 301.691406 37.019531 301.691406 35.359375 C 301.691406 33.695312 302.953125 32.347656 304.511719 32.347656 C 306.070312 32.347656 307.335938 33.695312 307.335938 35.359375 Z M 307.335938 35.359375 "/>
<path style=" stroke:none;fill-rule:nonzero;fill:rgb(94.901961%,94.901961%,94.901961%);fill-opacity:1;" d="M 341.078125 47.921875 C 341.078125 49.585938 339.816406 50.933594 338.257812 50.933594 C 336.699219 50.933594 335.433594 49.585938 335.433594 47.921875 C 335.433594 46.261719 336.699219 44.914062 338.257812 44.914062 C 339.816406 44.914062 341.078125 46.261719 341.078125 47.921875 Z M 341.078125 47.921875 "/>
<path style=" stroke:none;fill-rule:nonzero;fill:rgb(94.901961%,94.901961%,94.901961%);fill-opacity:1;" d="M 329.832031 47.921875 C 329.832031 49.585938 328.566406 50.933594 327.007812 50.933594 C 325.449219 50.933594 324.1875 49.585938 324.1875 47.921875 C 324.1875 46.261719 325.449219 44.914062 327.007812 44.914062 C 328.566406 44.914062 329.832031 46.261719 329.832031 47.921875 Z M 329.832031 47.921875 "/>
<path style=" stroke:none;fill-rule:nonzero;fill:rgb(94.901961%,94.901961%,94.901961%);fill-opacity:1;" d="M 318.582031 47.921875 C 318.582031 49.585938 317.320312 50.933594 315.761719 50.933594 C 314.203125 50.933594 312.9375 49.585938 312.9375 47.921875 C 312.9375 46.261719 314.203125 44.914062 315.761719 44.914062 C 317.320312 44.914062 318.582031 46.261719 318.582031 47.921875 Z M 318.582031 47.921875 "/>
<path style=" stroke:none;fill-rule:nonzero;fill:rgb(94.901961%,94.901961%,94.901961%);fill-opacity:1;" d="M 307.335938 47.921875 C 307.335938 49.585938 306.070312 50.933594 304.511719 50.933594 C 302.953125 50.933594 301.691406 49.585938 301.691406 47.921875 C 301.691406 46.261719 302.953125 44.914062 304.511719 44.914062 C 306.070312 44.914062 307.335938 46.261719 307.335938 47.921875 Z M 307.335938 47.921875 "/>
<path style=" stroke:none;fill-rule:nonzero;fill:rgb(94.901961%,94.901961%,94.901961%);fill-opacity:1;" d="M 341.078125 60.488281 C 341.078125 62.152344 339.816406 63.5 338.257812 63.5 C 336.699219 63.5 335.433594 62.152344 335.433594 60.488281 C 335.433594 58.828125 336.699219 57.480469 338.257812 57.480469 C 339.816406 57.480469 341.078125 58.828125 341.078125 60.488281 Z M 341.078125 60.488281 "/>
<path style=" stroke:none;fill-rule:nonzero;fill:rgb(94.901961%,94.901961%,94.901961%);fill-opacity:1;" d="M 329.832031 60.488281 C 329.832031 62.152344 328.566406 63.5 327.007812 63.5 C 325.449219 63.5 324.1875 62.152344 324.1875 60.488281 C 324.1875 58.828125 325.449219 57.480469 327.007812 57.480469 C 328.566406 57.480469 329.832031 58.828125 329.832031 60.488281 Z M 329.832031 60.488281 "/>
<path style=" stroke:none;fill-rule:nonzero;fill:rgb(94.901961%,94.901961%,94.901961%);fill-opacity:1;" d="M 318.582031 60.488281 C 318.582031 62.152344 317.320312 63.5 315.761719 63.5 C 314.203125 63.5 312.9375 62.152344 312.9375 60.488281 C 312.9375 58.828125 314.203125 57.480469 315.761719 57.480469 C 317.320312 57.480469 318.582031 58.828125 318.582031 60.488281 Z M 318.582031 60.488281 "/>
<path style=" stroke:none;fill-rule:nonzero;fill:rgb(94.901961%,94.901961%,94.901961%);fill-opacity:1;" d="M 307.335938 60.488281 C 307.335938 62.152344 306.070312 63.5 304.511719 63.5 C 302.953125 63.5 301.691406 62.152344 301.691406 60.488281 C 301.691406 58.828125 302.953125 57.480469 304.511719 57.480469 C 306.070312 57.480469 307.335938 58.828125 307.335938 60.488281 Z M 307.335938 60.488281 "/>
<path style=" stroke:none;fill-rule:nonzero;fill:rgb(94.901961%,94.901961%,94.901961%);fill-opacity:1;" d="M 341.078125 73.054688 C 341.078125 74.714844 339.816406 76.0625 338.257812 76.0625 C 336.699219 76.0625 335.433594 74.714844 335.433594 73.054688 C 335.433594 71.390625 336.699219 70.042969 338.257812 70.042969 C 339.816406 70.042969 341.078125 71.390625 341.078125 73.054688 Z M 341.078125 73.054688 "/>
<path style=" stroke:none;fill-rule:nonzero;fill:rgb(94.901961%,94.901961%,94.901961%);fill-opacity:1;" d="M 329.832031 73.054688 C 329.832031 74.714844 328.566406 76.0625 327.007812 76.0625 C 325.449219 76.0625 324.1875 74.714844 324.1875 73.054688 C 324.1875 71.390625 325.449219 70.042969 327.007812 70.042969 C 328.566406 70.042969 329.832031 71.390625 329.832031 73.054688 Z M 329.832031 73.054688 "/>
<path style=" stroke:none;fill-rule:nonzero;fill:rgb(94.901961%,94.901961%,94.901961%);fill-opacity:1;" d="M 318.582031 73.054688 C 318.582031 74.714844 317.320312 76.0625 315.761719 76.0625 C 314.203125 76.0625 312.9375 74.714844 312.9375 73.054688 C 312.9375 71.390625 314.203125 70.042969 315.761719 70.042969 C 317.320312 70.042969 318.582031 71.390625 318.582031 73.054688 Z M 318.582031 73.054688 "/>
<path style=" stroke:none;fill-rule:nonzero;fill:rgb(94.901961%,94.901961%,94.901961%);fill-opacity:1;" d="M 307.335938 73.054688 C 307.335938 74.714844 306.070312 76.0625 304.511719 76.0625 C 302.953125 76.0625 301.691406 74.714844 301.691406 73.054688 C 301.691406 71.390625 302.953125 70.042969 304.511719 70.042969 C 306.070312 70.042969 307.335938 71.390625 307.335938 73.054688 Z M 307.335938 73.054688 "/>
<path style=" stroke:none;fill-rule:nonzero;fill:rgb(94.901961%,94.901961%,94.901961%);fill-opacity:1;" d="M 333.453125 207.535156 C 335.488281 202.84375 337.527344 198.082031 338.410156 192.996094 C 339.292969 187.914062 338.921875 182.394531 336.390625 177.984375 C 333.859375 173.574219 328.871094 170.582031 324.113281 171.582031 C 320.207031 172.398438 317.066406 175.683594 315.230469 179.449219 C 313.390625 183.21875 312.65625 187.46875 311.941406 191.648438 C 311.710938 186.898438 311.464844 182.078125 309.988281 177.59375 C 308.507812 173.109375 305.597656 168.929688 301.445312 167.195312 C 297.296875 165.460938 291.898438 166.824219 289.710938 170.964844 C 286.628906 176.800781 290.714844 184.984375 287.171875 190.515625 C 286.5625 184.96875 281.125 180.585938 275.957031 181.476562 C 270.789062 182.371094 266.921875 188.355469 267.984375 193.824219 C 268.617188 197.078125 270.699219 199.84375 273.1875 201.84375 C 275.675781 203.84375 278.570312 206.160156 281.433594 207.46875 Z M 333.453125 207.535156 "/>
<path style=" stroke:none;fill-rule:nonzero;fill:rgb(100%,100%,100%);fill-opacity:1;" d="M 270.699219 185.398438 C 274.804688 186.925781 278.949219 188.476562 282.699219 190.867188 C 286.058594 193.011719 289.050781 195.898438 290.9375 199.597656 C 291.972656 201.578125 292.589844 203.78125 292.738281 206.046875 C 292.765625 206.519531 293.460938 206.523438 293.433594 206.046875 C 293.191406 201.828125 291.261719 197.96875 288.59375 194.917969 C 285.667969 191.574219 281.878906 189.289062 277.964844 187.515625 C 275.644531 186.460938 273.265625 185.570312 270.882812 184.683594 C 270.460938 184.523438 270.28125 185.238281 270.699219 185.398438 Z M 270.699219 185.398438 "/>
<path style=" stroke:none;fill-rule:nonzero;fill:rgb(100%,100%,100%);fill-opacity:1;" d="M 294.382812 167.929688 C 296.90625 172.410156 298.925781 177.195312 300.402344 182.175781 C 301.878906 187.160156 302.8125 192.308594 303.175781 197.519531 C 303.378906 200.4375 303.402344 203.367188 303.242188 206.285156 C 303.21875 206.761719 303.914062 206.761719 303.9375 206.285156 C 304.21875 201.019531 303.917969 195.738281 303.046875 190.546875 C 302.175781 185.355469 300.746094 180.289062 298.785156 175.449219 C 297.683594 172.730469 296.414062 170.09375 294.984375 167.554688 C 294.882812 167.386719 294.675781 167.332031 294.511719 167.433594 C 294.351562 167.535156 294.292969 167.753906 294.382812 167.929688 Z M 294.382812 167.929688 "/>
<path style=" stroke:none;fill-rule:nonzero;fill:rgb(100%,100%,100%);fill-opacity:1;" d="M 328.378906 172.183594 C 324.8125 180.734375 322.300781 189.742188 320.910156 198.980469 C 320.519531 201.574219 320.214844 204.183594 320.003906 206.804688 C 319.964844 207.277344 320.660156 207.277344 320.699219 206.804688 C 321.453125 197.585938 323.320312 188.507812 326.257812 179.800781 C 327.082031 177.351562 327.988281 174.9375 328.980469 172.558594 C 329.160156 172.125 328.5625 171.75 328.378906 172.183594 Z M 328.378906 172.183594 "/>
<path style=" stroke:none;fill-rule:nonzero;fill:rgb(24.705882%,23.921569%,33.72549%);fill-opacity:1;" d="M 349.5625 207.410156 L 0.4375 207.410156 C 0.195312 207.410156 0 207.203125 0 206.945312 C 0 206.6875 0.195312 206.480469 0.4375 206.480469 L 349.5625 206.480469 C 349.804688 206.480469 350 206.6875 350 206.945312 C 350 207.203125 349.804688 207.410156 349.5625 207.410156 Z M 349.5625 207.410156 "/>
<path style=" stroke:none;fill-rule:nonzero;fill:rgb(24.705882%,23.921569%,33.72549%);fill-opacity:1;" d="M 180.789062 88.671875 L 120.246094 88.671875 C 118.433594 88.671875 116.964844 87.105469 116.964844 85.171875 L 116.964844 3.5 C 116.964844 1.566406 118.433594 0.00390625 120.246094 0 L 180.789062 0 C 182.601562 0.00390625 184.066406 1.566406 184.070312 3.5 L 184.070312 85.171875 C 184.066406 87.105469 182.601562 88.671875 180.789062 88.671875 Z M 120.246094 0.777344 C 118.835938 0.78125 117.695312 1.996094 117.691406 3.5 L 117.691406 85.171875 C 117.695312 86.675781 118.835938 87.894531 120.246094 87.894531 L 180.789062 87.894531 C 182.195312 87.894531 183.339844 86.675781 183.339844 85.171875 L 183.339844 3.5 C 183.339844 1.996094 182.195312 0.78125 180.789062 0.777344 Z M 120.246094 0.777344 "/>
<path style=" stroke:none;fill-rule:nonzero;fill:rgb(97.254902%,69.019608%,4.705882%);fill-opacity:1;" d="M 145.480469 39.257812 L 132.152344 39.257812 C 131.246094 39.257812 130.511719 38.472656 130.511719 37.507812 L 130.511719 20.738281 C 130.511719 19.773438 131.246094 18.988281 132.152344 18.988281 L 145.480469 18.988281 C 146.386719 18.988281 147.121094 19.773438 147.121094 20.738281 L 147.121094 37.507812 C 147.121094 38.472656 146.386719 39.257812 145.480469 39.257812 Z M 145.480469 39.257812 "/>
<path style=" stroke:none;fill-rule:nonzero;fill:rgb(80%,80%,80%);fill-opacity:1;" d="M 171.375 47.035156 L 158.046875 47.035156 C 157.140625 47.035156 156.410156 46.253906 156.40625 45.285156 L 156.40625 28.515625 C 156.410156 27.550781 157.140625 26.765625 158.046875 26.765625 L 171.375 26.765625 C 172.28125 26.765625 173.015625 27.550781 173.015625 28.515625 L 173.015625 45.285156 C 173.015625 46.253906 172.28125 47.035156 171.375 47.035156 Z M 171.375 47.035156 "/>
<path style=" stroke:none;fill-rule:nonzero;fill:rgb(100%,39.607843%,51.764706%);fill-opacity:1;" d="M 150.585938 70.761719 L 137.261719 70.761719 C 136.355469 70.757812 135.621094 69.976562 135.617188 69.007812 L 135.617188 52.238281 C 135.621094 51.273438 136.355469 50.492188 137.261719 50.488281 L 150.585938 50.488281 C 151.492188 50.492188 152.226562 51.273438 152.226562 52.238281 L 152.226562 69.007812 C 152.226562 69.976562 151.492188 70.757812 150.585938 70.761719 Z M 150.585938 70.761719 "/>
<path style=" stroke:none;fill-rule:nonzero;fill:rgb(94.901961%,94.901961%,94.901961%);fill-opacity:1;" d="M 53.414062 5.5 C 53.414062 7.164062 52.152344 8.511719 50.59375 8.511719 C 49.035156 8.511719 47.769531 7.164062 47.769531 5.5 C 47.769531 3.839844 49.035156 2.492188 50.59375 2.492188 C 52.152344 2.492188 53.414062 3.839844 53.414062 5.5 Z M 53.414062 5.5 "/>
<path style=" stroke:none;fill-rule:nonzero;fill:rgb(94.901961%,94.901961%,94.901961%);fill-opacity:1;" d="M 53.414062 17.496094 C 53.414062 19.15625 52.152344 20.503906 50.59375 20.503906 C 49.035156 20.503906 47.769531 19.15625 47.769531 17.496094 C 47.769531 15.832031 49.035156 14.484375 50.59375 14.484375 C 52.152344 14.484375 53.414062 15.832031 53.414062 17.496094 Z M 53.414062 17.496094 "/>
<path style=" stroke:none;fill-rule:nonzero;fill:rgb(94.901961%,94.901961%,94.901961%);fill-opacity:1;" d="M 53.414062 29.488281 C 53.414062 31.152344 52.152344 32.5 50.59375 32.5 C 49.035156 32.5 47.769531 31.152344 47.769531 29.488281 C 47.769531 27.828125 49.035156 26.480469 50.59375 26.480469 C 52.152344 26.480469 53.414062 27.828125 53.414062 29.488281 Z M 53.414062 29.488281 "/>
<path style=" stroke:none;fill-rule:nonzero;fill:rgb(94.901961%,94.901961%,94.901961%);fill-opacity:1;" d="M 53.414062 41.484375 C 53.414062 43.144531 52.152344 44.492188 50.59375 44.492188 C 49.035156 44.492188 47.769531 43.144531 47.769531 41.484375 C 47.769531 39.820312 49.035156 38.472656 50.59375 38.472656 C 52.152344 38.472656 53.414062 39.820312 53.414062 41.484375 Z M 53.414062 41.484375 "/>
<path style=" stroke:none;fill-rule:nonzero;fill:rgb(94.901961%,94.901961%,94.901961%);fill-opacity:1;" d="M 65.199219 5.5 C 65.199219 7.164062 63.933594 8.511719 62.375 8.511719 C 60.816406 8.511719 59.554688 7.164062 59.554688 5.5 C 59.554688 3.839844 60.816406 2.492188 62.375 2.492188 C 63.933594 2.492188 65.199219 3.839844 65.199219 5.5 Z M 65.199219 5.5 "/>
<path style=" stroke:none;fill-rule:nonzero;fill:rgb(94.901961%,94.901961%,94.901961%);fill-opacity:1;" d="M 65.199219 17.496094 C 65.199219 19.15625 63.933594 20.503906 62.375 20.503906 C 60.816406 20.503906 59.554688 19.15625 59.554688 17.496094 C 59.554688 15.832031 60.816406 14.484375 62.375 14.484375 C 63.933594 14.484375 65.199219 15.832031 65.199219 17.496094 Z M 65.199219 17.496094 "/>
<path style=" stroke:none;fill-rule:nonzero;fill:rgb(94.901961%,94.901961%,94.901961%);fill-opacity:1;" d="M 65.199219 29.488281 C 65.199219 31.152344 63.933594 32.5 62.375 32.5 C 60.816406 32.5 59.554688 31.152344 59.554688 29.488281 C 59.554688 27.828125 60.816406 26.480469 62.375 26.480469 C 63.933594 26.480469 65.199219 27.828125 65.199219 29.488281 Z M 65.199219 29.488281 "/>
<path style=" stroke:none;fill-rule:nonzero;fill:rgb(94.901961%,94.901961%,94.901961%);fill-opacity:1;" d="M 65.199219 41.484375 C 65.199219 43.144531 63.933594 44.492188 62.375 44.492188 C 60.816406 44.492188 59.554688 43.144531 59.554688 41.484375 C 59.554688 39.820312 60.816406 38.472656 62.375 38.472656 C 63.933594 38.472656 65.199219 39.820312 65.199219 41.484375 Z M 65.199219 41.484375 "/>
<path style=" stroke:none;fill-rule:nonzero;fill:rgb(94.901961%,94.901961%,94.901961%);fill-opacity:1;" d="M 76.980469 5.5 C 76.980469 7.164062 75.71875 8.511719 74.160156 8.511719 C 72.601562 8.511719 71.335938 7.164062 71.335938 5.5 C 71.335938 3.839844 72.601562 2.492188 74.160156 2.492188 C 75.71875 2.492188 76.980469 3.839844 76.980469 5.5 Z M 76.980469 5.5 "/>
<path style=" stroke:none;fill-rule:nonzero;fill:rgb(94.901961%,94.901961%,94.901961%);fill-opacity:1;" d="M 76.980469 17.496094 C 76.980469 19.15625 75.71875 20.503906 74.160156 20.503906 C 72.601562 20.503906 71.335938 19.15625 71.335938 17.496094 C 71.335938 15.832031 72.601562 14.484375 74.160156 14.484375 C 75.71875 14.484375 76.980469 15.832031 76.980469 17.496094 Z M 76.980469 17.496094 "/>
<path style=" stroke:none;fill-rule:nonzero;fill:rgb(94.901961%,94.901961%,94.901961%);fill-opacity:1;" d="M 76.980469 29.488281 C 76.980469 31.152344 75.71875 32.5 74.160156 32.5 C 72.601562 32.5 71.335938 31.152344 71.335938 29.488281 C 71.335938 27.828125 72.601562 26.480469 74.160156 26.480469 C 75.71875 26.480469 76.980469 27.828125 76.980469 29.488281 Z M 76.980469 29.488281 "/>
<path style=" stroke:none;fill-rule:nonzero;fill:rgb(94.901961%,94.901961%,94.901961%);fill-opacity:1;" d="M 76.980469 41.484375 C 76.980469 43.144531 75.71875 44.492188 74.160156 44.492188 C 72.601562 44.492188 71.335938 43.144531 71.335938 41.484375 C 71.335938 39.820312 72.601562 38.472656 74.160156 38.472656 C 75.71875 38.472656 76.980469 39.820312 76.980469 41.484375 Z M 76.980469 41.484375 "/>
<path style=" stroke:none;fill-rule:nonzero;fill:rgb(94.901961%,94.901961%,94.901961%);fill-opacity:1;" d="M 88.765625 5.5 C 88.765625 7.164062 87.5 8.511719 85.941406 8.511719 C 84.382812 8.511719 83.121094 7.164062 83.121094 5.5 C 83.121094 3.839844 84.382812 2.492188 85.941406 2.492188 C 87.5 2.492188 88.765625 3.839844 88.765625 5.5 Z M 88.765625 5.5 "/>
<path style=" stroke:none;fill-rule:nonzero;fill:rgb(94.901961%,94.901961%,94.901961%);fill-opacity:1;" d="M 88.765625 17.496094 C 88.765625 19.15625 87.5 20.503906 85.941406 20.503906 C 84.382812 20.503906 83.121094 19.15625 83.121094 17.496094 C 83.121094 15.832031 84.382812 14.484375 85.941406 14.484375 C 87.5 14.484375 88.765625 15.832031 88.765625 17.496094 Z M 88.765625 17.496094 "/>
<path style=" stroke:none;fill-rule:nonzero;fill:rgb(94.901961%,94.901961%,94.901961%);fill-opacity:1;" d="M 88.765625 29.488281 C 88.765625 31.152344 87.5 32.5 85.941406 32.5 C 84.382812 32.5 83.121094 31.152344 83.121094 29.488281 C 83.121094 27.828125 84.382812 26.480469 85.941406 26.480469 C 87.5 26.480469 88.765625 27.828125 88.765625 29.488281 Z M 88.765625 29.488281 "/>
<path style=" stroke:none;fill-rule:nonzero;fill:rgb(94.901961%,94.901961%,94.901961%);fill-opacity:1;" d="M 88.765625 41.484375 C 88.765625 43.144531 87.5 44.492188 85.941406 44.492188 C 84.382812 44.492188 83.121094 43.144531 83.121094 41.484375 C 83.121094 39.820312 84.382812 38.472656 85.941406 38.472656 C 87.5 38.472656 88.765625 39.820312 88.765625 41.484375 Z M 88.765625 41.484375 "/>
<path style=" stroke:none;fill-rule:nonzero;fill:rgb(94.901961%,94.901961%,94.901961%);fill-opacity:1;" d="M 100.546875 5.5 C 100.546875 7.164062 99.285156 8.511719 97.726562 8.511719 C 96.167969 8.511719 94.902344 7.164062 94.902344 5.5 C 94.902344 3.839844 96.167969 2.492188 97.726562 2.492188 C 99.285156 2.492188 100.546875 3.839844 100.546875 5.5 Z M 100.546875 5.5 "/>
<path style=" stroke:none;fill-rule:nonzero;fill:rgb(94.901961%,94.901961%,94.901961%);fill-opacity:1;" d="M 100.546875 17.496094 C 100.546875 19.15625 99.285156 20.503906 97.726562 20.503906 C 96.167969 20.503906 94.902344 19.15625 94.902344 17.496094 C 94.902344 15.832031 96.167969 14.484375 97.726562 14.484375 C 99.285156 14.484375 100.546875 15.832031 100.546875 17.496094 Z M 100.546875 17.496094 "/>
<path style=" stroke:none;fill-rule:nonzero;fill:rgb(94.901961%,94.901961%,94.901961%);fill-opacity:1;" d="M 100.546875 29.488281 C 100.546875 31.152344 99.285156 32.5 97.726562 32.5 C 96.167969 32.5 94.902344 31.152344 94.902344 29.488281 C 94.902344 27.828125 96.167969 26.480469 97.726562 26.480469 C 99.285156 26.480469 100.546875 27.828125 100.546875 29.488281 Z M 100.546875 29.488281 "/>
<path style=" stroke:none;fill-rule:nonzero;fill:rgb(94.901961%,94.901961%,94.901961%);fill-opacity:1;" d="M 100.546875 41.484375 C 100.546875 43.144531 99.285156 44.492188 97.726562 44.492188 C 96.167969 44.492188 94.902344 43.144531 94.902344 41.484375 C 94.902344 39.820312 96.167969 38.472656 97.726562 38.472656 C 99.285156 38.472656 100.546875 39.820312 100.546875 41.484375 Z M 100.546875 41.484375 "/>
<path style=" stroke:none;fill-rule:nonzero;fill:rgb(94.901961%,94.901961%,94.901961%);fill-opacity:1;" d="M 112.332031 5.5 C 112.332031 7.164062 111.066406 8.511719 109.507812 8.511719 C 107.949219 8.511719 106.6875 7.164062 106.6875 5.5 C 106.6875 3.839844 107.949219 2.492188 109.507812 2.492188 C 111.066406 2.492188 112.332031 3.839844 112.332031 5.5 Z M 112.332031 5.5 "/>
<path style=" stroke:none;fill-rule:nonzero;fill:rgb(94.901961%,94.901961%,94.901961%);fill-opacity:1;" d="M 112.332031 17.496094 C 112.332031 19.15625 111.066406 20.503906 109.507812 20.503906 C 107.949219 20.503906 106.6875 19.15625 106.6875 17.496094 C 106.6875 15.832031 107.949219 14.484375 109.507812 14.484375 C 111.066406 14.484375 112.332031 15.832031 112.332031 17.496094 Z M 112.332031 17.496094 "/>
<path style=" stroke:none;fill-rule:nonzero;fill:rgb(94.901961%,94.901961%,94.901961%);fill-opacity:1;" d="M 112.332031 29.488281 C 112.332031 31.152344 111.066406 32.5 109.507812 32.5 C 107.949219 32.5 106.6875 31.152344 106.6875 29.488281 C 106.6875 27.828125 107.949219 26.480469 109.507812 26.480469 C 111.066406 26.480469 112.332031 27.828125 112.332031 29.488281 Z M 112.332031 29.488281 "/>
<path style=" stroke:none;fill-rule:nonzero;fill:rgb(94.901961%,94.901961%,94.901961%);fill-opacity:1;" d="M 112.332031 41.484375 C 112.332031 43.144531 111.066406 44.492188 109.507812 44.492188 C 107.949219 44.492188 106.6875 43.144531 106.6875 41.484375 C 106.6875 39.820312 107.949219 38.472656 109.507812 38.472656 C 111.066406 38.472656 112.332031 39.820312 112.332031 41.484375 Z M 112.332031 41.484375 "/>
<path style=" stroke:none;fill-rule:nonzero;fill:rgb(18.431373%,18.039216%,25.490196%);fill-opacity:1;" d="M 97.34375 191.925781 C 97.34375 202.726562 89.136719 211.480469 79.007812 211.480469 C 68.882812 211.480469 60.675781 202.726562 60.675781 191.925781 C 60.675781 181.128906 68.882812 172.375 79.007812 172.375 C 89.136719 172.375 97.34375 181.128906 97.34375 191.925781 Z M 97.34375 191.925781 "/>
<path style=" stroke:none;fill-rule:nonzero;fill:rgb(18.431373%,18.039216%,25.490196%);fill-opacity:1;" d="M 63.113281 209.539062 L 72.039062 204.773438 L 74.53125 210.082031 L 65.609375 214.847656 Z M 63.113281 209.539062 "/>
<path style=" stroke:none;fill-rule:nonzero;fill:rgb(18.431373%,18.039216%,25.490196%);fill-opacity:1;" d="M 63.867188 210.035156 C 61.726562 208.53125 59.5625 208.003906 59.035156 208.859375 C 58.503906 209.714844 59.8125 211.628906 61.953125 213.136719 C 64.089844 214.640625 66.253906 215.164062 66.785156 214.308594 C 67.3125 213.453125 66.007812 211.539062 63.867188 210.035156 Z M 63.867188 210.035156 "/>
<path style=" stroke:none;fill-rule:nonzero;fill:rgb(18.431373%,18.039216%,25.490196%);fill-opacity:1;" d="M 83.488281 210.082031 L 85.980469 204.773438 L 94.90625 209.539062 L 92.410156 214.847656 Z M 83.488281 210.082031 "/>
<path style=" stroke:none;fill-rule:nonzero;fill:rgb(18.431373%,18.039216%,25.490196%);fill-opacity:1;" d="M 98.984375 208.859375 C 98.457031 208.003906 96.292969 208.53125 94.152344 210.035156 C 92.011719 211.539062 90.707031 213.453125 91.234375 214.308594 C 91.761719 215.164062 93.925781 214.640625 96.066406 213.136719 C 98.207031 211.628906 99.515625 209.714844 98.984375 208.859375 Z M 98.984375 208.859375 "/>
<path style=" stroke:none;fill-rule:nonzero;fill:rgb(100%,100%,100%);fill-opacity:1;" d="M 83.992188 187.144531 C 83.992188 190.835938 81.1875 193.828125 77.726562 193.828125 C 74.265625 193.828125 71.460938 190.835938 71.460938 187.144531 C 71.460938 183.453125 74.265625 180.464844 77.726562 180.464844 C 81.1875 180.464844 83.992188 183.453125 83.992188 187.144531 Z M 83.992188 187.144531 "/>
<path style=" stroke:none;fill-rule:nonzero;fill:rgb(24.705882%,23.921569%,33.72549%);fill-opacity:1;" d="M 74.058594 187.308594 C 76.292969 185.492188 78.820312 188.1875 77.117188 190.570312 C 74.882812 192.386719 72.355469 189.691406 74.058594 187.308594 Z M 74.058594 187.308594 "/>
<path style=" stroke:none;fill-rule:nonzero;fill:rgb(80%,80%,80%);fill-opacity:1;" d="M 93.472656 170.65625 C 93.75 163.417969 87.898438 157.289062 80.40625 156.964844 C 72.914062 156.640625 66.617188 162.246094 66.339844 169.484375 C 66.066406 176.722656 71.273438 178.367188 78.765625 178.691406 C 86.257812 179.015625 93.195312 177.894531 93.472656 170.65625 Z M 93.472656 170.65625 "/>
<path style=" stroke:none;fill-rule:nonzero;fill:rgb(18.431373%,18.039216%,25.490196%);fill-opacity:1;" d="M 100.253906 192.75 C 96.957031 188.652344 93.304688 186.226562 92.097656 187.332031 C 90.894531 188.433594 92.589844 192.652344 95.886719 196.746094 C 99.183594 200.84375 102.835938 203.269531 104.042969 202.164062 C 105.246094 201.0625 103.550781 196.84375 100.253906 192.75 Z M 100.253906 192.75 "/>
<path style=" stroke:none;fill-rule:nonzero;fill:rgb(18.431373%,18.039216%,25.490196%);fill-opacity:1;" d="M 65.972656 187.332031 C 64.765625 186.226562 61.113281 188.652344 57.816406 192.75 C 54.519531 196.84375 52.824219 201.0625 54.027344 202.164062 C 55.234375 203.269531 58.886719 200.84375 62.183594 196.746094 C 65.480469 192.652344 67.175781 188.433594 65.972656 187.332031 Z M 65.972656 187.332031 "/>
<path style=" stroke:none;fill-rule:nonzero;fill:rgb(100%,100%,100%);fill-opacity:1;" d="M 84.046875 199.632812 C 84.460938 202.054688 82.957031 204.375 80.683594 204.816406 C 78.414062 205.257812 76.238281 203.652344 75.824219 201.226562 L 75.824219 201.21875 C 75.414062 198.796875 77.167969 197.941406 79.4375 197.503906 C 81.707031 197.066406 83.632812 197.210938 84.046875 199.632812 Z M 84.046875 199.632812 "/>
<path style=" stroke:none;fill-rule:nonzero;fill:rgb(24.705882%,23.921569%,33.72549%);fill-opacity:1;" d="M 272.886719 152.324219 L 248.441406 152.324219 C 248.441406 152.96875 247.953125 153.488281 247.351562 153.488281 L 223.355469 153.488281 C 223.019531 153.761719 222.710938 154.074219 222.4375 154.421875 C 221.617188 155.464844 221.167969 156.78125 221.171875 158.144531 L 221.171875 159.074219 C 221.171875 162.285156 223.613281 164.890625 226.625 164.890625 L 272.886719 164.890625 C 275.898438 164.886719 278.335938 162.285156 278.339844 159.074219 L 278.339844 158.144531 C 278.335938 154.933594 275.894531 152.332031 272.886719 152.324219 Z M 272.886719 152.324219 "/>
<path style=" stroke:none;fill-rule:nonzero;fill:rgb(24.705882%,23.921569%,33.72549%);fill-opacity:1;" d="M 247.136719 164.660156 L 252.808594 164.660156 L 252.808594 207.472656 L 247.136719 207.472656 Z M 247.136719 164.660156 "/>
<path style=" stroke:none;fill-rule:nonzero;fill:rgb(24.705882%,23.921569%,33.72549%);fill-opacity:1;" d="M 268.957031 207.261719 C 268.957031 207.914062 260.359375 207.515625 249.753906 207.515625 C 239.148438 207.515625 230.550781 207.914062 230.550781 207.261719 C 230.550781 206.605469 239.148438 201.421875 249.753906 201.421875 C 260.359375 201.421875 268.957031 206.605469 268.957031 207.261719 Z M 268.957031 207.261719 "/>
<path style=" stroke:none;fill-rule:nonzero;fill:rgb(97.254902%,69.019608%,4.705882%);fill-opacity:1;" d="M 271.816406 153.667969 L 270.863281 147.320312 C 270.613281 145.652344 269.144531 144.519531 267.582031 144.78125 L 257.769531 146.453125 L 240.957031 149.316406 L 235.488281 150.246094 L 247.351562 150.246094 C 247.953125 150.246094 248.441406 150.765625 248.441406 151.410156 L 248.441406 152.324219 C 248.441406 152.96875 247.953125 153.488281 247.351562 153.488281 L 217.164062 153.488281 C 216.742188 153.699219 216.378906 154.019531 216.105469 154.421875 C 215.636719 155.078125 215.4375 155.914062 215.5625 156.726562 L 215.832031 158.535156 L 216.160156 160.726562 L 216.515625 163.082031 C 216.765625 164.742188 218.226562 165.875 219.789062 165.613281 L 227.585938 164.285156 L 250.078125 160.457031 L 269.4375 157.160156 C 270.996094 156.890625 272.058594 155.328125 271.816406 153.667969 Z M 271.816406 153.667969 "/>
<path style=" stroke:none;fill-rule:nonzero;fill:rgb(97.254902%,69.019608%,4.705882%);fill-opacity:1;" d="M 226.988281 154.421875 C 226.703125 154.011719 226.320312 153.691406 225.882812 153.488281 L 217.539062 153.488281 C 217.101562 153.691406 216.71875 154.011719 216.429688 154.421875 C 216.042969 154.949219 215.832031 155.605469 215.832031 156.277344 L 215.832031 191.742188 C 215.835938 193.425781 217.113281 194.789062 218.691406 194.789062 L 224.726562 194.789062 C 226.304688 194.789062 227.582031 193.425781 227.585938 191.742188 L 227.585938 156.277344 C 227.585938 155.605469 227.375 154.949219 226.988281 154.421875 Z M 226.988281 154.421875 "/>
<path style=" stroke:none;fill-rule:nonzero;fill:rgb(97.254902%,69.019608%,4.705882%);fill-opacity:1;" d="M 245.152344 94.015625 L 245.09375 93.9375 L 241.351562 89.015625 C 241.152344 88.753906 240.910156 88.527344 240.640625 88.351562 C 240.496094 88.246094 240.339844 88.164062 240.175781 88.101562 C 239.9375 88 239.6875 87.933594 239.429688 87.90625 C 239.257812 87.886719 239.085938 87.882812 238.914062 87.894531 C 238.910156 87.894531 238.910156 87.898438 238.90625 87.898438 C 238.328125 87.945312 237.777344 88.179688 237.328125 88.570312 L 229.640625 95.214844 L 219.765625 103.761719 L 205.027344 116.511719 L 203.953125 117.441406 L 222.601562 117.441406 L 223.679688 116.511719 L 227.246094 113.425781 L 227.5 113.210938 L 244.71875 98.316406 L 244.734375 98.304688 C 245.085938 98 245.367188 97.609375 245.546875 97.164062 C 245.667969 96.875 245.746094 96.566406 245.777344 96.25 C 245.855469 95.445312 245.632812 94.640625 245.152344 94.015625 Z M 245.152344 94.015625 "/>
<path style=" stroke:none;fill-rule:nonzero;fill:rgb(18.431373%,18.039216%,25.490196%);fill-opacity:1;" d="M 245.09375 93.9375 C 244.855469 92.683594 244.320312 91.511719 243.542969 90.539062 C 242.765625 89.558594 241.765625 88.804688 240.640625 88.351562 C 240.464844 88.28125 240.292969 88.214844 240.121094 88.164062 C 239.726562 88.039062 239.324219 87.949219 238.914062 87.894531 C 238.910156 87.894531 238.910156 87.898438 238.90625 87.898438 C 237.070312 87.675781 235.222656 88.21875 233.757812 89.417969 L 220.464844 100.25 C 219.894531 100.796875 219.554688 101.5625 219.527344 102.378906 C 219.503906 102.851562 219.585938 103.324219 219.765625 103.761719 C 219.808594 103.859375 219.855469 103.957031 219.910156 104.046875 C 220.011719 104.238281 220.132812 104.414062 220.277344 104.570312 L 222.40625 107.121094 L 227.359375 113.042969 L 227.5 113.210938 L 227.816406 113.597656 C 228.328125 114.195312 229.042969 114.554688 229.804688 114.589844 C 230.5625 114.625 231.304688 114.335938 231.863281 113.789062 L 243.328125 100.65625 C 243.921875 99.972656 244.394531 99.179688 244.71875 98.316406 C 245.242188 96.925781 245.375 95.402344 245.09375 93.9375 Z M 245.09375 93.9375 "/>
<path style=" stroke:none;fill-rule:nonzero;fill:rgb(97.254902%,69.019608%,4.705882%);fill-opacity:1;" d="M 272.035156 53.757812 C 272.035156 66.640625 262.242188 77.085938 250.164062 77.085938 C 238.082031 77.085938 228.289062 66.640625 228.289062 53.757812 C 228.289062 40.878906 238.082031 30.433594 250.164062 30.433594 C 262.242188 30.433594 272.035156 40.878906 272.035156 53.757812 Z M 272.035156 53.757812 "/>
<path style=" stroke:none;fill-rule:nonzero;fill:rgb(97.254902%,69.019608%,4.705882%);fill-opacity:1;" d="M 258.367188 150.453125 L 257.769531 146.453125 L 257.414062 144.101562 C 257.164062 142.4375 255.699219 141.308594 254.136719 141.570312 L 238.238281 144.273438 L 233.925781 145.011719 L 233.054688 145.160156 L 233.054688 150.246094 L 247.351562 150.246094 C 247.953125 150.246094 248.441406 150.765625 248.441406 151.410156 L 248.441406 152.324219 C 248.441406 152.96875 247.953125 153.488281 247.351562 153.488281 L 202.109375 153.488281 C 202.109375 153.5 202.113281 153.507812 202.113281 153.515625 L 202.382812 155.324219 L 203.0625 159.863281 C 203.3125 161.527344 204.777344 162.660156 206.335938 162.394531 L 214.136719 161.070312 L 215.832031 160.78125 L 216.160156 160.726562 L 227.585938 158.78125 L 235.359375 157.453125 L 247.691406 155.355469 L 247.875 155.324219 L 255.988281 153.945312 C 257.546875 153.679688 258.609375 152.117188 258.367188 150.453125 Z M 258.367188 150.453125 "/>
<path style=" stroke:none;fill-rule:nonzero;fill:rgb(18.431373%,18.039216%,25.490196%);fill-opacity:1;" d="M 279.933594 133.339844 C 279.933594 152.355469 278.121094 163.726562 250.191406 160.46875 C 250.152344 160.464844 250.117188 160.460938 250.078125 160.457031 C 245.097656 159.929688 240.171875 158.925781 235.359375 157.453125 C 232.859375 156.675781 230.425781 155.660156 228.097656 154.421875 C 227.546875 154.121094 227.019531 153.808594 226.5 153.488281 L 247.351562 153.488281 C 247.953125 153.488281 248.441406 152.96875 248.441406 152.324219 L 248.441406 151.410156 C 248.441406 150.765625 247.953125 150.246094 247.351562 150.246094 L 233.054688 150.246094 L 233.054688 120.851562 C 233.050781 118.96875 231.621094 117.445312 229.855469 117.441406 L 230.445312 117.441406 C 230.546875 117.132812 230.644531 116.824219 230.753906 116.511719 C 231.816406 113.371094 231.710938 110.898438 233.214844 107.824219 C 235.285156 103.578125 235.296875 99.3125 238.015625 95.722656 C 240.042969 93.058594 233.839844 90.148438 236.117188 88.148438 C 240.496094 84.292969 245.261719 81.910156 250.097656 81.910156 C 267.925781 81.910156 279.933594 114.324219 279.933594 133.339844 Z M 279.933594 133.339844 "/>
<path style=" stroke:none;fill-rule:nonzero;fill:rgb(18.431373%,18.039216%,25.490196%);fill-opacity:1;" d="M 250.621094 62.40625 L 250.644531 61.53125 C 249.125 61.488281 247.785156 61.386719 246.777344 60.601562 C 246.199219 60.125 245.84375 59.40625 245.804688 58.628906 C 245.765625 58.152344 245.941406 57.683594 246.273438 57.367188 C 246.941406 56.765625 248.019531 56.957031 248.804688 57.34375 L 249.480469 57.671875 L 248.183594 47.566406 L 247.371094 47.683594 L 248.476562 56.28125 C 247.558594 55.917969 246.53125 56.078125 245.746094 56.699219 C 245.21875 57.191406 244.9375 57.914062 244.988281 58.660156 C 245.035156 59.703125 245.511719 60.671875 246.292969 61.304688 C 247.589844 62.3125 249.269531 62.363281 250.621094 62.40625 Z M 250.621094 62.40625 "/>
<path style=" stroke:none;fill-rule:nonzero;fill:rgb(18.431373%,18.039216%,25.490196%);fill-opacity:1;" d="M 238.964844 48.425781 L 243.367188 48.425781 L 243.367188 49.296875 L 238.964844 49.296875 Z M 238.964844 48.425781 "/>
<path style=" stroke:none;fill-rule:nonzero;fill:rgb(18.431373%,18.039216%,25.490196%);fill-opacity:1;" d="M 252.863281 48.425781 L 257.265625 48.425781 L 257.265625 49.296875 L 252.863281 49.296875 Z M 252.863281 48.425781 "/>
<path style=" stroke:none;fill-rule:nonzero;fill:rgb(97.254902%,69.019608%,4.705882%);fill-opacity:1;" d="M 263.167969 100.683594 L 261.433594 99.398438 L 258.207031 97.011719 C 256.910156 96.054688 255.128906 96.398438 254.230469 97.78125 L 243.714844 113.914062 L 233.925781 128.9375 L 233.054688 130.277344 L 233.054688 150.246094 L 233.132812 150.246094 C 233.8125 150.171875 234.445312 149.84375 234.917969 149.316406 C 235.019531 149.203125 235.109375 149.085938 235.191406 148.957031 L 238.238281 144.273438 L 245.765625 132.71875 L 253.570312 120.75 L 254.3125 119.609375 L 263.878906 104.929688 C 263.929688 104.851562 263.976562 104.769531 264.023438 104.6875 C 264.066406 104.605469 264.105469 104.523438 264.140625 104.441406 C 264.707031 103.101562 264.296875 101.523438 263.167969 100.683594 Z M 263.167969 100.683594 "/>
<path style=" stroke:none;fill-rule:nonzero;fill:rgb(18.431373%,18.039216%,25.490196%);fill-opacity:1;" d="M 263.195312 94.300781 C 262.886719 94.082031 262.566406 93.894531 262.226562 93.730469 C 259.15625 92.230469 255.515625 93.230469 253.507812 96.132812 L 243.574219 110.492188 C 243.171875 111.183594 243.046875 112.019531 243.226562 112.808594 C 243.40625 113.601562 243.875 114.28125 244.527344 114.699219 L 253.570312 120.75 L 253.683594 120.824219 L 254.136719 121.128906 C 255.488281 122 257.246094 121.542969 258.070312 120.105469 L 265.082031 105.257812 L 265.199219 105.011719 L 265.203125 105.007812 L 265.636719 104.082031 C 267.265625 100.632812 266.21875 96.429688 263.195312 94.300781 Z M 263.195312 94.300781 "/>
<path style=" stroke:none;fill-rule:nonzero;fill:rgb(97.254902%,69.019608%,4.705882%);fill-opacity:1;" d="M 202.382812 153.488281 L 202.382812 188.527344 C 202.386719 190.210938 203.664062 191.574219 205.242188 191.574219 L 211.277344 191.574219 C 212.855469 191.574219 214.132812 190.210938 214.136719 188.527344 L 214.136719 153.488281 Z M 202.382812 153.488281 "/>
<path style=" stroke:none;fill-rule:nonzero;fill:rgb(24.705882%,23.921569%,33.72549%);fill-opacity:1;" d="M 247.351562 149.316406 L 233.925781 149.316406 L 233.925781 120.851562 C 233.925781 118.457031 232.101562 116.515625 229.855469 116.511719 L 180.074219 116.511719 C 177.824219 116.511719 176 118.453125 176 120.851562 L 176 150.078125 C 176 152.476562 177.824219 154.417969 180.074219 154.421875 L 247.351562 154.421875 C 247.421875 154.421875 247.484375 154.414062 247.550781 154.410156 C 247.613281 154.40625 247.675781 154.390625 247.734375 154.382812 C 248.652344 154.183594 249.3125 153.324219 249.316406 152.324219 L 249.316406 151.410156 C 249.316406 150.253906 248.433594 149.316406 247.351562 149.316406 Z M 247.351562 153.488281 L 180.074219 153.488281 C 178.308594 153.488281 176.875 151.960938 176.871094 150.078125 L 176.871094 120.851562 C 176.875 118.96875 178.308594 117.441406 180.074219 117.441406 L 229.855469 117.441406 C 231.621094 117.445312 233.050781 118.96875 233.054688 120.851562 L 233.054688 150.246094 L 247.351562 150.246094 C 247.953125 150.246094 248.441406 150.765625 248.441406 151.410156 L 248.441406 152.324219 C 248.441406 152.96875 247.953125 153.488281 247.351562 153.488281 Z M 247.351562 153.488281 "/>
<path style=" stroke:none;fill-rule:nonzero;fill:rgb(97.254902%,69.019608%,4.705882%);fill-opacity:1;" d="M 208.320312 135.464844 C 208.320312 137.441406 206.816406 139.042969 204.964844 139.042969 C 203.109375 139.042969 201.605469 137.441406 201.605469 135.464844 C 201.605469 133.488281 203.109375 131.886719 204.964844 131.886719 C 206.816406 131.886719 208.320312 133.488281 208.320312 135.464844 Z M 208.320312 135.464844 "/>
<path style=" stroke:none;fill-rule:nonzero;fill:rgb(24.705882%,23.921569%,33.72549%);fill-opacity:1;" d="M 233.042969 149.808594 L 233.914062 149.808594 L 233.914062 153.996094 L 233.042969 153.996094 Z M 233.042969 149.808594 "/>
<path style=" stroke:none;fill-rule:nonzero;fill:rgb(18.431373%,18.039216%,25.490196%);fill-opacity:1;" d="M 99.46875 110.679688 C 97.949219 110.058594 95.210938 113.746094 93.359375 118.917969 C 91.503906 124.085938 91.238281 128.78125 92.757812 129.402344 C 94.28125 130.019531 97.015625 126.332031 98.871094 121.164062 C 100.722656 115.992188 100.992188 111.300781 99.46875 110.679688 Z M 99.46875 110.679688 "/>
<path style=" stroke:none;fill-rule:nonzero;fill:rgb(18.431373%,18.039216%,25.490196%);fill-opacity:1;" d="M 81.753906 115.390625 C 92 117.164062 98.957031 127.460938 97.292969 138.386719 C 95.632812 149.3125 85.976562 156.730469 75.730469 154.957031 C 65.484375 153.183594 58.527344 142.890625 60.191406 131.964844 C 61.851562 121.039062 71.507812 113.617188 81.753906 115.390625 Z M 81.753906 115.390625 "/>
<path style=" stroke:none;fill-rule:nonzero;fill:rgb(18.431373%,18.039216%,25.490196%);fill-opacity:1;" d="M 70.175781 150.902344 L 75.886719 150.902344 L 75.886719 161.8125 L 70.175781 161.8125 Z M 70.175781 150.902344 "/>
<path style=" stroke:none;fill-rule:nonzero;fill:rgb(18.431373%,18.039216%,25.490196%);fill-opacity:1;" d="M 81.597656 150.902344 L 87.308594 150.902344 L 87.308594 161.8125 L 81.597656 161.8125 Z M 81.597656 150.902344 "/>
<path style=" stroke:none;fill-rule:nonzero;fill:rgb(18.431373%,18.039216%,25.490196%);fill-opacity:1;" d="M 79.695312 161.941406 C 79.695312 160.890625 77.5625 160.039062 74.9375 160.039062 C 72.308594 160.039062 70.175781 160.890625 70.175781 161.941406 C 70.175781 162.992188 72.308594 163.84375 74.9375 163.84375 C 77.5625 163.84375 79.695312 162.992188 79.695312 161.941406 Z M 79.695312 161.941406 "/>
<path style=" stroke:none;fill-rule:nonzero;fill:rgb(18.431373%,18.039216%,25.490196%);fill-opacity:1;" d="M 91.113281 161.6875 C 91.113281 160.636719 88.984375 159.785156 86.355469 159.785156 C 83.726562 159.785156 81.597656 160.636719 81.597656 161.6875 C 81.597656 162.738281 83.726562 163.589844 86.355469 163.589844 C 88.984375 163.589844 91.113281 162.738281 91.113281 161.6875 Z M 91.113281 161.6875 "/>
<path style=" stroke:none;fill-rule:nonzero;fill:rgb(100%,100%,100%);fill-opacity:1;" d="M 85.640625 129.898438 C 85.742188 133.679688 82.953125 136.835938 79.40625 136.949219 C 75.859375 137.058594 72.902344 134.082031 72.796875 130.300781 C 72.691406 126.519531 75.484375 123.363281 79.027344 123.253906 C 82.574219 123.144531 85.535156 126.117188 85.640625 129.898438 Z M 85.640625 129.898438 "/>
<path style=" stroke:none;fill-rule:nonzero;fill:rgb(24.705882%,23.921569%,33.72549%);fill-opacity:1;" d="M 81.359375 130.101562 C 81.359375 131.363281 80.402344 132.382812 79.21875 132.382812 C 78.035156 132.382812 77.078125 131.363281 77.078125 130.101562 C 77.078125 128.839844 78.035156 127.816406 79.21875 127.816406 C 80.402344 127.816406 81.359375 128.839844 81.359375 130.101562 Z M 81.359375 130.101562 "/>
<path style=" stroke:none;fill-rule:nonzero;fill:rgb(97.254902%,69.019608%,4.705882%);fill-opacity:1;" d="M 60.511719 116.535156 C 58.992188 109.289062 63.84375 101.964844 71.347656 100.179688 C 78.847656 98.394531 86.160156 102.820312 87.675781 110.066406 C 89.195312 117.316406 84.222656 119.988281 76.722656 121.773438 C 69.21875 123.5625 62.027344 123.785156 60.511719 116.535156 Z M 60.511719 116.535156 "/>
<path style=" stroke:none;fill-rule:nonzero;fill:rgb(18.431373%,18.039216%,25.490196%);fill-opacity:1;" d="M 58.835938 123.03125 C 54.148438 120.660156 49.78125 120.011719 49.082031 121.582031 C 48.382812 123.152344 51.617188 126.347656 56.308594 128.71875 C 60.996094 131.089844 65.367188 131.738281 66.0625 130.167969 C 66.761719 128.601562 63.527344 125.40625 58.835938 123.03125 Z M 58.835938 123.03125 "/>
<path style=" stroke:none;fill-rule:nonzero;fill:rgb(100%,100%,100%);fill-opacity:1;" d="M 69.511719 142.40625 C 69.511719 144.367188 74.246094 148.242188 79.503906 148.242188 C 84.757812 148.242188 89.6875 142.71875 89.6875 140.757812 C 89.6875 138.792969 84.757812 141.136719 79.503906 141.136719 C 74.246094 141.136719 69.511719 140.445312 69.511719 142.40625 Z M 69.511719 142.40625 "/>
<path style=" stroke:none;fill-rule:nonzero;fill:rgb(100%,39.607843%,51.764706%);fill-opacity:1;" d="M 115.011719 130.878906 L 101.179688 133.757812 C 100.722656 133.855469 100.253906 133.722656 99.902344 133.398438 C 99.546875 133.074219 99.351562 132.589844 99.371094 132.085938 C 99.609375 126.039062 98.507812 120.011719 96.152344 114.503906 C 95.957031 114.046875 95.96875 113.519531 96.183594 113.074219 C 96.394531 112.632812 96.78125 112.324219 97.238281 112.230469 L 111.070312 109.351562 C 111.800781 109.199219 112.527344 109.632812 112.785156 110.378906 C 114.832031 116.441406 115.996094 122.800781 116.238281 129.238281 C 116.261719 130.03125 115.742188 130.726562 115.011719 130.878906 Z M 115.011719 130.878906 "/>
<path style=" stroke:none;fill-rule:nonzero;fill:rgb(80%,80%,80%);fill-opacity:1;" d="M 54.351562 144.375 L 40.515625 147.253906 C 40.0625 147.351562 39.59375 147.21875 39.242188 146.894531 C 38.886719 146.570312 38.691406 146.085938 38.710938 145.582031 C 38.949219 139.53125 37.84375 133.507812 35.492188 128 C 35.296875 127.542969 35.304688 127.015625 35.523438 126.570312 C 35.734375 126.128906 36.121094 125.820312 36.574219 125.726562 L 50.410156 122.84375 C 51.140625 122.695312 51.867188 123.128906 52.125 123.875 C 54.171875 129.9375 55.335938 136.296875 55.578125 142.734375 C 55.601562 143.527344 55.082031 144.222656 54.351562 144.375 Z M 54.351562 144.375 "/>
<path style=" stroke:none;fill-rule:nonzero;fill:rgb(18.431373%,18.039216%,25.490196%);fill-opacity:1;" d="M 256.457031 37.382812 C 252.519531 39.257812 248.050781 39.425781 244 37.847656 C 237.929688 35.363281 233.8125 29.285156 233.511719 22.363281 L 232.527344 22.964844 L 236.679688 26.082031 C 236.855469 26.1875 237.066406 26.203125 237.257812 26.121094 C 237.445312 26.042969 237.585938 25.871094 237.640625 25.664062 C 238.230469 23.144531 239.777344 21 241.910156 19.746094 C 244.222656 18.371094 246.910156 17.894531 249.515625 18.398438 C 254.910156 19.332031 259.769531 23.167969 262.929688 27.816406 C 264.65625 30.347656 265.933594 33.191406 266.699219 36.210938 C 266.804688 36.570312 267.160156 36.777344 267.5 36.675781 C 267.839844 36.578125 268.046875 36.207031 267.964844 35.839844 C 266.457031 29.972656 263.148438 24.808594 258.570312 21.179688 C 253.878906 17.46875 247.3125 15.222656 241.796875 18.222656 C 239.171875 19.648438 237.035156 22.1875 236.378906 25.292969 L 237.339844 24.875 L 233.1875 21.757812 C 232.984375 21.636719 232.734375 21.636719 232.535156 21.761719 C 232.332031 21.882812 232.207031 22.113281 232.203125 22.363281 C 232.410156 27.066406 234.234375 31.519531 237.332031 34.878906 C 240.566406 38.328125 244.945312 40.28125 249.519531 40.316406 C 252.140625 40.34375 254.734375 39.757812 257.117188 38.589844 C 257.882812 38.214844 257.21875 37.011719 256.457031 37.382812 Z M 256.457031 37.382812 "/>
<path style=" stroke:none;fill-rule:nonzero;fill:rgb(97.254902%,69.019608%,4.705882%);fill-opacity:1;" d="M 72.738281 212.28125 L 58.902344 215.164062 C 58.449219 215.257812 57.980469 215.125 57.628906 214.804688 C 57.273438 214.476562 57.074219 213.992188 57.097656 213.492188 C 57.335938 207.441406 56.230469 201.417969 53.878906 195.90625 C 53.683594 195.449219 53.691406 194.921875 53.910156 194.476562 C 54.117188 194.039062 54.507812 193.726562 54.960938 193.632812 L 68.796875 190.753906 C 69.527344 190.601562 70.253906 191.039062 70.511719 191.78125 C 72.558594 197.84375 73.722656 204.203125 73.964844 210.644531 C 73.988281 211.4375 73.46875 212.128906 72.738281 212.28125 Z M 72.738281 212.28125 "/>
</g>
</svg>
