<?xml version="1.0" encoding="UTF-8"?>
<svg xmlns="http://www.w3.org/2000/svg" xmlns:xlink="http://www.w3.org/1999/xlink" width="350px" height="215px" viewBox="0 0 350 215" version="1.1">
<g id="surface1">
<path style=" stroke:none;fill-rule:nonzero;fill:rgb(24.705882%,23.921569%,33.72549%);fill-opacity:1;" d="M 31.425781 204.878906 L 30.957031 204.644531 C 30.851562 204.59375 20.542969 199.34375 15.714844 187.445312 C 10.886719 175.542969 13.25 161.214844 13.273438 161.074219 L 13.386719 160.421875 L 13.859375 160.65625 C 13.960938 160.707031 24.269531 165.957031 29.097656 177.855469 C 33.925781 189.757812 31.5625 204.082031 31.539062 204.226562 Z M 16.488281 186.890625 C 20.570312 196.953125 28.714844 202.109375 30.78125 203.289062 C 31.171875 200.347656 32.402344 188.460938 28.324219 178.410156 C 24.246094 168.359375 16.097656 163.195312 14.03125 162.011719 C 13.640625 164.953125 12.410156 176.839844 16.488281 186.890625 Z M 16.488281 186.890625 "/>
<path style=" stroke:none;fill-rule:nonzero;fill:rgb(81.568627%,80.392157%,88.235294%);fill-opacity:1;" d="M 19.40625 183.269531 C 28.082031 190.207031 31.425781 203.988281 31.425781 203.988281 C 31.425781 203.988281 20.699219 206.519531 12.019531 199.582031 C 3.34375 192.644531 0 178.863281 0 178.863281 C 0 178.863281 10.726562 176.332031 19.40625 183.269531 Z M 19.40625 183.269531 "/>
<path style=" stroke:none;fill-rule:nonzero;fill:rgb(24.705882%,23.921569%,33.72549%);fill-opacity:1;" d="M 297.128906 2.648438 L 200.359375 2.648438 L 200.359375 0 L 156.480469 0 L 156.480469 2.648438 L 59.3125 2.648438 C 55.699219 2.648438 52.765625 6.542969 52.765625 11.347656 L 52.765625 187.425781 C 52.765625 192.230469 55.699219 196.125 59.3125 196.125 L 297.128906 196.125 C 300.742188 196.125 303.675781 192.230469 303.675781 187.425781 L 303.675781 11.347656 C 303.675781 6.542969 300.742188 2.648438 297.128906 2.648438 Z M 297.128906 2.648438 "/>
<path style=" stroke:none;fill-rule:nonzero;fill:rgb(97.254902%,69.019608%,4.705882%);fill-opacity:1;" d="M 61.542969 18.023438 L 294.898438 18.023438 L 294.898438 192.945312 L 61.542969 192.945312 Z M 61.542969 18.023438 "/>
<path style=" stroke:none;fill-rule:nonzero;fill:rgb(97.254902%,69.019608%,4.705882%);fill-opacity:1;" d="M 180.414062 10.070312 C 180.414062 11.828125 179.34375 13.25 178.019531 13.25 C 176.699219 13.25 175.628906 11.828125 175.628906 10.070312 C 175.628906 8.316406 176.699219 6.890625 178.019531 6.890625 C 179.34375 6.890625 180.414062 8.316406 180.414062 10.070312 Z M 180.414062 10.070312 "/>
<path style=" stroke:none;fill-rule:nonzero;fill:rgb(24.705882%,23.921569%,33.72549%);fill-opacity:1;" d="M 281.5 40.285156 L 270.441406 40.285156 L 270.441406 25.585938 L 281.5 25.585938 Z M 270.921875 39.644531 L 281.019531 39.644531 L 281.019531 26.226562 L 270.921875 26.226562 Z M 270.921875 39.644531 "/>
<path style=" stroke:none;fill-rule:nonzero;fill:rgb(24.705882%,23.921569%,33.72549%);fill-opacity:1;" d="M 310.226562 189.765625 L 287.453125 189.765625 L 287.453125 187.585938 C 287.453125 187.34375 287.304688 187.152344 287.125 187.152344 L 279.320312 187.152344 C 279.140625 187.152344 278.992188 187.34375 278.992188 187.585938 L 278.992188 189.765625 L 274.113281 189.765625 L 274.113281 187.585938 C 274.113281 187.34375 273.96875 187.152344 273.789062 187.152344 L 265.980469 187.152344 C 265.800781 187.152344 265.652344 187.34375 265.652344 187.585938 L 265.652344 189.765625 L 260.773438 189.765625 L 260.773438 187.585938 C 260.773438 187.34375 260.628906 187.152344 260.449219 187.152344 L 252.640625 187.152344 C 252.460938 187.152344 252.316406 187.34375 252.316406 187.585938 L 252.316406 189.765625 L 247.433594 189.765625 L 247.433594 187.585938 C 247.433594 187.34375 247.289062 187.152344 247.109375 187.152344 L 239.300781 187.152344 C 239.121094 187.152344 238.976562 187.34375 238.976562 187.585938 L 238.976562 189.765625 L 234.097656 189.765625 L 234.097656 187.585938 C 234.097656 187.34375 233.949219 187.152344 233.769531 187.152344 L 225.960938 187.152344 C 225.78125 187.152344 225.636719 187.34375 225.636719 187.585938 L 225.636719 189.765625 L 220.757812 189.765625 L 220.757812 187.585938 C 220.757812 187.34375 220.613281 187.152344 220.433594 187.152344 L 212.625 187.152344 C 212.445312 187.152344 212.296875 187.34375 212.296875 187.585938 L 212.296875 189.765625 L 207.417969 189.765625 L 207.417969 187.585938 C 207.417969 187.34375 207.273438 187.152344 207.09375 187.152344 L 145.929688 187.152344 C 145.75 187.152344 145.601562 187.34375 145.601562 187.585938 L 145.601562 189.765625 L 140.722656 189.765625 L 140.722656 187.585938 C 140.722656 187.34375 140.578125 187.152344 140.398438 187.152344 L 132.589844 187.152344 C 132.410156 187.152344 132.265625 187.34375 132.265625 187.585938 L 132.265625 189.765625 L 127.382812 189.765625 L 127.382812 187.585938 C 127.382812 187.34375 127.238281 187.152344 127.058594 187.152344 L 119.25 187.152344 C 119.070312 187.152344 118.925781 187.34375 118.925781 187.585938 L 118.925781 189.765625 L 114.046875 189.765625 L 114.046875 187.585938 C 114.046875 187.34375 113.898438 187.152344 113.71875 187.152344 L 105.910156 187.152344 C 105.730469 187.152344 105.585938 187.34375 105.585938 187.585938 L 105.585938 189.765625 L 100.707031 189.765625 L 100.707031 187.585938 C 100.707031 187.34375 100.558594 187.152344 100.378906 187.152344 L 92.574219 187.152344 C 92.394531 187.152344 92.246094 187.34375 92.246094 187.585938 L 92.246094 189.765625 L 87.367188 189.765625 L 87.367188 187.585938 C 87.367188 187.34375 87.222656 187.152344 87.042969 187.152344 L 79.234375 187.152344 C 79.054688 187.152344 78.90625 187.34375 78.90625 187.585938 L 78.90625 189.765625 L 74.027344 189.765625 L 74.027344 187.585938 C 74.027344 187.34375 73.882812 187.152344 73.703125 187.152344 L 65.894531 187.152344 C 65.714844 187.152344 65.570312 187.34375 65.570312 187.585938 L 65.570312 189.765625 L 50.601562 189.765625 C 46.289062 189.765625 42.796875 194.410156 42.796875 200.140625 L 42.796875 204.832031 C 42.796875 210.5625 46.289062 215.207031 50.601562 215.207031 L 310.226562 215.207031 C 314.539062 215.207031 318.035156 210.5625 318.035156 204.832031 L 318.035156 200.140625 C 318.035156 194.410156 314.539062 189.765625 310.226562 189.765625 Z M 310.226562 189.765625 "/>
<path style=" stroke:none;fill-rule:nonzero;fill:rgb(24.705882%,23.921569%,33.72549%);fill-opacity:1;" d="M 10.679688 204.5625 L 350.148438 204.5625 L 350.148438 205.941406 L 10.679688 205.941406 Z M 10.679688 204.5625 "/>
<path style=" stroke:none;fill-rule:nonzero;fill:rgb(24.705882%,23.921569%,33.72549%);fill-opacity:1;" d="M 280.472656 115.492188 L 205.339844 115.492188 L 205.339844 58.652344 L 280.472656 58.652344 Z M 206.085938 114.503906 L 279.730469 114.503906 L 279.730469 59.640625 L 206.085938 59.640625 Z M 206.085938 114.503906 "/>
<path style=" stroke:none;fill-rule:nonzero;fill:rgb(24.705882%,23.921569%,33.72549%);fill-opacity:1;" d="M 142.851562 126.859375 L 75.902344 126.859375 L 75.902344 71.503906 L 142.851562 71.503906 Z M 76.648438 125.871094 L 142.109375 125.871094 L 142.109375 72.492188 L 76.648438 72.492188 Z M 76.648438 125.871094 "/>
<path style=" stroke:none;fill-rule:nonzero;fill:rgb(81.568627%,80.392157%,88.235294%);fill-opacity:1;" d="M 107.183594 105.605469 L 107.117188 104.503906 C 106.925781 102.207031 107.5 99.699219 109.101562 97.148438 C 110.539062 94.894531 111.339844 93.238281 111.339844 91.324219 C 111.339844 89.15625 110.316406 87.714844 108.300781 87.671875 C 107.148438 87.664062 106.023438 88.125 105.070312 88.988281 L 104.304688 86.308594 C 105.359375 85.289062 107.183594 84.609375 108.875 84.609375 C 112.554688 84.609375 114.21875 87.628906 114.21875 90.859375 C 114.21875 93.75 113.003906 95.832031 111.46875 98.253906 C 110.058594 100.464844 109.546875 102.335938 109.644531 104.503906 L 109.675781 105.605469 Z M 106.476562 111.558594 C 106.441406 110.855469 106.632812 110.167969 106.996094 109.660156 C 107.359375 109.152344 107.867188 108.867188 108.398438 108.878906 C 109.515625 108.878906 110.285156 109.984375 110.285156 111.558594 C 110.3125 112.488281 109.957031 113.359375 109.355469 113.835938 C 108.753906 114.3125 108.007812 114.3125 107.40625 113.835938 C 106.804688 113.359375 106.449219 112.488281 106.476562 111.558594 Z M 106.476562 111.558594 "/>
<path style=" stroke:none;fill-rule:nonzero;fill:rgb(81.568627%,80.392157%,88.235294%);fill-opacity:1;" d="M 240.710938 93.25 L 240.644531 92.144531 C 240.453125 89.851562 241.03125 87.34375 242.628906 84.792969 C 244.070312 82.539062 244.867188 80.882812 244.867188 78.96875 C 244.867188 76.800781 243.84375 75.355469 241.828125 75.3125 C 240.675781 75.308594 239.550781 75.765625 238.597656 76.632812 L 237.832031 73.953125 C 238.886719 72.933594 240.710938 72.253906 242.40625 72.253906 C 246.082031 72.253906 247.746094 75.273438 247.746094 78.5 C 247.746094 81.390625 246.53125 83.476562 244.996094 85.898438 C 243.589844 88.109375 243.078125 89.976562 243.171875 92.144531 L 243.203125 93.25 Z M 240.007812 99.203125 C 239.972656 98.5 240.160156 97.8125 240.523438 97.304688 C 240.886719 96.792969 241.398438 96.511719 241.925781 96.523438 C 243.046875 96.523438 243.8125 97.628906 243.8125 99.203125 C 243.839844 100.128906 243.484375 101.003906 242.882812 101.480469 C 242.285156 101.957031 241.535156 101.957031 240.933594 101.480469 C 240.332031 101.003906 239.976562 100.128906 240.007812 99.203125 Z M 240.007812 99.203125 "/>
<path style=" stroke:none;fill-rule:nonzero;fill:rgb(18.431373%,18.039216%,25.490196%);fill-opacity:1;" d="M 211.632812 128.925781 C 211.632812 152.480469 197.261719 171.574219 179.535156 171.574219 C 161.808594 171.574219 147.4375 152.480469 147.4375 128.925781 C 147.4375 105.371094 161.808594 86.273438 179.535156 86.273438 C 197.261719 86.273438 211.632812 105.371094 211.632812 128.925781 Z M 211.632812 128.925781 "/>
<path style=" stroke:none;fill-rule:nonzero;fill:rgb(18.431373%,18.039216%,25.490196%);fill-opacity:1;" d="M 167.140625 187.332031 L 157.542969 185.023438 L 160.65625 158.398438 L 170.25 160.707031 Z M 167.140625 187.332031 "/>
<path style=" stroke:none;fill-rule:nonzero;fill:rgb(18.431373%,18.039216%,25.490196%);fill-opacity:1;" d="M 179.84375 163.015625 L 189.441406 165.324219 L 186.328125 188.167969 L 176.734375 185.859375 Z M 179.84375 163.015625 "/>
<path style=" stroke:none;fill-rule:nonzero;fill:rgb(18.431373%,18.039216%,25.490196%);fill-opacity:1;" d="M 185.378906 183.304688 C 180.980469 182.125 177.144531 182.945312 176.8125 185.140625 C 176.476562 187.332031 179.773438 190.0625 184.171875 191.246094 C 188.570312 192.425781 192.410156 191.605469 192.742188 189.410156 C 193.074219 187.21875 189.777344 184.488281 185.378906 183.304688 Z M 185.378906 183.304688 "/>
<path style=" stroke:none;fill-rule:nonzero;fill:rgb(18.431373%,18.039216%,25.490196%);fill-opacity:1;" d="M 165.101562 183.292969 C 160.652344 182.507812 156.867188 183.671875 156.648438 185.886719 C 156.425781 188.105469 159.851562 190.535156 164.300781 191.320312 C 168.75 192.101562 172.535156 190.941406 172.757812 188.722656 C 172.976562 186.507812 169.550781 184.074219 165.101562 183.292969 Z M 165.101562 183.292969 "/>
<path style=" stroke:none;fill-rule:nonzero;fill:rgb(100%,100%,100%);fill-opacity:1;" d="M 192.75 118.492188 C 192.75 126.542969 187.839844 133.070312 181.78125 133.070312 C 175.722656 133.070312 170.8125 126.542969 170.8125 118.492188 C 170.8125 110.441406 175.722656 103.917969 181.78125 103.917969 C 187.839844 103.917969 192.75 110.441406 192.75 118.492188 Z M 192.75 118.492188 "/>
<path style=" stroke:none;fill-rule:nonzero;fill:rgb(24.705882%,23.921569%,33.72549%);fill-opacity:1;" d="M 189.945312 113.269531 C 189.945312 115.953125 188.308594 118.125 186.289062 118.125 C 184.269531 118.125 182.632812 115.953125 182.632812 113.269531 C 182.632812 110.585938 184.269531 108.410156 186.289062 108.410156 C 188.308594 108.410156 189.945312 110.585938 189.945312 113.269531 Z M 189.945312 113.269531 "/>
<path style=" stroke:none;fill-rule:nonzero;fill:rgb(100%,100%,100%);fill-opacity:1;" d="M 154.214844 82.527344 C 153.734375 66.738281 163.972656 53.363281 177.089844 52.65625 C 190.207031 51.945312 201.230469 64.171875 201.710938 79.960938 C 202.195312 95.753906 193.078125 99.339844 179.960938 100.046875 C 166.847656 100.757812 154.699219 98.316406 154.214844 82.527344 Z M 154.214844 82.527344 "/>
<path style=" stroke:none;fill-rule:nonzero;fill:rgb(18.431373%,18.039216%,25.490196%);fill-opacity:1;" d="M 224.8125 116.390625 C 224.191406 112.785156 216.683594 112 208.046875 114.628906 C 199.40625 117.261719 192.90625 122.316406 193.527344 125.917969 C 194.152344 129.523438 201.65625 130.3125 210.296875 127.679688 C 218.9375 125.050781 225.433594 119.996094 224.8125 116.390625 Z M 224.8125 116.390625 "/>
<path style=" stroke:none;fill-rule:nonzero;fill:rgb(18.431373%,18.039216%,25.490196%);fill-opacity:1;" d="M 161.808594 130.3125 C 161.1875 126.710938 153.679688 125.921875 145.042969 128.550781 C 136.402344 131.183594 129.902344 136.238281 130.527344 139.84375 C 131.148438 143.445312 138.65625 144.234375 147.292969 141.601562 C 155.933594 138.972656 162.433594 133.917969 161.808594 130.3125 Z M 161.808594 130.3125 "/>
<path style=" stroke:none;fill-rule:nonzero;fill:rgb(100%,100%,100%);fill-opacity:1;" d="M 170.71875 145.734375 C 170 151.015625 172.640625 156.070312 176.613281 157.027344 C 180.585938 157.984375 184.394531 154.476562 185.113281 149.195312 C 185.832031 143.914062 182.757812 142.046875 178.785156 141.089844 C 174.808594 140.132812 171.441406 140.453125 170.71875 145.734375 Z M 170.71875 145.734375 "/>
<path style=" stroke:none;fill-rule:nonzero;fill:rgb(81.568627%,80.392157%,88.235294%);fill-opacity:1;" d="M 57.476562 6.484375 L 110.253906 6.484375 L 110.253906 73.195312 L 57.476562 73.195312 Z M 57.476562 6.484375 "/>
<path style=" stroke:none;fill-rule:nonzero;fill:rgb(100%,100%,100%);fill-opacity:1;" d="M 63.476562 14.453125 L 104.253906 14.453125 L 104.253906 55.894531 L 63.476562 55.894531 Z M 63.476562 14.453125 "/>
<path style=" stroke:none;fill-rule:nonzero;fill:rgb(94.901961%,94.901961%,94.901961%);fill-opacity:1;" d="M 63.433594 60.78125 L 85.617188 60.78125 L 85.617188 62.335938 L 63.433594 62.335938 Z M 63.433594 60.78125 "/>
<path style=" stroke:none;fill-rule:nonzero;fill:rgb(94.901961%,94.901961%,94.901961%);fill-opacity:1;" d="M 63.433594 65.4375 L 85.617188 65.4375 L 85.617188 66.988281 L 63.433594 66.988281 Z M 63.433594 65.4375 "/>
<path style=" stroke:none;fill-rule:nonzero;fill:rgb(24.705882%,23.921569%,33.72549%);fill-opacity:1;" d="M 75.402344 35.1875 C 75.402344 38.613281 73.3125 41.390625 70.730469 41.390625 C 68.152344 41.390625 66.0625 38.613281 66.0625 35.1875 C 66.0625 31.757812 68.152344 28.980469 70.730469 28.980469 C 73.3125 28.980469 75.402344 31.757812 75.402344 35.1875 Z M 75.402344 35.1875 "/>
<path style=" stroke:none;fill-rule:nonzero;fill:rgb(97.254902%,69.019608%,4.705882%);fill-opacity:1;" d="M 88.535156 35.1875 C 88.535156 38.613281 86.445312 41.390625 83.867188 41.390625 C 81.285156 41.390625 79.195312 38.613281 79.195312 35.1875 C 79.195312 31.757812 81.285156 28.980469 83.867188 28.980469 C 86.445312 28.980469 88.535156 31.757812 88.535156 35.1875 Z M 88.535156 35.1875 "/>
<path style=" stroke:none;fill-rule:nonzero;fill:rgb(90.196078%,90.196078%,90.196078%);fill-opacity:1;" d="M 101.667969 35.1875 C 101.667969 38.613281 99.578125 41.390625 97 41.390625 C 94.421875 41.390625 92.328125 38.613281 92.328125 35.1875 C 92.328125 31.757812 94.421875 28.980469 97 28.980469 C 99.578125 28.980469 101.667969 31.757812 101.667969 35.1875 Z M 101.667969 35.1875 "/>
<path style=" stroke:none;fill-rule:nonzero;fill:rgb(24.705882%,23.921569%,33.72549%);fill-opacity:1;" d="M 86.199219 10.363281 C 86.199219 12.078125 85.15625 13.464844 83.867188 13.464844 C 82.574219 13.464844 81.53125 12.078125 81.53125 10.363281 C 81.53125 8.652344 82.574219 7.261719 83.867188 7.261719 C 85.15625 7.261719 86.199219 8.652344 86.199219 10.363281 Z M 86.199219 10.363281 "/>
<path style=" stroke:none;fill-rule:nonzero;fill:rgb(81.568627%,80.392157%,88.235294%);fill-opacity:1;" d="M 82.578125 135.652344 L 135.355469 135.652344 L 135.355469 202.359375 L 82.578125 202.359375 Z M 82.578125 135.652344 "/>
<path style=" stroke:none;fill-rule:nonzero;fill:rgb(100%,100%,100%);fill-opacity:1;" d="M 88.578125 143.621094 L 129.355469 143.621094 L 129.355469 185.058594 L 88.578125 185.058594 Z M 88.578125 143.621094 "/>
<path style=" stroke:none;fill-rule:nonzero;fill:rgb(97.254902%,69.019608%,4.705882%);fill-opacity:1;" d="M 97.550781 150.429688 L 111.847656 150.429688 L 111.847656 169.429688 L 97.550781 169.429688 Z M 97.550781 150.429688 "/>
<path style=" stroke:none;fill-rule:nonzero;fill:rgb(24.705882%,23.921569%,33.72549%);fill-opacity:1;" d="M 103.023438 155.183594 L 103.023438 178.25 L 120.382812 178.25 L 120.382812 155.183594 Z M 119.628906 177.25 L 103.777344 177.25 L 103.777344 156.183594 L 119.628906 156.183594 Z M 119.628906 177.25 "/>
<path style=" stroke:none;fill-rule:nonzero;fill:rgb(94.901961%,94.901961%,94.901961%);fill-opacity:1;" d="M 88.535156 189.171875 L 110.71875 189.171875 L 110.71875 190.726562 L 88.535156 190.726562 Z M 88.535156 189.171875 "/>
<path style=" stroke:none;fill-rule:nonzero;fill:rgb(24.705882%,23.921569%,33.72549%);fill-opacity:1;" d="M 111.300781 139.53125 C 111.300781 141.242188 110.257812 142.632812 108.96875 142.632812 C 107.675781 142.632812 106.632812 141.242188 106.632812 139.53125 C 106.632812 137.816406 107.675781 136.429688 108.96875 136.429688 C 110.257812 136.429688 111.300781 137.816406 111.300781 139.53125 Z M 111.300781 139.53125 "/>
<path style=" stroke:none;fill-rule:nonzero;fill:rgb(81.568627%,80.392157%,88.235294%);fill-opacity:1;" d="M 219.980469 115.679688 L 272.753906 115.679688 L 272.753906 182.390625 L 219.980469 182.390625 Z M 219.980469 115.679688 "/>
<path style=" stroke:none;fill-rule:nonzero;fill:rgb(100%,100%,100%);fill-opacity:1;" d="M 225.980469 123.648438 L 266.757812 123.648438 L 266.757812 165.089844 L 225.980469 165.089844 Z M 225.980469 123.648438 "/>
<path style=" stroke:none;fill-rule:nonzero;fill:rgb(24.705882%,23.921569%,33.72549%);fill-opacity:1;" d="M 241.980469 156.089844 L 250.753906 156.089844 L 250.753906 159.546875 L 241.980469 159.546875 Z M 241.980469 156.089844 "/>
<path style=" stroke:none;fill-rule:nonzero;fill:rgb(24.705882%,23.921569%,33.72549%);fill-opacity:1;" d="M 231.375 129.195312 L 261.359375 129.195312 L 261.359375 130.675781 L 231.375 130.675781 Z M 231.375 129.195312 "/>
<path style=" stroke:none;fill-rule:nonzero;fill:rgb(24.705882%,23.921569%,33.72549%);fill-opacity:1;" d="M 231.375 133.882812 L 261.359375 133.882812 L 261.359375 135.363281 L 231.375 135.363281 Z M 231.375 133.882812 "/>
<path style=" stroke:none;fill-rule:nonzero;fill:rgb(24.705882%,23.921569%,33.72549%);fill-opacity:1;" d="M 231.375 138.570312 L 261.359375 138.570312 L 261.359375 140.050781 L 231.375 140.050781 Z M 231.375 138.570312 "/>
<path style=" stroke:none;fill-rule:nonzero;fill:rgb(24.705882%,23.921569%,33.72549%);fill-opacity:1;" d="M 231.375 143.257812 L 261.359375 143.257812 L 261.359375 144.738281 L 231.375 144.738281 Z M 231.375 143.257812 "/>
<path style=" stroke:none;fill-rule:nonzero;fill:rgb(24.705882%,23.921569%,33.72549%);fill-opacity:1;" d="M 231.375 147.949219 L 261.359375 147.949219 L 261.359375 149.429688 L 231.375 149.429688 Z M 231.375 147.949219 "/>
<path style=" stroke:none;fill-rule:nonzero;fill:rgb(94.901961%,94.901961%,94.901961%);fill-opacity:1;" d="M 225.9375 169.203125 L 248.121094 169.203125 L 248.121094 170.753906 L 225.9375 170.753906 Z M 225.9375 169.203125 "/>
<path style=" stroke:none;fill-rule:nonzero;fill:rgb(94.901961%,94.901961%,94.901961%);fill-opacity:1;" d="M 225.9375 173.082031 L 256.875 173.082031 L 256.875 174.632812 L 225.9375 174.632812 Z M 225.9375 173.082031 "/>
<path style=" stroke:none;fill-rule:nonzero;fill:rgb(24.705882%,23.921569%,33.72549%);fill-opacity:1;" d="M 248.703125 119.558594 C 248.703125 121.273438 247.660156 122.664062 246.367188 122.664062 C 245.078125 122.664062 244.035156 121.273438 244.035156 119.558594 C 244.035156 117.847656 245.078125 116.457031 246.367188 116.457031 C 247.660156 116.457031 248.703125 117.847656 248.703125 119.558594 Z M 248.703125 119.558594 "/>
</g>
</svg>
